Funever Sans Display-Medium.ufo
<glyph name="exclam" format="2">
	<advance width="245"/>
	<unicode hex="0021"/>
	<outline>
		<contour>
			<point x="123" y="-10" type="curve"/>
			<point x="163" y="-10"/>
			<point x="190" y="23"/>
			<point x="190" y="65" type="curve"/>
			<point x="190" y="96"/>
			<point x="164" y="125"/>
			<point x="123" y="125" type="curve"/>
			<point x="83" y="125"/>
			<point x="55" y="92"/>
			<point x="55" y="50" type="curve"/>
			<point x="55" y="20"/>
			<point x="82" y="-10"/>
		</contour>
		<contour>
			<point x="165" y="230" type="line"/>
			<point x="175" y="700" type="line"/>
			<point x="70" y="700" type="line"/>
			<point x="80" y="230" type="line"/>
		</contour>
	</outline>
</glyph>
<glyph name="numbersign" format="2">
	<advance width="639"/>
	<unicode hex="0023"/>
	<outline>
		<contour>
			<point x="554" y="258" type="line"/>
			<point x="25" y="258" type="line"/>
			<point x="25" y="173" type="line"/>
			<point x="554" y="173" type="line"/>
		</contour>
		<contour>
			<point x="614" y="528" type="line"/>
			<point x="85" y="528" type="line"/>
			<point x="85" y="443" type="line"/>
			<point x="614" y="443" type="line"/>
		</contour>
		<contour>
			<point x="145" y="-22" type="line"/>
			<point x="339" y="703" type="line"/>
			<point x="256" y="722" type="line"/>
			<point x="63" y="-2" type="line"/>
		</contour>
		<contour>
			<point x="380" y="-22" type="line"/>
			<point x="574" y="703" type="line"/>
			<point x="491" y="722" type="line"/>
			<point x="298" y="-2" type="line"/>
		</contour>
	</outline>
</glyph>
<glyph name="percent" format="2">
	<advance width="980"/>
	<unicode hex="0025"/>
	<outline>
		<contour>
			<point x="307" y="-49" type="line"/>
			<point x="757" y="701" type="line"/>
			<point x="674" y="749" type="line"/>
			<point x="223" y="-2" type="line"/>
		</contour>
		<contour>
			<point x="223" y="335" type="curve"/>
			<point x="333" y="335"/>
			<point x="410" y="428"/>
			<point x="410" y="543" type="curve"/>
			<point x="410" y="628"/>
			<point x="336" y="710"/>
			<point x="223" y="710" type="curve"/>
			<point x="113" y="710"/>
			<point x="35" y="617"/>
			<point x="35" y="502" type="curve"/>
			<point x="35" y="417"/>
			<point x="109" y="335"/>
		</contour>
		<contour>
			<point x="758" y="-10" type="curve"/>
			<point x="868" y="-10"/>
			<point x="945" y="83"/>
			<point x="945" y="198" type="curve"/>
			<point x="945" y="283"/>
			<point x="871" y="365"/>
			<point x="758" y="365" type="curve"/>
			<point x="648" y="365"/>
			<point x="570" y="272"/>
			<point x="570" y="157" type="curve"/>
			<point x="570" y="72"/>
			<point x="644" y="-10"/>
		</contour>
		<contour>
			<point x="223" y="420" type="curve"/>
			<point x="176" y="420"/>
			<point x="145" y="465"/>
			<point x="145" y="511" type="curve"/>
			<point x="145" y="575"/>
			<point x="177" y="625"/>
			<point x="223" y="625" type="curve"/>
			<point x="269" y="625"/>
			<point x="300" y="580"/>
			<point x="300" y="534" type="curve"/>
			<point x="300" y="470"/>
			<point x="268" y="420"/>
		</contour>
		<contour>
			<point x="758" y="75" type="curve"/>
			<point x="711" y="75"/>
			<point x="680" y="120"/>
			<point x="680" y="166" type="curve"/>
			<point x="680" y="230"/>
			<point x="712" y="280"/>
			<point x="758" y="280" type="curve"/>
			<point x="804" y="280"/>
			<point x="835" y="235"/>
			<point x="835" y="189" type="curve"/>
			<point x="835" y="125"/>
			<point x="803" y="75"/>
		</contour>
	</outline>
</glyph>
<glyph name="ampersand" format="2">
	<advance width="705"/>
	<unicode hex="0026"/>
	<outline>
		<contour>
			<point x="447" y="710" type="line"/>
			<point x="324" y="710"/>
			<point x="131" y="638"/>
			<point x="131" y="521" type="curve"/>
			<point x="131" y="385"/>
			<point x="280" y="241"/>
			<point x="601" y="-15" type="curve"/>
			<point x="668" y="66" type="line"/>
			<point x="368" y="297"/>
			<point x="241" y="419"/>
			<point x="241" y="506" type="curve"/>
			<point x="241" y="575"/>
			<point x="347" y="625"/>
			<point x="447" y="625" type="curve"/>
		</contour>
		<contour>
			<point x="228" y="433" type="line"/>
			<point x="92" y="334"/>
			<point x="35" y="270"/>
			<point x="35" y="148" type="curve"/>
			<point x="35" y="46"/>
			<point x="154" y="-10"/>
			<point x="279" y="-10" type="curve"/>
			<point x="435" y="-10"/>
			<point x="571" y="93"/>
			<point x="662" y="257" type="curve"/>
			<point x="575" y="312" type="line"/>
			<point x="498" y="168"/>
			<point x="401" y="75"/>
			<point x="283" y="75" type="curve"/>
			<point x="195" y="75"/>
			<point x="130" y="116"/>
			<point x="130" y="183" type="curve"/>
			<point x="130" y="231"/>
			<point x="184" y="325"/>
			<point x="268" y="386" type="curve"/>
		</contour>
	</outline>
</glyph>
<glyph name="quotesingle" format="2">
	<advance width="245"/>
	<unicode hex="0027"/>
	<outline>
		<contour>
			<point x="165" y="450" type="line"/>
			<point x="175" y="700" type="line"/>
			<point x="70" y="700" type="line"/>
			<point x="80" y="450" type="line"/>
		</contour>
	</outline>
</glyph>
<glyph name="parenleft" format="2">
	<advance width="343"/>
	<unicode hex="0028"/>
	<outline>
		<contour>
			<point x="308" y="-180" type="line"/>
			<point x="214" y="-46"/>
			<point x="170" y="94"/>
			<point x="170" y="260" type="curve"/>
			<point x="170" y="426"/>
			<point x="214" y="566"/>
			<point x="308" y="700" type="curve"/>
			<point x="214" y="700" type="line"/>
			<point x="117" y="575"/>
			<point x="70" y="421"/>
			<point x="70" y="260" type="curve"/>
			<point x="70" y="98"/>
			<point x="118" y="-56"/>
			<point x="214" y="-180" type="curve"/>
		</contour>
	</outline>
</glyph>
<glyph name="asterisk" format="2">
	<advance width="408"/>
	<unicode hex="002A"/>
	<outline>
		<contour>
			<point x="256" y="370" type="line"/>
			<point x="221" y="535" type="line"/>
			<point x="256" y="700" type="line"/>
			<point x="152" y="700" type="line"/>
			<point x="187" y="535" type="line"/>
			<point x="152" y="370" type="line"/>
		</contour>
		<contour>
			<point x="321" y="663" type="line"/>
			<point x="196" y="550" type="line"/>
			<point x="35" y="498" type="line"/>
			<point x="87" y="407" type="line"/>
			<point x="213" y="520" type="line"/>
			<point x="373" y="572" type="line"/>
		</contour>
		<contour>
			<point x="35" y="572" type="line"/>
			<point x="196" y="520" type="line"/>
			<point x="321" y="407" type="line"/>
			<point x="373" y="498" type="line"/>
			<point x="213" y="550" type="line"/>
			<point x="87" y="663" type="line"/>
		</contour>
	</outline>
</glyph>
<glyph name="plus" format="2">
	<advance width="495"/>
	<unicode hex="002B"/>
	<outline>
		<contour>
			<point x="460" y="343" type="line"/>
			<point x="35" y="343" type="line"/>
			<point x="35" y="258" type="line"/>
			<point x="460" y="258" type="line"/>
		</contour>
		<contour>
			<point x="290" y="88" type="line"/>
			<point x="290" y="513" type="line"/>
			<point x="205" y="513" type="line"/>
			<point x="205" y="88" type="line"/>
		</contour>
	</outline>
</glyph>
<glyph name="comma" format="2">
	<advance width="202"/>
	<unicode hex="002C"/>
	<outline>
		<contour>
			<point x="72" y="-161" type="line"/>
			<point x="167" y="78" type="line"/>
			<point x="65" y="105" type="line"/>
			<point x="10" y="-139" type="line"/>
		</contour>
	</outline>
</glyph>
<glyph name="hyphenminus" format="2">
	<advance width="320"/>
	<unicode hex="002D"/>
	<unicode hex="00AD"/>
	<outline>
		<contour>
			<point x="285" y="293" type="line"/>
			<point x="35" y="293" type="line"/>
			<point x="35" y="208" type="line"/>
			<point x="285" y="208" type="line"/>
		</contour>
	</outline>
</glyph>
<glyph name="period" format="2">
	<advance width="215"/>
	<unicode hex="002E"/>
	<outline>
		<contour>
			<point x="108" y="-10" type="curve"/>
			<point x="148" y="-10"/>
			<point x="175" y="23"/>
			<point x="175" y="65" type="curve"/>
			<point x="175" y="96"/>
			<point x="149" y="125"/>
			<point x="108" y="125" type="curve"/>
			<point x="68" y="125"/>
			<point x="40" y="92"/>
			<point x="40" y="50" type="curve"/>
			<point x="40" y="20"/>
			<point x="67" y="-10"/>
		</contour>
	</outline>
</glyph>
<glyph name="slash" format="2">
	<advance width="447"/>
	<unicode hex="002F"/>
	<outline>
		<contour>
			<point x="127" y="-78" type="line"/>
			<point x="412" y="749" type="line"/>
			<point x="320" y="779" type="line"/>
			<point x="35" y="-49" type="line"/>
		</contour>
	</outline>
</glyph>
<glyph name="zero" format="2">
	<advance width="575"/>
	<unicode hex="0030"/>
	<outline>
		<contour>
			<point x="288" y="-10" type="curve"/>
			<point x="431" y="-10"/>
			<point x="533" y="168"/>
			<point x="533" y="390" type="curve"/>
			<point x="533" y="552"/>
			<point x="436" y="710"/>
			<point x="288" y="710" type="curve"/>
			<point x="144" y="710"/>
			<point x="43" y="532"/>
			<point x="43" y="310" type="curve"/>
			<point x="43" y="148"/>
			<point x="139" y="-10"/>
		</contour>
		<contour>
			<point x="288" y="75" type="curve"/>
			<point x="206" y="75"/>
			<point x="152" y="196"/>
			<point x="152" y="319" type="curve"/>
			<point x="152" y="489"/>
			<point x="208" y="625"/>
			<point x="288" y="625" type="curve"/>
			<point x="369" y="625"/>
			<point x="422" y="504"/>
			<point x="422" y="381" type="curve"/>
			<point x="422" y="211"/>
			<point x="367" y="75"/>
		</contour>
	</outline>
</glyph>
<glyph name="one" format="2">
	<advance width="525"/>
	<unicode hex="0031"/>
	<outline>
		<contour>
			<point x="402" y="0" type="line"/>
			<point x="402" y="720" type="line"/>
			<point x="401" y="720" type="line"/>
			<point x="68" y="481" type="line"/>
			<point x="114" y="410" type="line"/>
			<point x="385" y="617" type="line"/>
			<point x="292" y="617" type="line"/>
			<point x="292" y="0" type="line"/>
		</contour>
	</outline>
</glyph>
<glyph name="two" format="2">
	<advance width="575"/>
	<unicode hex="0032"/>
	<outline>
		<contour>
			<point x="172" y="0" type="line"/>
			<point x="334" y="133"/>
			<point x="496" y="298"/>
			<point x="496" y="468" type="curve"/>
			<point x="496" y="620"/>
			<point x="302" y="710"/>
			<point x="93" y="710" type="curve"/>
			<point x="93" y="625" type="line"/>
			<point x="283" y="625"/>
			<point x="386" y="548"/>
			<point x="386" y="453" type="curve"/>
			<point x="386" y="291"/>
			<point x="235" y="151"/>
			<point x="43" y="1" type="curve"/>
			<point x="43" y="0" type="line"/>
			<point x="526" y="0" type="line"/>
			<point x="526" y="85" type="line"/>
			<point x="193" y="85" type="line"/>
		</contour>
	</outline>
</glyph>
<glyph name="three" format="2">
	<advance width="575"/>
	<unicode hex="0033"/>
	<outline>
		<contour>
			<point x="321" y="344" type="line"/>
			<point x="407" y="390"/>
			<point x="483" y="450"/>
			<point x="483" y="547" type="curve"/>
			<point x="483" y="647"/>
			<point x="305" y="710"/>
			<point x="110" y="710" type="curve"/>
			<point x="110" y="625" type="line"/>
			<point x="277" y="625"/>
			<point x="373" y="580"/>
			<point x="373" y="517" type="curve"/>
			<point x="373" y="454"/>
			<point x="312" y="402"/>
			<point x="200" y="368" type="curve"/>
			<point x="200" y="367" type="line"/>
			<point x="299" y="340"/>
			<point x="397" y="305"/>
			<point x="397" y="218" type="curve"/>
			<point x="397" y="113"/>
			<point x="260" y="75"/>
			<point x="84" y="75" type="curve"/>
			<point x="84" y="-10" type="line"/>
			<point x="315" y="-10"/>
			<point x="506" y="51"/>
			<point x="506" y="202" type="curve"/>
			<point x="506" y="320"/>
			<point x="386" y="368"/>
			<point x="321" y="391" type="curve"/>
		</contour>
	</outline>
</glyph>
<glyph name="four" format="2">
	<advance width="575"/>
	<unicode hex="0034"/>
	<outline>
		<contour>
			<point x="352" y="466" type="line"/>
			<point x="352" y="201" type="line"/>
			<point x="352" y="172" type="line"/>
			<point x="352" y="0" type="line"/>
			<point x="462" y="0" type="line"/>
			<point x="462" y="724" type="line"/>
			<point x="441" y="724" type="line"/>
			<point x="29" y="176" type="line"/>
			<point x="29" y="145" type="line"/>
			<point x="536" y="145" type="line"/>
			<point x="536" y="230" type="line"/>
			<point x="418" y="230" type="line"/>
			<point x="389" y="230" type="line"/>
			<point x="182" y="230" type="line"/>
		</contour>
	</outline>
</glyph>
<glyph name="five" format="2">
	<advance width="575"/>
	<unicode hex="0035"/>
	<outline>
		<contour>
			<point x="511" y="615" type="line"/>
			<point x="511" y="700" type="line"/>
			<point x="115" y="700" type="line"/>
			<point x="105" y="406" type="line"/>
			<point x="278" y="406"/>
			<point x="397" y="360"/>
			<point x="397" y="289" type="curve"/>
			<point x="397" y="163"/>
			<point x="220" y="96"/>
			<point x="64" y="75" type="curve"/>
			<point x="78" y="-10" type="line"/>
			<point x="240" y="6"/>
			<point x="507" y="83"/>
			<point x="507" y="300" type="curve"/>
			<point x="507" y="403"/>
			<point x="357" y="475"/>
			<point x="209" y="475" type="curve"/>
			<point x="214" y="461" type="line"/>
			<point x="225" y="696" type="line"/>
			<point x="119" y="615" type="line"/>
		</contour>
	</outline>
</glyph>
<glyph name="six" format="2">
	<advance width="575"/>
	<unicode hex="0036"/>
	<outline>
		<contour>
			<point x="395" y="710" type="line"/>
			<point x="263" y="637"/>
			<point x="50" y="423"/>
			<point x="50" y="229" type="curve"/>
			<point x="50" y="83"/>
			<point x="135" y="-10"/>
			<point x="272" y="-10" type="curve"/>
			<point x="408" y="-10"/>
			<point x="518" y="69"/>
			<point x="518" y="206" type="curve"/>
			<point x="518" y="334"/>
			<point x="381" y="445"/>
			<point x="142" y="445" type="curve"/>
			<point x="142" y="360" type="line"/>
			<point x="325" y="360"/>
			<point x="409" y="297"/>
			<point x="409" y="211" type="curve"/>
			<point x="409" y="120"/>
			<point x="345" y="75"/>
			<point x="277" y="75" type="curve"/>
			<point x="206" y="75"/>
			<point x="160" y="137"/>
			<point x="160" y="234" type="curve"/>
			<point x="160" y="394"/>
			<point x="312" y="556"/>
			<point x="447" y="635" type="curve"/>
		</contour>
	</outline>
</glyph>
<glyph name="seven" format="2">
	<advance width="575"/>
	<unicode hex="0037"/>
	<outline>
		<contour>
			<point x="435" y="615" type="line"/>
			<point x="435" y="682" type="line"/>
			<point x="122" y="34" type="line"/>
			<point x="216" y="-9" type="line"/>
			<point x="535" y="699" type="line"/>
			<point x="535" y="700" type="line"/>
			<point x="61" y="700" type="line"/>
			<point x="61" y="615" type="line"/>
		</contour>
	</outline>
</glyph>
<glyph name="eight" format="2">
	<advance width="575"/>
	<unicode hex="0038"/>
	<outline>
		<contour>
			<point x="292" y="-10" type="curve"/>
			<point x="432" y="-10"/>
			<point x="533" y="88"/>
			<point x="533" y="211" type="curve"/>
			<point x="533" y="300"/>
			<point x="438" y="388"/>
			<point x="292" y="388" type="curve"/>
			<point x="150" y="388"/>
			<point x="50" y="289"/>
			<point x="50" y="167" type="curve"/>
			<point x="50" y="77"/>
			<point x="145" y="-10"/>
		</contour>
		<contour>
			<point x="291" y="65" type="curve"/>
			<point x="212" y="65"/>
			<point x="160" y="124"/>
			<point x="160" y="185" type="curve"/>
			<point x="160" y="268"/>
			<point x="214" y="335"/>
			<point x="291" y="335" type="curve"/>
			<point x="371" y="335"/>
			<point x="423" y="276"/>
			<point x="423" y="215" type="curve"/>
			<point x="423" y="132"/>
			<point x="368" y="65"/>
		</contour>
		<contour>
			<point x="292" y="353" type="curve"/>
			<point x="420" y="353"/>
			<point x="511" y="441"/>
			<point x="511" y="551" type="curve"/>
			<point x="511" y="631"/>
			<point x="424" y="710"/>
			<point x="292" y="710" type="curve"/>
			<point x="163" y="710"/>
			<point x="72" y="621"/>
			<point x="72" y="511" type="curve"/>
			<point x="72" y="431"/>
			<point x="159" y="353"/>
		</contour>
		<contour>
			<point x="291" y="405" type="curve"/>
			<point x="225" y="405"/>
			<point x="182" y="455"/>
			<point x="182" y="507" type="curve"/>
			<point x="182" y="578"/>
			<point x="227" y="635"/>
			<point x="291" y="635" type="curve"/>
			<point x="357" y="635"/>
			<point x="401" y="584"/>
			<point x="401" y="533" type="curve"/>
			<point x="401" y="462"/>
			<point x="355" y="405"/>
		</contour>
	</outline>
</glyph>
<glyph name="nine" format="2">
	<advance width="575"/>
	<unicode hex="0039"/>
	<outline>
		<contour>
			<point x="173" y="-10" type="line"/>
			<point x="304" y="63"/>
			<point x="518" y="277"/>
			<point x="518" y="471" type="curve"/>
			<point x="518" y="617"/>
			<point x="423" y="710"/>
			<point x="286" y="710" type="curve"/>
			<point x="149" y="710"/>
			<point x="50" y="601"/>
			<point x="50" y="469" type="curve"/>
			<point x="50" y="341"/>
			<point x="188" y="246"/>
			<point x="426" y="246" type="curve"/>
			<point x="426" y="331" type="line"/>
			<point x="243" y="331"/>
			<point x="159" y="379"/>
			<point x="159" y="464" type="curve"/>
			<point x="159" y="550"/>
			<point x="213" y="625"/>
			<point x="281" y="625" type="curve"/>
			<point x="352" y="625"/>
			<point x="408" y="563"/>
			<point x="408" y="466" type="curve"/>
			<point x="408" y="306"/>
			<point x="256" y="144"/>
			<point x="121" y="65" type="curve"/>
		</contour>
	</outline>
</glyph>
<glyph name="less" format="2">
	<advance width="495"/>
	<unicode hex="003C"/>
	<outline>
		<contour>
			<point x="182" y="301" type="line"/>
			<point x="460" y="452" type="line"/>
			<point x="420" y="525" type="line"/>
			<point x="35" y="303" type="line"/>
			<point x="35" y="302" type="line"/>
			<point x="420" y="76" type="line"/>
			<point x="459" y="149" type="line"/>
			<point x="182" y="304" type="line"/>
		</contour>
	</outline>
</glyph>
<glyph name="question" format="2">
	<advance width="403"/>
	<unicode hex="003F"/>
	<outline>
		<contour>
			<point x="35" y="627" type="line"/>
			<point x="177" y="627"/>
			<point x="258" y="557"/>
			<point x="258" y="484" type="curve"/>
			<point x="258" y="404"/>
			<point x="205" y="344"/>
			<point x="106" y="301" type="curve"/>
			<point x="131" y="229" type="line"/>
			<point x="241" y="267"/>
			<point x="368" y="364"/>
			<point x="368" y="496" type="curve"/>
			<point x="368" y="628"/>
			<point x="188" y="710"/>
			<point x="35" y="710" type="curve"/>
		</contour>
		<contour>
			<point x="150" y="-10" type="curve"/>
			<point x="190" y="-10"/>
			<point x="217" y="23"/>
			<point x="217" y="65" type="curve"/>
			<point x="217" y="96"/>
			<point x="191" y="125"/>
			<point x="150" y="125" type="curve"/>
			<point x="110" y="125"/>
			<point x="82" y="92"/>
			<point x="82" y="50" type="curve"/>
			<point x="82" y="20"/>
			<point x="109" y="-10"/>
		</contour>
	</outline>
</glyph>
<glyph name="at" format="2">
	<advance width="890"/>
	<unicode hex="0040"/>
	<outline>
		<contour>
			<point x="445" y="-110" type="curve"/>
			<point x="539" y="-110"/>
			<point x="614" y="-92"/>
			<point x="707" y="-44" type="curve"/>
			<point x="683" y="30" type="line"/>
			<point x="595" y="-13"/>
			<point x="534" y="-25"/>
			<point x="445" y="-25" type="curve"/>
			<point x="266" y="-25"/>
			<point x="145" y="105"/>
			<point x="145" y="257" type="curve"/>
			<point x="145" y="455"/>
			<point x="268" y="623"/>
			<point x="460" y="623" type="curve"/>
			<point x="669" y="623"/>
			<point x="745" y="495"/>
			<point x="745" y="343" type="curve"/>
			<point x="745" y="211"/>
			<point x="707" y="179"/>
			<point x="662" y="179" type="curve"/>
			<point x="628" y="179"/>
			<point x="592" y="192"/>
			<point x="592" y="251" type="curve"/>
			<point x="592" y="476" type="line"/>
			<point x="482" y="476" type="line"/>
			<point x="482" y="251" type="line"/>
			<point x="482" y="103"/>
			<point x="597" y="94"/>
			<point x="669" y="94" type="curve"/>
			<point x="757" y="94"/>
			<point x="855" y="178"/>
			<point x="855" y="346" type="curve"/>
			<point x="855" y="514"/>
			<point x="723" y="710"/>
			<point x="460" y="710" type="curve"/>
			<point x="218" y="710"/>
			<point x="35" y="506"/>
			<point x="35" y="254" type="curve"/>
			<point x="35" y="81"/>
			<point x="184" y="-110"/>
		</contour>
		<contour>
			<point x="592" y="512" type="line"/>
			<point x="384" y="512"/>
			<point x="265" y="379"/>
			<point x="265" y="240" type="curve"/>
			<point x="265" y="145"/>
			<point x="373" y="94"/>
			<point x="459" y="94" type="curve"/>
			<point x="512" y="94"/>
			<point x="550" y="97"/>
			<point x="616" y="121" type="curve"/>
			<point x="591" y="201" type="line"/>
			<point x="544" y="181"/>
			<point x="497" y="179"/>
			<point x="467" y="179" type="curve"/>
			<point x="411" y="179"/>
			<point x="375" y="193"/>
			<point x="375" y="260" type="curve"/>
			<point x="375" y="348"/>
			<point x="427" y="427"/>
			<point x="592" y="427" type="curve"/>
		</contour>
	</outline>
</glyph>
<glyph name="A" format="2">
	<advance width="793"/>
	<unicode hex="0041"/>
	<outline>
		<contour>
			<point x="159" y="171" type="line"/>
			<point x="635" y="171" type="line"/>
			<point x="590" y="256" type="line"/>
			<point x="204" y="256" type="line"/>
		</contour>
		<contour>
			<point x="396" y="714" type="line"/>
			<point x="35" y="34" type="line"/>
			<point x="132" y="-7" type="line"/>
			<point x="402" y="543" type="line"/>
			<point x="393" y="543" type="line"/>
			<point x="661" y="-7" type="line"/>
			<point x="758" y="34" type="line"/>
			<point x="398" y="714" type="line"/>
		</contour>
	</outline>
</glyph>
<glyph name="B" format="2">
	<advance width="559"/>
	<unicode hex="0042"/>
	<outline>
		<contour>
			<point x="180" y="5" type="line"/>
			<point x="180" y="700" type="line"/>
			<point x="70" y="700" type="line"/>
			<point x="70" y="0" type="line"/>
		</contour>
		<contour>
			<point x="70" y="330" type="line"/>
			<point x="354" y="330"/>
			<point x="488" y="436"/>
			<point x="488" y="557" type="curve"/>
			<point x="488" y="678"/>
			<point x="350" y="710"/>
			<point x="70" y="710" type="curve"/>
			<point x="70" y="635" type="line"/>
			<point x="287" y="635"/>
			<point x="378" y="602"/>
			<point x="379" y="532" type="curve"/>
			<point x="379" y="463"/>
			<point x="292" y="387"/>
			<point x="70" y="387" type="curve"/>
		</contour>
		<contour>
			<point x="70" y="-10" type="line"/>
			<point x="389" y="-10"/>
			<point x="524" y="92"/>
			<point x="524" y="214" type="curve"/>
			<point x="524" y="336"/>
			<point x="374" y="387"/>
			<point x="70" y="387" type="curve"/>
			<point x="70" y="327" type="line"/>
			<point x="335" y="327"/>
			<point x="413" y="283"/>
			<point x="413" y="214" type="curve"/>
			<point x="413" y="140"/>
			<point x="324" y="65"/>
			<point x="70" y="65" type="curve"/>
		</contour>
	</outline>
</glyph>
<glyph name="C" format="2">
	<advance width="628"/>
	<unicode hex="0043"/>
	<outline>
		<contour>
			<point x="563" y="710" type="line"/>
			<point x="248" y="710"/>
			<point x="35" y="480"/>
			<point x="35" y="242" type="curve"/>
			<point x="35" y="77"/>
			<point x="229" y="-10"/>
			<point x="378" y="-10" type="curve"/>
			<point x="469" y="-10"/>
			<point x="534" y="-4"/>
			<point x="593" y="16" type="curve"/>
			<point x="576" y="100" type="line"/>
			<point x="528" y="82"/>
			<point x="448" y="75"/>
			<point x="391" y="75" type="curve"/>
			<point x="288" y="75"/>
			<point x="145" y="134"/>
			<point x="145" y="267" type="curve"/>
			<point x="145" y="455"/>
			<point x="341" y="625"/>
			<point x="563" y="625" type="curve"/>
		</contour>
	</outline>
</glyph>
<glyph name="D" format="2">
	<advance width="653"/>
	<unicode hex="0044"/>
	<outline>
		<contour>
			<point x="180" y="10" type="line"/>
			<point x="180" y="695" type="line"/>
			<point x="70" y="700" type="line"/>
			<point x="70" y="0" type="line"/>
		</contour>
		<contour>
			<point x="70" y="-10" type="line"/>
			<point x="410" y="-10"/>
			<point x="618" y="180"/>
			<point x="618" y="418" type="curve"/>
			<point x="618" y="653"/>
			<point x="389" y="710"/>
			<point x="70" y="710" type="curve"/>
			<point x="70" y="625" type="line"/>
			<point x="340" y="625"/>
			<point x="508" y="583"/>
			<point x="508" y="418" type="curve"/>
			<point x="508" y="206"/>
			<point x="327" y="75"/>
			<point x="70" y="75" type="curve"/>
		</contour>
	</outline>
</glyph>
<glyph name="E" format="2">
	<advance width="496"/>
	<unicode hex="0045"/>
	<outline>
		<contour>
			<point x="180" y="399" type="line"/>
			<point x="180" y="615" type="line"/>
			<point x="432" y="615" type="line"/>
			<point x="432" y="700" type="line"/>
			<point x="70" y="700" type="line"/>
			<point x="70" y="0" type="line"/>
			<point x="461" y="0" type="line"/>
			<point x="461" y="85" type="line"/>
			<point x="180" y="85" type="line"/>
			<point x="180" y="314" type="line"/>
			<point x="417" y="314" type="line"/>
			<point x="417" y="399" type="line"/>
		</contour>
	</outline>
</glyph>
<glyph name="F" format="2">
	<advance width="467"/>
	<unicode hex="0046"/>
	<outline>
		<contour>
			<point x="180" y="379" type="line"/>
			<point x="180" y="615" type="line"/>
			<point x="432" y="615" type="line"/>
			<point x="432" y="700" type="line"/>
			<point x="70" y="700" type="line"/>
			<point x="70" y="0" type="line"/>
			<point x="180" y="0" type="line"/>
			<point x="180" y="294" type="line"/>
			<point x="417" y="294" type="line"/>
			<point x="417" y="379" type="line"/>
		</contour>
	</outline>
</glyph>
<glyph name="H" format="2">
	<advance width="762"/>
	<unicode hex="0048"/>
	<outline>
		<contour>
			<point x="180" y="329" type="line"/>
			<point x="582" y="329" type="line"/>
			<point x="582" y="0" type="line"/>
			<point x="692" y="0" type="line"/>
			<point x="692" y="700" type="line"/>
			<point x="582" y="700" type="line"/>
			<point x="582" y="414" type="line"/>
			<point x="180" y="414" type="line"/>
			<point x="180" y="700" type="line"/>
			<point x="70" y="700" type="line"/>
			<point x="70" y="0" type="line"/>
			<point x="180" y="0" type="line"/>
		</contour>
	</outline>
</glyph>
<glyph name="I" format="2">
	<advance width="250"/>
	<unicode hex="0049"/>
	<outline>
		<contour>
			<point x="180" y="0" type="line"/>
			<point x="180" y="700" type="line"/>
			<point x="70" y="700" type="line"/>
			<point x="70" y="0" type="line"/>
		</contour>
	</outline>
</glyph>
<glyph name="J" format="2">
	<advance width="360"/>
	<unicode hex="004A"/>
	<outline>
		<contour>
			<point x="59" y="-10" type="line"/>
			<point x="198" y="18"/>
			<point x="290" y="91"/>
			<point x="290" y="263" type="curve"/>
			<point x="290" y="700" type="line"/>
			<point x="180" y="700" type="line"/>
			<point x="180" y="263" type="line"/>
			<point x="180" y="159"/>
			<point x="145" y="101"/>
			<point x="35" y="75" type="curve"/>
		</contour>
	</outline>
</glyph>
<glyph name="K" format="2">
	<advance width="640"/>
	<unicode hex="004B"/>
	<outline>
		<contour>
			<point x="180" y="0" type="line"/>
			<point x="180" y="700" type="line"/>
			<point x="70" y="700" type="line"/>
			<point x="70" y="0" type="line"/>
		</contour>
		<contour>
			<point x="165" y="344" type="line"/>
			<point x="516" y="7" type="line"/>
			<point x="605" y="77" type="line"/>
			<point x="290" y="345" type="line"/>
			<point x="584" y="619" type="line"/>
			<point x="489" y="691" type="line"/>
		</contour>
	</outline>
</glyph>
<glyph name="L" format="2">
	<advance width="471"/>
	<unicode hex="004C"/>
	<outline>
		<contour>
			<point x="70" y="0" type="line"/>
			<point x="436" y="0" type="line"/>
			<point x="436" y="85" type="line"/>
			<point x="180" y="85" type="line"/>
			<point x="180" y="700" type="line"/>
			<point x="70" y="700" type="line"/>
		</contour>
	</outline>
</glyph>
<glyph name="M" format="2">
	<advance width="898"/>
	<unicode hex="004D"/>
	<outline>
		<contour>
			<point x="448" y="124" type="line"/>
			<point x="450" y="124" type="line"/>
			<point x="673" y="479" type="line"/>
			<point x="666" y="479" type="line"/>
			<point x="753" y="-4" type="line"/>
			<point x="863" y="23" type="line"/>
			<point x="718" y="722" type="line"/>
			<point x="717" y="722" type="line"/>
			<point x="445" y="296" type="line"/>
			<point x="453" y="296" type="line"/>
			<point x="181" y="722" type="line"/>
			<point x="180" y="722" type="line"/>
			<point x="35" y="23" type="line"/>
			<point x="145" y="-4" type="line"/>
			<point x="232" y="479" type="line"/>
			<point x="224" y="479" type="line"/>
		</contour>
	</outline>
</glyph>
<glyph name="N" format="2">
	<advance width="781"/>
	<unicode hex="004E"/>
	<outline>
		<contour>
			<point x="180" y="469" type="line"/>
			<point x="710" y="-14" type="line"/>
			<point x="711" y="-14" type="line"/>
			<point x="711" y="700" type="line"/>
			<point x="601" y="700" type="line"/>
			<point x="601" y="240" type="line"/>
			<point x="71" y="714" type="line"/>
			<point x="70" y="714" type="line"/>
			<point x="70" y="0" type="line"/>
			<point x="180" y="0" type="line"/>
		</contour>
	</outline>
</glyph>
<glyph name="O" format="2">
	<advance width="770"/>
	<unicode hex="004F"/>
	<outline>
		<contour>
			<point x="385" y="-10" type="curve"/>
			<point x="590" y="-10"/>
			<point x="735" y="168"/>
			<point x="735" y="390" type="curve"/>
			<point x="735" y="552"/>
			<point x="597" y="710"/>
			<point x="385" y="710" type="curve"/>
			<point x="180" y="710"/>
			<point x="35" y="532"/>
			<point x="35" y="310" type="curve"/>
			<point x="35" y="148"/>
			<point x="173" y="-10"/>
		</contour>
		<contour>
			<point x="385" y="75" type="curve"/>
			<point x="240" y="75"/>
			<point x="145" y="196"/>
			<point x="145" y="319" type="curve"/>
			<point x="145" y="489"/>
			<point x="244" y="625"/>
			<point x="385" y="625" type="curve"/>
			<point x="530" y="625"/>
			<point x="625" y="504"/>
			<point x="625" y="381" type="curve"/>
			<point x="625" y="211"/>
			<point x="526" y="75"/>
		</contour>
	</outline>
</glyph>
<glyph name="P" format="2">
	<advance width="533"/>
	<unicode hex="0050"/>
	<outline>
		<contour>
			<point x="70" y="200" type="line"/>
			<point x="329" y="200"/>
			<point x="498" y="348"/>
			<point x="498" y="506" type="curve"/>
			<point x="498" y="662"/>
			<point x="315" y="710"/>
			<point x="70" y="710" type="curve"/>
			<point x="70" y="625" type="line"/>
			<point x="286" y="625"/>
			<point x="388" y="596"/>
			<point x="389" y="491" type="curve"/>
			<point x="389" y="365"/>
			<point x="250" y="285"/>
			<point x="70" y="285" type="curve"/>
		</contour>
		<contour>
			<point x="180" y="0" type="line"/>
			<point x="180" y="695" type="line"/>
			<point x="70" y="700" type="line"/>
			<point x="70" y="0" type="line"/>
		</contour>
	</outline>
</glyph>
<glyph name="Q" format="2">
	<advance width="770"/>
	<unicode hex="0051"/>
	<outline>
		<contour>
			<point x="385" y="-10" type="curve"/>
			<point x="590" y="-10"/>
			<point x="735" y="168"/>
			<point x="735" y="390" type="curve"/>
			<point x="735" y="552"/>
			<point x="597" y="710"/>
			<point x="385" y="710" type="curve"/>
			<point x="180" y="710"/>
			<point x="35" y="532"/>
			<point x="35" y="310" type="curve"/>
			<point x="35" y="148"/>
			<point x="173" y="-10"/>
		</contour>
		<contour>
			<point x="385" y="75" type="curve"/>
			<point x="240" y="75"/>
			<point x="145" y="196"/>
			<point x="145" y="320" type="curve"/>
			<point x="145" y="489"/>
			<point x="245" y="625"/>
			<point x="385" y="625" type="curve"/>
			<point x="531" y="625"/>
			<point x="625" y="505"/>
			<point x="625" y="381" type="curve"/>
			<point x="625" y="211"/>
			<point x="526" y="75"/>
		</contour>
		<contour>
			<point x="407" y="39" type="line"/>
			<point x="363" y="-8" type="line"/>
			<point x="709" y="-120" type="line"/>
			<point x="735" y="-39" type="line"/>
		</contour>
	</outline>
</glyph>
<glyph name="R" format="2">
	<advance width="607"/>
	<unicode hex="0052"/>
	<outline>
		<contour>
			<point x="180" y="0" type="line"/>
			<point x="180" y="700" type="line"/>
			<point x="70" y="700" type="line"/>
			<point x="70" y="0" type="line"/>
		</contour>
		<contour>
			<point x="272" y="271" type="line"/>
			<point x="403" y="337"/>
			<point x="504" y="419"/>
			<point x="504" y="516" type="curve"/>
			<point x="504" y="662"/>
			<point x="341" y="710"/>
			<point x="70" y="710" type="curve"/>
			<point x="70" y="625" type="line"/>
			<point x="292" y="625"/>
			<point x="394" y="596"/>
			<point x="394" y="501" type="curve"/>
			<point x="395" y="436"/>
			<point x="336" y="373"/>
			<point x="218" y="324" type="curve"/>
			<point x="471" y="-6" type="line"/>
			<point x="572" y="45" type="line"/>
			<point x="321" y="339" type="line"/>
		</contour>
	</outline>
</glyph>
<glyph name="S" format="2">
	<advance width="422"/>
	<unicode hex="0053"/>
	<outline>
		<contour>
			<point x="326" y="710" type="line"/>
			<point x="223" y="710"/>
			<point x="35" y="628"/>
			<point x="35" y="511" type="curve"/>
			<point x="35" y="435"/>
			<point x="85" y="397"/>
			<point x="146" y="350" type="curve"/>
			<point x="190" y="315"/>
			<point x="277" y="254"/>
			<point x="277" y="199" type="curve"/>
			<point x="277" y="130"/>
			<point x="161" y="75"/>
			<point x="58" y="75" type="curve"/>
			<point x="58" y="-10" type="line"/>
			<point x="177" y="-10"/>
			<point x="387" y="59"/>
			<point x="387" y="189" type="curve"/>
			<point x="387" y="271"/>
			<point x="318" y="329"/>
			<point x="253" y="376" type="curve"/>
			<point x="210" y="406"/>
			<point x="145" y="456"/>
			<point x="145" y="496" type="curve"/>
			<point x="145" y="565"/>
			<point x="231" y="625"/>
			<point x="326" y="625" type="curve"/>
		</contour>
	</outline>
</glyph>
<glyph name="T" format="2">
	<advance width="721"/>
	<unicode hex="0054"/>
	<outline>
		<contour>
			<point x="306" y="615" type="line"/>
			<point x="306" y="0" type="line"/>
			<point x="416" y="0" type="line"/>
			<point x="416" y="615" type="line"/>
			<point x="686" y="615" type="line"/>
			<point x="686" y="700" type="line"/>
			<point x="35" y="700" type="line"/>
			<point x="35" y="615" type="line"/>
		</contour>
	</outline>
</glyph>
<glyph name="U" format="2">
	<advance width="750"/>
	<unicode hex="0055"/>
	<outline>
		<contour>
			<point x="70" y="313" type="line"/>
			<point x="70" y="147"/>
			<point x="167" y="-10"/>
			<point x="358" y="-10" type="curve"/>
			<point x="571" y="-10"/>
			<point x="680" y="113"/>
			<point x="680" y="313" type="curve"/>
			<point x="680" y="700" type="line"/>
			<point x="570" y="700" type="line"/>
			<point x="570" y="313" type="line"/>
			<point x="570" y="176"/>
			<point x="498" y="75"/>
			<point x="358" y="75" type="curve"/>
			<point x="245" y="75"/>
			<point x="180" y="191"/>
			<point x="180" y="313" type="curve"/>
			<point x="180" y="700" type="line"/>
			<point x="70" y="700" type="line"/>
		</contour>
	</outline>
</glyph>
<glyph name="V" format="2">
	<advance width="793"/>
	<unicode hex="0056"/>
	<outline>
		<contour>
			<point x="131" y="707" type="line"/>
			<point x="34" y="666" type="line"/>
			<point x="395" y="-14" type="line"/>
			<point x="397" y="-14" type="line"/>
			<point x="757" y="666" type="line"/>
			<point x="660" y="707" type="line"/>
			<point x="393" y="166" type="line"/>
			<point x="400" y="166" type="line"/>
		</contour>
	</outline>
</glyph>
<glyph name="W" format="2">
	<advance width="1048"/>
	<unicode hex="0057"/>
	<outline>
		<contour>
			<point x="529" y="433" type="line"/>
			<point x="519" y="433" type="line"/>
			<point x="762" y="-14" type="line"/>
			<point x="763" y="-14" type="line"/>
			<point x="1013" y="667" type="line"/>
			<point x="916" y="706" type="line"/>
			<point x="744" y="202" type="line"/>
			<point x="752" y="202" type="line"/>
			<point x="525" y="614" type="line"/>
			<point x="523" y="614" type="line"/>
			<point x="296" y="202" type="line"/>
			<point x="304" y="202" type="line"/>
			<point x="133" y="704" type="line"/>
			<point x="35" y="667" type="line"/>
			<point x="287" y="-14" type="line"/>
			<point x="288" y="-14" type="line"/>
		</contour>
	</outline>
</glyph>
<glyph name="X" format="2">
	<advance width="706"/>
	<unicode hex="0058"/>
	<outline>
		<contour>
			<point x="676" y="42" type="line"/>
			<point x="413" y="372" type="line"/>
			<point x="413" y="356" type="line"/>
			<point x="656" y="659" type="line"/>
			<point x="563" y="710" type="line"/>
			<point x="313" y="377" type="line"/>
			<point x="313" y="350" type="line"/>
			<point x="583" y="-10" type="line"/>
		</contour>
		<contour>
			<point x="30" y="42" type="line"/>
			<point x="124" y="-10" type="line"/>
			<point x="394" y="350" type="line"/>
			<point x="394" y="377" type="line"/>
			<point x="144" y="710" type="line"/>
			<point x="50" y="659" type="line"/>
			<point x="293" y="356" type="line"/>
			<point x="293" y="372" type="line"/>
		</contour>
	</outline>
</glyph>
<glyph name="Y" format="2">
	<advance width="715"/>
	<unicode hex="0059"/>
	<outline>
		<contour>
			<point x="413" y="0" type="line"/>
			<point x="413" y="338" type="line"/>
			<point x="303" y="338" type="line"/>
			<point x="303" y="0" type="line"/>
		</contour>
		<contour>
			<point x="358" y="251" type="line"/>
			<point x="680" y="650" type="line"/>
			<point x="595" y="710" type="line"/>
			<point x="352" y="388" type="line"/>
			<point x="363" y="388" type="line"/>
			<point x="121" y="710" type="line"/>
			<point x="35" y="650" type="line"/>
		</contour>
	</outline>
</glyph>
<glyph name="Z" format="2">
	<advance width="633"/>
	<unicode hex="005A"/>
	<outline>
		<contour>
			<point x="421" y="615" type="line"/>
			<point x="35" y="1" type="line"/>
			<point x="35" y="0" type="line"/>
			<point x="598" y="0" type="line"/>
			<point x="598" y="85" type="line"/>
			<point x="199" y="85" type="line"/>
			<point x="574" y="699" type="line"/>
			<point x="574" y="700" type="line"/>
			<point x="62" y="700" type="line"/>
			<point x="62" y="615" type="line"/>
		</contour>
	</outline>
</glyph>
<glyph name="bracketleft" format="2">
	<advance width="345"/>
	<unicode hex="005B"/>
	<outline>
		<contour>
			<point x="310" y="-155" type="line"/>
			<point x="310" y="-70" type="line"/>
			<point x="180" y="-70" type="line"/>
			<point x="180" y="615" type="line"/>
			<point x="310" y="615" type="line"/>
			<point x="310" y="700" type="line"/>
			<point x="70" y="700" type="line"/>
			<point x="70" y="-155" type="line"/>
		</contour>
	</outline>
</glyph>
<glyph name="underscore" format="2">
	<advance width="495"/>
	<unicode hex="005F"/>
	<outline>
		<contour>
			<point x="460" y="-117" type="line"/>
			<point x="35" y="-117" type="line"/>
			<point x="35" y="-202" type="line"/>
			<point x="460" y="-202" type="line"/>
		</contour>
	</outline>
</glyph>
<glyph name="grave" format="2">
	<advance width="288"/>
	<unicode hex="0060"/>
	<outline>
		<contour>
			<point x="253" y="560" type="line"/>
			<point x="116" y="770" type="line"/>
			<point x="35" y="702" type="line"/>
			<point x="219" y="531" type="line"/>
		</contour>
	</outline>
</glyph>
<glyph name="a" format="2">
	<advance width="506"/>
	<unicode hex="0061"/>
	<outline>
		<contour>
			<point x="334" y="330" type="line"/>
			<point x="138" y="330"/>
			<point x="35" y="205"/>
			<point x="35" y="128" type="curve"/>
			<point x="35" y="45"/>
			<point x="125" y="-10"/>
			<point x="232" y="-10" type="curve"/>
			<point x="298" y="-10"/>
			<point x="345" y="-7"/>
			<point x="431" y="3" type="curve"/>
			<point x="427" y="78" type="line"/>
			<point x="338" y="67"/>
			<point x="279" y="65"/>
			<point x="242" y="65" type="curve"/>
			<point x="192" y="65"/>
			<point x="145" y="94"/>
			<point x="145" y="128" type="curve"/>
			<point x="145" y="195"/>
			<point x="196" y="255"/>
			<point x="334" y="255" type="curve"/>
		</contour>
		<contour>
			<point x="321" y="3" type="line"/>
			<point x="431" y="3" type="line"/>
			<point x="431" y="260" type="line"/>
			<point x="431" y="444"/>
			<point x="300" y="501"/>
			<point x="86" y="510" type="curve"/>
			<point x="82" y="435" type="line"/>
			<point x="274" y="428"/>
			<point x="321" y="383"/>
			<point x="321" y="260" type="curve"/>
		</contour>
	</outline>
</glyph>
<glyph name="b" format="2">
	<advance width="561"/>
	<unicode hex="0062"/>
	<outline>
		<contour>
			<point x="180" y="10" type="line"/>
			<point x="180" y="730" type="line"/>
			<point x="70" y="730" type="line"/>
			<point x="70" y="0" type="line"/>
		</contour>
		<contour>
			<point x="70" y="-9" type="line"/>
			<point x="385" y="-9"/>
			<point x="526" y="117"/>
			<point x="526" y="281" type="curve"/>
			<point x="525" y="422"/>
			<point x="349" y="515"/>
			<point x="70" y="515" type="curve"/>
			<point x="70" y="430" type="line"/>
			<point x="303" y="430"/>
			<point x="415" y="359"/>
			<point x="415" y="271" type="curve"/>
			<point x="415" y="159"/>
			<point x="311" y="76"/>
			<point x="70" y="76" type="curve"/>
		</contour>
	</outline>
</glyph>
<glyph name="c" format="2">
	<advance width="477"/>
	<unicode hex="0063"/>
	<outline>
		<contour>
			<point x="420" y="510" type="line"/>
			<point x="192" y="510"/>
			<point x="35" y="344"/>
			<point x="35" y="172" type="curve"/>
			<point x="35" y="53"/>
			<point x="141" y="-10"/>
			<point x="286" y="-10" type="curve"/>
			<point x="352" y="-10"/>
			<point x="399" y="-6"/>
			<point x="442" y="9" type="curve"/>
			<point x="433" y="94" type="line"/>
			<point x="392" y="79"/>
			<point x="355" y="75"/>
			<point x="306" y="75" type="curve"/>
			<point x="236" y="75"/>
			<point x="145" y="116"/>
			<point x="145" y="188" type="curve"/>
			<point x="145" y="311"/>
			<point x="269" y="425"/>
			<point x="420" y="425" type="curve"/>
		</contour>
	</outline>
</glyph>
<glyph name="e" format="2">
	<advance width="533"/>
	<unicode hex="0065"/>
	<outline>
		<contour>
			<point x="48" y="295" type="line"/>
			<point x="48" y="220" type="line"/>
			<point x="498" y="220" type="line"/>
			<point x="498" y="388"/>
			<point x="433" y="510"/>
			<point x="270" y="510" type="curve"/>
			<point x="108" y="510"/>
			<point x="35" y="356"/>
			<point x="35" y="248" type="curve"/>
			<point x="35" y="56"/>
			<point x="203" y="-10"/>
			<point x="429" y="-10" type="curve"/>
			<point x="429" y="75" type="line"/>
			<point x="255" y="75"/>
			<point x="145" y="116"/>
			<point x="145" y="248" type="curve"/>
			<point x="145" y="338"/>
			<point x="189" y="425"/>
			<point x="270" y="425" type="curve"/>
			<point x="352" y="425"/>
			<point x="388" y="353"/>
			<point x="388" y="286" type="curve"/>
			<point x="400" y="295" type="line"/>
		</contour>
	</outline>
</glyph>
<glyph name="g" format="2">
	<advance width="560"/>
	<unicode hex="0067"/>
	<outline>
		<contour>
			<point x="490" y="510" type="line"/>
			<point x="234" y="510"/>
			<point x="35" y="402"/>
			<point x="35" y="210" type="curve"/>
			<point x="35" y="48"/>
			<point x="189" y="-10"/>
			<point x="326" y="-10" type="curve"/>
			<point x="397" y="-10"/>
			<point x="443" y="-6"/>
			<point x="490" y="9" type="curve"/>
			<point x="481" y="94" type="line"/>
			<point x="435" y="80"/>
			<point x="396" y="75"/>
			<point x="356" y="75" type="curve"/>
			<point x="242" y="75"/>
			<point x="145" y="105"/>
			<point x="145" y="215" type="curve"/>
			<point x="145" y="327"/>
			<point x="256" y="425"/>
			<point x="490" y="425" type="curve"/>
		</contour>
		<contour>
			<point x="114" y="-240" type="line"/>
			<point x="359" y="-240"/>
			<point x="490" y="-174"/>
			<point x="490" y="0" type="curve"/>
			<point x="491" y="500" type="line"/>
			<point x="381" y="490" type="line"/>
			<point x="381" y="0" type="line"/>
			<point x="381" y="-110"/>
			<point x="290" y="-155"/>
			<point x="114" y="-155" type="curve"/>
		</contour>
	</outline>
</glyph>
<glyph name="h" format="2">
	<advance width="632"/>
	<unicode hex="0068"/>
	<outline>
		<contour>
			<point x="562" y="256" type="line"/>
			<point x="562" y="379"/>
			<point x="545" y="510"/>
			<point x="391" y="510" type="curve"/>
			<point x="242" y="510"/>
			<point x="100" y="382"/>
			<point x="100" y="256" type="curve"/>
			<point x="180" y="256" type="line"/>
			<point x="180" y="360"/>
			<point x="255" y="435"/>
			<point x="342" y="435" type="curve"/>
			<point x="429" y="435"/>
			<point x="452" y="345"/>
			<point x="452" y="256" type="curve"/>
			<point x="452" y="0" type="line"/>
			<point x="562" y="0" type="line"/>
		</contour>
		<contour>
			<point x="70" y="730" type="line"/>
			<point x="70" y="0" type="line"/>
			<point x="180" y="0" type="line"/>
			<point x="180" y="730" type="line"/>
		</contour>
	</outline>
</glyph>
<glyph name="i" format="2">
	<advance width="250"/>
	<unicode hex="0069"/>
	<outline>
		<contour>
			<point x="180" y="0" type="line"/>
			<point x="180" y="500" type="line"/>
			<point x="70" y="500" type="line"/>
			<point x="70" y="0" type="line"/>
		</contour>
		<contour>
			<point x="125" y="590" type="curve"/>
			<point x="165" y="590"/>
			<point x="193" y="623"/>
			<point x="193" y="665" type="curve"/>
			<point x="193" y="695"/>
			<point x="166" y="725"/>
			<point x="125" y="725" type="curve"/>
			<point x="86" y="725"/>
			<point x="58" y="692"/>
			<point x="58" y="650" type="curve"/>
			<point x="58" y="620"/>
			<point x="84" y="590"/>
		</contour>
	</outline>
</glyph>
<glyph name="j" format="2">
	<advance width="250"/>
	<unicode hex="006A"/>
	<outline>
		<contour>
			<point x="-28" y="-239" type="line"/>
			<point x="73" y="-222"/>
			<point x="180" y="-137"/>
			<point x="180" y="0" type="curve"/>
			<point x="180" y="500" type="line"/>
			<point x="70" y="500" type="line"/>
			<point x="70" y="20" type="line"/>
			<point x="70" y="-89"/>
			<point x="21" y="-137"/>
			<point x="-55" y="-154" type="curve"/>
		</contour>
		<contour>
			<point x="125" y="590" type="curve"/>
			<point x="165" y="590"/>
			<point x="193" y="623"/>
			<point x="193" y="665" type="curve"/>
			<point x="193" y="695"/>
			<point x="166" y="725"/>
			<point x="125" y="725" type="curve"/>
			<point x="86" y="725"/>
			<point x="58" y="692"/>
			<point x="58" y="650" type="curve"/>
			<point x="58" y="620"/>
			<point x="84" y="590"/>
		</contour>
	</outline>
</glyph>
<glyph name="l" format="2">
	<advance width="250"/>
	<unicode hex="006C"/>
	<outline>
		<contour>
			<point x="180" y="0" type="line"/>
			<point x="180" y="730" type="line"/>
			<point x="70" y="730" type="line"/>
			<point x="70" y="0" type="line"/>
		</contour>
	</outline>
</glyph>
<glyph name="m" format="2">
	<advance width="934"/>
	<unicode hex="006D"/>
	<outline>
		<contour>
			<point x="522" y="256" type="line"/>
			<point x="522" y="379"/>
			<point x="505" y="510"/>
			<point x="371" y="510" type="curve"/>
			<point x="222" y="510"/>
			<point x="100" y="382"/>
			<point x="100" y="256" type="curve"/>
			<point x="180" y="256" type="line"/>
			<point x="180" y="360"/>
			<point x="235" y="435"/>
			<point x="322" y="435" type="curve"/>
			<point x="409" y="435"/>
			<point x="412" y="345"/>
			<point x="412" y="256" type="curve"/>
			<point x="412" y="0" type="line"/>
			<point x="522" y="0" type="line"/>
		</contour>
		<contour>
			<point x="70" y="500" type="line"/>
			<point x="70" y="0" type="line"/>
			<point x="180" y="0" type="line"/>
			<point x="180" y="500" type="line"/>
		</contour>
		<contour>
			<point x="864" y="256" type="line"/>
			<point x="864" y="379"/>
			<point x="847" y="510"/>
			<point x="713" y="510" type="curve"/>
			<point x="564" y="510"/>
			<point x="442" y="382"/>
			<point x="442" y="256" type="curve"/>
			<point x="522" y="256" type="line"/>
			<point x="522" y="360"/>
			<point x="577" y="435"/>
			<point x="664" y="435" type="curve"/>
			<point x="751" y="435"/>
			<point x="754" y="345"/>
			<point x="754" y="256" type="curve"/>
			<point x="754" y="0" type="line"/>
			<point x="864" y="0" type="line"/>
		</contour>
	</outline>
</glyph>
<glyph name="q" format="2">
	<advance width="561"/>
	<unicode hex="0071"/>
	<outline>
		<contour>
			<point x="381" y="-230" type="line"/>
			<point x="491" y="-230" type="line"/>
			<point x="491" y="500" type="line"/>
			<point x="381" y="485" type="line"/>
		</contour>
		<contour>
			<point x="491" y="510" type="line"/>
			<point x="214" y="510"/>
			<point x="35" y="350"/>
			<point x="35" y="178" type="curve"/>
			<point x="35" y="48"/>
			<point x="184" y="-10"/>
			<point x="326" y="-10" type="curve"/>
			<point x="398" y="-10"/>
			<point x="443" y="-6"/>
			<point x="491" y="8" type="curve"/>
			<point x="482" y="93" type="line"/>
			<point x="435" y="81"/>
			<point x="387" y="75"/>
			<point x="346" y="75" type="curve"/>
			<point x="243" y="75"/>
			<point x="145" y="107"/>
			<point x="145" y="193" type="curve"/>
			<point x="145" y="304"/>
			<point x="262" y="425"/>
			<point x="491" y="425" type="curve"/>
		</contour>
	</outline>
</glyph>
<glyph name="r" format="2">
	<advance width="402"/>
	<unicode hex="0072"/>
	<outline>
		<contour>
			<point x="358" y="510" type="line"/>
			<point x="258" y="491"/>
			<point x="135" y="415"/>
			<point x="135" y="242" type="curve"/>
			<point x="180" y="242" type="line"/>
			<point x="180" y="344"/>
			<point x="287" y="407"/>
			<point x="367" y="426" type="curve"/>
		</contour>
		<contour>
			<point x="70" y="500" type="line"/>
			<point x="70" y="0" type="line"/>
			<point x="180" y="0" type="line"/>
			<point x="180" y="500" type="line"/>
		</contour>
	</outline>
</glyph>
<glyph name="s" format="2">
	<advance width="362"/>
	<unicode hex="0073"/>
	<outline>
		<contour>
			<point x="285" y="510" type="line"/>
			<point x="165" y="510"/>
			<point x="35" y="448"/>
			<point x="35" y="366" type="curve"/>
			<point x="35" y="315"/>
			<point x="64" y="277"/>
			<point x="115" y="239" type="curve"/>
			<point x="152" y="212"/>
			<point x="217" y="187"/>
			<point x="217" y="151" type="curve"/>
			<point x="217" y="110"/>
			<point x="129" y="75"/>
			<point x="53" y="75" type="curve"/>
			<point x="53" y="-10" type="line"/>
			<point x="184" y="-10"/>
			<point x="327" y="42"/>
			<point x="327" y="126" type="curve"/>
			<point x="327" y="189"/>
			<point x="284" y="232"/>
			<point x="236" y="265" type="curve"/>
			<point x="201" y="290"/>
			<point x="140" y="316"/>
			<point x="140" y="346" type="curve"/>
			<point x="140" y="389"/>
			<point x="217" y="425"/>
			<point x="285" y="425" type="curve"/>
		</contour>
	</outline>
</glyph>
<glyph name="t" format="2">
	<advance width="376"/>
	<unicode hex="0074"/>
	<outline>
		<contour>
			<point x="341" y="500" type="line"/>
			<point x="35" y="500" type="line"/>
			<point x="35" y="415" type="line"/>
			<point x="341" y="415" type="line"/>
		</contour>
		<contour>
			<point x="336" y="-10" type="curve"/>
			<point x="336" y="75" type="line"/>
			<point x="264" y="75"/>
			<point x="220" y="119"/>
			<point x="220" y="213" type="curve"/>
			<point x="220" y="600" type="line"/>
			<point x="110" y="600" type="line"/>
			<point x="110" y="198" type="line"/>
			<point x="110" y="56"/>
			<point x="192" y="-10"/>
		</contour>
	</outline>
</glyph>
<glyph name="u" format="2">
	<advance width="632"/>
	<unicode hex="0075"/>
	<outline>
		<contour>
			<point x="562" y="0" type="line"/>
			<point x="562" y="500" type="line"/>
			<point x="452" y="500" type="line"/>
			<point x="452" y="0" type="line"/>
		</contour>
		<contour>
			<point x="70" y="243" type="line"/>
			<point x="70" y="121"/>
			<point x="87" y="-10"/>
			<point x="241" y="-10" type="curve"/>
			<point x="390" y="-10"/>
			<point x="532" y="118"/>
			<point x="532" y="243" type="curve"/>
			<point x="452" y="243" type="line"/>
			<point x="452" y="139"/>
			<point x="377" y="65"/>
			<point x="290" y="65" type="curve"/>
			<point x="203" y="65"/>
			<point x="180" y="155"/>
			<point x="180" y="243" type="curve"/>
			<point x="180" y="500" type="line"/>
			<point x="70" y="500" type="line"/>
		</contour>
	</outline>
</glyph>
<glyph name="v" format="2">
	<advance width="633"/>
	<unicode hex="0076"/>
	<outline>
		<contour>
			<point x="323" y="148" type="line"/>
			<point x="137" y="513" type="line"/>
			<point x="35" y="472" type="line"/>
			<point x="316" y="-14" type="line"/>
			<point x="317" y="-14" type="line"/>
			<point x="598" y="472" type="line"/>
			<point x="496" y="513" type="line"/>
			<point x="310" y="148" type="line"/>
		</contour>
	</outline>
</glyph>
<glyph name="w" format="2">
	<advance width="830"/>
	<unicode hex="0077"/>
	<outline>
		<contour>
			<point x="416" y="280" type="line"/>
			<point x="590" y="-14" type="line"/>
			<point x="591" y="-14" type="line"/>
			<point x="795" y="473" type="line"/>
			<point x="693" y="506" type="line"/>
			<point x="573" y="173" type="line"/>
			<point x="578" y="173" type="line"/>
			<point x="417" y="432" type="line"/>
			<point x="415" y="432" type="line"/>
			<point x="253" y="173" type="line"/>
			<point x="259" y="173" type="line"/>
			<point x="138" y="506" type="line"/>
			<point x="35" y="473" type="line"/>
			<point x="240" y="-14" type="line"/>
			<point x="241" y="-14" type="line"/>
		</contour>
	</outline>
</glyph>
<glyph name="x" format="2">
	<advance width="565"/>
	<unicode hex="0078"/>
	<outline>
		<contour>
			<point x="530" y="40" type="line"/>
			<point x="339" y="266" type="line"/>
			<point x="339" y="251" type="line"/>
			<point x="517" y="461" type="line"/>
			<point x="429" y="514" type="line"/>
			<point x="228" y="271" type="line"/>
			<point x="228" y="246" type="line"/>
			<point x="447" y="-13" type="line"/>
		</contour>
		<contour>
			<point x="35" y="40" type="line"/>
			<point x="119" y="-13" type="line"/>
			<point x="337" y="246" type="line"/>
			<point x="337" y="271" type="line"/>
			<point x="136" y="514" type="line"/>
			<point x="49" y="461" type="line"/>
			<point x="226" y="251" type="line"/>
			<point x="226" y="266" type="line"/>
		</contour>
	</outline>
</glyph>
<glyph name="y" format="2">
	<advance width="600"/>
	<unicode hex="0079"/>
	<outline>
		<contour>
			<point x="365" y="10" type="line"/>
			<point x="133" y="508" type="line"/>
			<point x="35" y="469" type="line"/>
			<point x="269" y="-33" type="line"/>
		</contour>
		<contour>
			<point x="271" y="-235" type="line"/>
			<point x="369" y="0" type="line"/>
			<point x="565" y="469" type="line"/>
			<point x="467" y="508" type="line"/>
			<point x="264" y="22" type="line"/>
			<point x="254" y="0" type="line"/>
			<point x="173" y="-196" type="line"/>
		</contour>
	</outline>
</glyph>
<glyph name="z" format="2">
	<advance width="501"/>
	<unicode hex="007A"/>
	<outline>
		<contour>
			<point x="300" y="415" type="line"/>
			<point x="35" y="1" type="line"/>
			<point x="35" y="0" type="line"/>
			<point x="466" y="0" type="line"/>
			<point x="466" y="85" type="line"/>
			<point x="192" y="85" type="line"/>
			<point x="456" y="499" type="line"/>
			<point x="456" y="500" type="line"/>
			<point x="59" y="500" type="line"/>
			<point x="59" y="415" type="line"/>
		</contour>
	</outline>
</glyph>
<glyph name="braceleft" format="2">
	<advance width="450"/>
	<unicode hex="007B"/>
	<outline>
		<contour>
			<point x="415" y="700" type="line"/>
			<point x="310" y="700" type="line"/>
			<point x="209" y="700"/>
			<point x="165" y="656"/>
			<point x="165" y="545" type="curve"/>
			<point x="165" y="425" type="line"/>
			<point x="165" y="347"/>
			<point x="139" y="305"/>
			<point x="80" y="305" type="curve"/>
			<point x="35" y="305" type="line"/>
			<point x="35" y="215" type="line"/>
			<point x="80" y="215" type="line"/>
			<point x="139" y="215"/>
			<point x="165" y="174"/>
			<point x="165" y="95" type="curve"/>
			<point x="165" y="-25" type="line"/>
			<point x="165" y="-135"/>
			<point x="209" y="-180"/>
			<point x="310" y="-180" type="curve"/>
			<point x="415" y="-180" type="line"/>
			<point x="415" y="-105" type="line"/>
			<point x="355" y="-105" type="line"/>
			<point x="279" y="-105"/>
			<point x="260" y="-84"/>
			<point x="260" y="-4" type="curve"/>
			<point x="260" y="90" type="line"/>
			<point x="260" y="185"/>
			<point x="247" y="230"/>
			<point x="170" y="259" type="curve"/>
			<point x="170" y="261" type="line"/>
			<point x="231" y="286"/>
			<point x="260" y="335"/>
			<point x="260" y="418" type="curve"/>
			<point x="260" y="520" type="line"/>
			<point x="260" y="607"/>
			<point x="279" y="625"/>
			<point x="355" y="625" type="curve"/>
			<point x="415" y="625" type="line"/>
		</contour>
	</outline>
</glyph>
<glyph name="bar" format="2">
	<advance width="250"/>
	<unicode hex="007C"/>
	<outline>
		<contour>
			<point x="180" y="-235" type="line"/>
			<point x="180" y="700" type="line"/>
			<point x="70" y="700" type="line"/>
			<point x="70" y="-235" type="line"/>
		</contour>
	</outline>
</glyph>
<glyph name="asciitilde" format="2">
	<advance width="621"/>
	<unicode hex="007E"/>
	<outline>
		<contour>
			<point x="25" y="211" type="curve"/>
			<point x="96" y="172" type="line"/>
			<point x="118" y="226"/>
			<point x="162" y="262"/>
			<point x="202" y="262" type="curve"/>
			<point x="234" y="262"/>
			<point x="261" y="245"/>
			<point x="286" y="219" type="curve"/>
			<point x="320" y="185"/>
			<point x="359" y="153"/>
			<point x="426" y="153" type="curve"/>
			<point x="508" y="153"/>
			<point x="570" y="213"/>
			<point x="596" y="285" type="curve"/>
			<point x="519" y="324" type="line"/>
			<point x="502" y="273"/>
			<point x="462" y="238"/>
			<point x="417" y="238" type="curve"/>
			<point x="383" y="238"/>
			<point x="352" y="260"/>
			<point x="327" y="284" type="curve"/>
			<point x="298" y="313"/>
			<point x="267" y="347"/>
			<point x="203" y="347" type="curve"/>
			<point x="128" y="347"/>
			<point x="66" y="294"/>
		</contour>
	</outline>
</glyph>
<glyph name="currency" format="2">
	<advance width="640"/>
	<unicode hex="00A4"/>
	<outline>
		<contour>
			<point x="320" y="130" type="curve"/>
			<point x="449" y="130"/>
			<point x="555" y="233"/>
			<point x="555" y="365" type="curve"/>
			<point x="555" y="493"/>
			<point x="455" y="600"/>
			<point x="320" y="600" type="curve"/>
			<point x="192" y="600"/>
			<point x="85" y="499"/>
			<point x="85" y="365" type="curve"/>
			<point x="85" y="236"/>
			<point x="189" y="130"/>
		</contour>
		<contour>
			<point x="320" y="223" type="curve"/>
			<point x="242" y="223"/>
			<point x="178" y="286"/>
			<point x="178" y="365" type="curve"/>
			<point x="178" y="444"/>
			<point x="241" y="508"/>
			<point x="320" y="508" type="curve"/>
			<point x="398" y="508"/>
			<point x="463" y="446"/>
			<point x="463" y="365" type="curve"/>
			<point x="463" y="288"/>
			<point x="401" y="223"/>
		</contour>
		<contour>
			<point x="96" y="80" type="line"/>
			<point x="213" y="198" type="line"/>
			<point x="153" y="258" type="line"/>
			<point x="35" y="141" type="line"/>
		</contour>
		<contour>
			<point x="545" y="80" type="line"/>
			<point x="605" y="141" type="line"/>
			<point x="488" y="258" type="line"/>
			<point x="427" y="198" type="line"/>
		</contour>
		<contour>
			<point x="153" y="472" type="line"/>
			<point x="213" y="533" type="line"/>
			<point x="96" y="650" type="line"/>
			<point x="35" y="590" type="line"/>
		</contour>
		<contour>
			<point x="488" y="472" type="line"/>
			<point x="605" y="590" type="line"/>
			<point x="545" y="650" type="line"/>
			<point x="427" y="533" type="line"/>
		</contour>
	</outline>
</glyph>
<glyph name="yen" format="2">
	<advance width="715"/>
	<unicode hex="00A5"/>
	<outline>
		<contour>
			<point x="413" y="0" type="line"/>
			<point x="413" y="338" type="line"/>
			<point x="303" y="338" type="line"/>
			<point x="303" y="0" type="line"/>
		</contour>
		<contour>
			<point x="358" y="251" type="line"/>
			<point x="680" y="650" type="line"/>
			<point x="595" y="710" type="line"/>
			<point x="353" y="388" type="line"/>
			<point x="363" y="388" type="line"/>
			<point x="121" y="710" type="line"/>
			<point x="35" y="650" type="line"/>
		</contour>
		<contour>
			<point x="108" y="215" type="line"/>
			<point x="608" y="215" type="line"/>
			<point x="608" y="285" type="line"/>
			<point x="108" y="285" type="line"/>
		</contour>
	</outline>
</glyph>
<glyph name="section" format="2">
	<advance width="432"/>
	<unicode hex="00A7"/>
	<outline>
		<contour>
			<point x="186" y="496" type="line"/>
			<point x="146" y="496"/>
			<point x="35" y="437"/>
			<point x="35" y="356" type="curve"/>
			<point x="35" y="215"/>
			<point x="257" y="187"/>
			<point x="257" y="131" type="curve"/>
			<point x="257" y="90"/>
			<point x="169" y="65"/>
			<point x="83" y="65" type="curve"/>
			<point x="83" y="-20" type="line"/>
			<point x="224" y="-20"/>
			<point x="367" y="32"/>
			<point x="367" y="116" type="curve"/>
			<point x="367" y="239"/>
			<point x="140" y="266"/>
			<point x="140" y="346" type="curve"/>
			<point x="140" y="399"/>
			<point x="158" y="451"/>
			<point x="276" y="451" type="curve"/>
		</contour>
		<contour>
			<point x="335" y="740" type="line"/>
			<point x="215" y="740"/>
			<point x="75" y="677"/>
			<point x="75" y="596" type="curve"/>
			<point x="75" y="465"/>
			<point x="287" y="447"/>
			<point x="287" y="371" type="curve"/>
			<point x="287" y="310"/>
			<point x="246" y="271"/>
			<point x="150" y="271" type="curve"/>
			<point x="230" y="216" type="line"/>
			<point x="301" y="216"/>
			<point x="397" y="282"/>
			<point x="397" y="356" type="curve"/>
			<point x="397" y="466"/>
			<point x="180" y="538"/>
			<point x="180" y="576" type="curve"/>
			<point x="180" y="619"/>
			<point x="267" y="655"/>
			<point x="335" y="655" type="curve"/>
		</contour>
	</outline>
</glyph>
<glyph name="ordfeminine" format="2">
	<advance width="318"/>
	<unicode hex="00AA"/>
	<outline>
		<contour>
			<point x="227" y="688" type="line"/>
			<point x="94" y="688"/>
			<point x="35" y="614"/>
			<point x="35" y="570" type="curve"/>
			<point x="35" y="522"/>
			<point x="87" y="490"/>
			<point x="169" y="490" type="curve"/>
			<point x="207" y="490"/>
			<point x="233" y="492"/>
			<point x="283" y="498" type="curve"/>
			<point x="281" y="565" type="line"/>
			<point x="230" y="559"/>
			<point x="185" y="558"/>
			<point x="164" y="558" type="curve"/>
			<point x="146" y="558"/>
			<point x="123" y="563"/>
			<point x="123" y="575" type="curve"/>
			<point x="123" y="600"/>
			<point x="150" y="620"/>
			<point x="227" y="620" type="curve"/>
		</contour>
		<contour>
			<point x="190" y="497" type="line"/>
			<point x="283" y="498" type="line"/>
			<point x="283" y="646" type="line"/>
			<point x="283" y="752"/>
			<point x="207" y="785"/>
			<point x="65" y="790" type="curve"/>
			<point x="62" y="722" type="line"/>
			<point x="178" y="718"/>
			<point x="190" y="707"/>
			<point x="190" y="646" type="curve"/>
		</contour>
		<contour>
			<point x="283" y="420" type="line"/>
			<point x="55" y="420" type="line"/>
			<point x="55" y="360" type="line"/>
			<point x="283" y="360" type="line"/>
		</contour>
	</outline>
</glyph>
<glyph name="logicalnot" format="2">
	<advance width="620"/>
	<unicode hex="00AC"/>
	<outline>
		<contour>
			<point x="550" y="386" type="line"/>
			<point x="35" y="386" type="line"/>
			<point x="35" y="301" type="line"/>
			<point x="465" y="301" type="line"/>
			<point x="465" y="114" type="line"/>
			<point x="550" y="114" type="line"/>
		</contour>
	</outline>
</glyph>
<glyph name="degree" format="2">
	<advance width="320"/>
	<unicode hex="00B0"/>
	<outline>
		<contour>
			<point x="160" y="460" type="curve"/>
			<point x="233" y="460"/>
			<point x="285" y="522"/>
			<point x="285" y="599" type="curve"/>
			<point x="285" y="655"/>
			<point x="236" y="710"/>
			<point x="160" y="710" type="curve"/>
			<point x="87" y="710"/>
			<point x="35" y="648"/>
			<point x="35" y="571" type="curve"/>
			<point x="35" y="515"/>
			<point x="84" y="460"/>
		</contour>
		<contour>
			<point x="160" y="525" type="curve"/>
			<point x="124" y="525"/>
			<point x="100" y="551"/>
			<point x="100" y="578" type="curve"/>
			<point x="100" y="615"/>
			<point x="125" y="645"/>
			<point x="160" y="645" type="curve"/>
			<point x="196" y="645"/>
			<point x="220" y="619"/>
			<point x="220" y="592" type="curve"/>
			<point x="220" y="555"/>
			<point x="195" y="525"/>
		</contour>
	</outline>
</glyph>
<glyph name="mu" format="2">
	<advance width="632"/>
	<unicode hex="00B5"/>
	<outline>
		<contour>
			<point x="70" y="-230" type="line"/>
			<point x="180" y="-230" type="line"/>
			<point x="180" y="500" type="line"/>
			<point x="70" y="500" type="line"/>
		</contour>
		<contour>
			<point x="562" y="0" type="line"/>
			<point x="562" y="500" type="line"/>
			<point x="452" y="500" type="line"/>
			<point x="452" y="0" type="line"/>
		</contour>
		<contour>
			<point x="112" y="250" type="line"/>
			<point x="112" y="130"/>
			<point x="182" y="2"/>
			<point x="306" y="2" type="curve"/>
			<point x="414" y="2"/>
			<point x="531" y="127"/>
			<point x="531" y="250" type="curve"/>
			<point x="452" y="250" type="line"/>
			<point x="452" y="148"/>
			<point x="401" y="85"/>
			<point x="312" y="85" type="curve"/>
			<point x="223" y="85"/>
			<point x="180" y="163"/>
			<point x="180" y="250" type="curve"/>
		</contour>
	</outline>
</glyph>
<glyph name="paragraph" format="2">
	<advance width="533"/>
	<unicode hex="00B6"/>
	<outline>
		<contour>
			<point x="300" y="221" type="curve"/>
			<point x="300" y="309" type="line"/>
			<point x="212" y="337"/>
			<point x="145" y="401"/>
			<point x="145" y="491" type="curve"/>
			<point x="145" y="599"/>
			<point x="254" y="625"/>
			<point x="463" y="625" type="curve"/>
			<point x="463" y="710" type="line"/>
			<point x="220" y="710"/>
			<point x="35" y="663"/>
			<point x="35" y="506" type="curve"/>
			<point x="35" y="383"/>
			<point x="140" y="267"/>
		</contour>
		<contour>
			<point x="463" y="0" type="line"/>
			<point x="463" y="700" type="line"/>
			<point x="393" y="695" type="line"/>
			<point x="393" y="0" type="line"/>
		</contour>
		<contour>
			<point x="243" y="0" type="line"/>
			<point x="313" y="0" type="line"/>
			<point x="313" y="685" type="line"/>
			<point x="243" y="680" type="line"/>
		</contour>
		<contour>
			<point x="302" y="254" type="curve"/>
			<point x="303" y="664" type="line"/>
			<point x="239" y="654"/>
			<point x="80" y="631"/>
			<point x="80" y="500" type="curve"/>
			<point x="80" y="370"/>
			<point x="181" y="289"/>
		</contour>
	</outline>
</glyph>
<glyph name="ordmasculine" format="2">
	<advance width="362"/>
	<unicode hex="00BA"/>
	<outline>
		<contour>
			<point x="181" y="490" type="curve"/>
			<point x="267" y="490"/>
			<point x="327" y="564"/>
			<point x="327" y="657" type="curve"/>
			<point x="327" y="724"/>
			<point x="269" y="790"/>
			<point x="181" y="790" type="curve"/>
			<point x="95" y="790"/>
			<point x="35" y="716"/>
			<point x="35" y="623" type="curve"/>
			<point x="35" y="556"/>
			<point x="93" y="490"/>
		</contour>
		<contour>
			<point x="181" y="558" type="curve"/>
			<point x="146" y="558"/>
			<point x="123" y="594"/>
			<point x="123" y="631" type="curve"/>
			<point x="123" y="681"/>
			<point x="147" y="722"/>
			<point x="181" y="722" type="curve"/>
			<point x="216" y="722"/>
			<point x="239" y="686"/>
			<point x="239" y="649" type="curve"/>
			<point x="239" y="599"/>
			<point x="215" y="558"/>
		</contour>
		<contour>
			<point x="307" y="420" type="line"/>
			<point x="55" y="420" type="line"/>
			<point x="55" y="360" type="line"/>
			<point x="307" y="360" type="line"/>
		</contour>
	</outline>
</glyph>
<glyph name="multiply" format="2">
	<advance width="495"/>
	<unicode hex="00D7"/>
	<outline>
		<contour>
			<point x="390" y="503" type="line"/>
			<point x="45" y="158" type="line"/>
			<point x="105" y="98" type="line"/>
			<point x="450" y="443" type="line"/>
		</contour>
		<contour>
			<point x="450" y="158" type="line"/>
			<point x="105" y="503" type="line"/>
			<point x="45" y="443" type="line"/>
			<point x="390" y="98" type="line"/>
		</contour>
	</outline>
</glyph>
<glyph name="Thorn" format="2">
	<advance width="533"/>
	<unicode hex="00DE"/>
	<outline>
		<contour>
			<point x="180" y="0" type="line"/>
			<point x="180" y="700" type="line"/>
			<point x="70" y="700" type="line"/>
			<point x="70" y="0" type="line"/>
		</contour>
		<contour>
			<point x="70" y="110" type="line"/>
			<point x="329" y="110"/>
			<point x="498" y="258"/>
			<point x="498" y="416" type="curve"/>
			<point x="498" y="572"/>
			<point x="315" y="620"/>
			<point x="70" y="620" type="curve"/>
			<point x="70" y="535" type="line"/>
			<point x="286" y="535"/>
			<point x="388" y="506"/>
			<point x="389" y="401" type="curve"/>
			<point x="389" y="275"/>
			<point x="250" y="195"/>
			<point x="70" y="195" type="curve"/>
		</contour>
	</outline>
</glyph>
<glyph name="germandbls" format="2">
	<advance width="572"/>
	<unicode hex="00DF"/>
	<outline>
		<contour>
			<point x="180" y="0" type="line"/>
			<point x="180" y="521" type="line"/>
			<point x="70" y="521" type="line"/>
			<point x="70" y="0" type="line"/>
		</contour>
		<contour>
			<point x="496" y="500" type="line"/>
			<point x="496" y="655"/>
			<point x="415" y="740"/>
			<point x="280" y="740" type="curve"/>
			<point x="270" y="665" type="line"/>
			<point x="327" y="665"/>
			<point x="387" y="604"/>
			<point x="387" y="500" type="curve"/>
		</contour>
		<contour>
			<point x="180" y="521" type="line"/>
			<point x="180" y="615"/>
			<point x="214" y="665"/>
			<point x="270" y="665" type="curve"/>
			<point x="280" y="740" type="line"/>
			<point x="142" y="740"/>
			<point x="70" y="655"/>
			<point x="70" y="521" type="curve"/>
		</contour>
		<contour>
			<point x="479" y="585" type="line"/>
			<point x="376" y="585"/>
			<point x="255" y="488"/>
			<point x="255" y="406" type="curve"/>
			<point x="255" y="355"/>
			<point x="274" y="317"/>
			<point x="325" y="279" type="curve"/>
			<point x="362" y="252"/>
			<point x="427" y="227"/>
			<point x="427" y="151" type="curve"/>
			<point x="427" y="90"/>
			<point x="339" y="75"/>
			<point x="263" y="75" type="curve"/>
			<point x="263" y="-10" type="line"/>
			<point x="394" y="-10"/>
			<point x="537" y="43"/>
			<point x="537" y="146" type="curve"/>
			<point x="537" y="229"/>
			<point x="494" y="272"/>
			<point x="446" y="305" type="curve"/>
			<point x="411" y="330"/>
			<point x="360" y="356"/>
			<point x="360" y="386" type="curve"/>
			<point x="360" y="459"/>
			<point x="428" y="500"/>
			<point x="496" y="500" type="curve"/>
		</contour>
	</outline>
</glyph>
<glyph name="ae" format="2">
	<advance width="819"/>
	<unicode hex="00E6"/>
	<outline>
		<contour>
			<point x="334" y="330" type="line"/>
			<point x="138" y="330"/>
			<point x="35" y="205"/>
			<point x="35" y="128" type="curve"/>
			<point x="35" y="45"/>
			<point x="105" y="-10"/>
			<point x="212" y="-10" type="curve"/>
			<point x="308" y="-10"/>
			<point x="391" y="33"/>
			<point x="391" y="255" type="curve"/>
			<point x="321" y="254" type="line"/>
			<point x="321" y="107"/>
			<point x="259" y="65"/>
			<point x="222" y="65" type="curve"/>
			<point x="172" y="65"/>
			<point x="145" y="94"/>
			<point x="145" y="128" type="curve"/>
			<point x="145" y="195"/>
			<point x="196" y="255"/>
			<point x="334" y="255" type="curve"/>
		</contour>
		<contour>
			<point x="321" y="253" type="line"/>
			<point x="431" y="253" type="line"/>
			<point x="431" y="260" type="line"/>
			<point x="431" y="444"/>
			<point x="300" y="501"/>
			<point x="86" y="510" type="curve"/>
			<point x="82" y="435" type="line"/>
			<point x="274" y="428"/>
			<point x="321" y="383"/>
			<point x="321" y="260" type="curve"/>
		</contour>
		<contour>
			<point x="334" y="295" type="line"/>
			<point x="334" y="220" type="line"/>
			<point x="784" y="220" type="line"/>
			<point x="784" y="388"/>
			<point x="719" y="510"/>
			<point x="556" y="510" type="curve"/>
			<point x="394" y="510"/>
			<point x="331" y="356"/>
			<point x="331" y="248" type="curve"/>
			<point x="331" y="56"/>
			<point x="489" y="-10"/>
			<point x="715" y="-10" type="curve"/>
			<point x="715" y="75" type="line"/>
			<point x="541" y="75"/>
			<point x="431" y="116"/>
			<point x="431" y="248" type="curve"/>
			<point x="431" y="338"/>
			<point x="475" y="425"/>
			<point x="556" y="425" type="curve"/>
			<point x="638" y="425"/>
			<point x="674" y="353"/>
			<point x="674" y="286" type="curve"/>
			<point x="686" y="295" type="line"/>
		</contour>
	</outline>
</glyph>
<glyph name="eth" format="2">
	<advance width="575"/>
	<unicode hex="00F0"/>
	<outline>
		<contour>
			<point x="163" y="740" type="curve"/>
			<point x="111" y="675" type="line"/>
			<point x="253" y="583"/>
			<point x="418" y="444"/>
			<point x="418" y="234" type="curve"/>
			<point x="418" y="137"/>
			<point x="362" y="75"/>
			<point x="261" y="75" type="curve"/>
			<point x="193" y="75"/>
			<point x="129" y="120"/>
			<point x="129" y="211" type="curve"/>
			<point x="129" y="297"/>
			<point x="203" y="425"/>
			<point x="386" y="425" type="curve"/>
			<point x="386" y="510" type="line"/>
			<point x="147" y="510"/>
			<point x="20" y="334"/>
			<point x="20" y="206" type="curve"/>
			<point x="20" y="69"/>
			<point x="129" y="-10"/>
			<point x="266" y="-10" type="curve"/>
			<point x="403" y="-10"/>
			<point x="528" y="83"/>
			<point x="528" y="229" type="curve"/>
			<point x="528" y="473"/>
			<point x="301" y="664"/>
		</contour>
		<contour>
			<point x="364" y="740" type="line"/>
			<point x="80" y="557" type="line"/>
			<point x="114" y="504" type="line"/>
			<point x="398" y="687" type="line"/>
		</contour>
	</outline>
</glyph>
<glyph name="divide" format="2">
	<advance width="495"/>
	<unicode hex="00F7"/>
	<outline>
		<contour>
			<point x="460" y="343" type="line"/>
			<point x="35" y="343" type="line"/>
			<point x="35" y="258" type="line"/>
			<point x="460" y="258" type="line"/>
		</contour>
		<contour>
			<point x="248" y="383" type="curve"/>
			<point x="288" y="383"/>
			<point x="316" y="416"/>
			<point x="316" y="457" type="curve"/>
			<point x="316" y="488"/>
			<point x="289" y="518"/>
			<point x="248" y="518" type="curve"/>
			<point x="209" y="518"/>
			<point x="181" y="484"/>
			<point x="181" y="443" type="curve"/>
			<point x="181" y="412"/>
			<point x="207" y="383"/>
		</contour>
		<contour>
			<point x="248" y="83" type="curve"/>
			<point x="288" y="83"/>
			<point x="316" y="116"/>
			<point x="316" y="157" type="curve"/>
			<point x="316" y="188"/>
			<point x="289" y="218"/>
			<point x="248" y="218" type="curve"/>
			<point x="209" y="218"/>
			<point x="181" y="184"/>
			<point x="181" y="143" type="curve"/>
			<point x="181" y="112"/>
			<point x="207" y="83"/>
		</contour>
	</outline>
</glyph>
<glyph name="idotless" format="2">
	<advance width="250"/>
	<unicode hex="0131"/>
	<outline>
		<contour>
			<point x="180" y="0" type="line"/>
			<point x="180" y="500" type="line"/>
			<point x="70" y="500" type="line"/>
			<point x="70" y="0" type="line"/>
		</contour>
	</outline>
</glyph>
<glyph name="longs" format="2">
	<advance width="360"/>
	<unicode hex="017F"/>
	<outline>
		<contour>
			<point x="311" y="740" type="line"/>
			<point x="162" y="712"/>
			<point x="70" y="639"/>
			<point x="70" y="467" type="curve"/>
			<point x="70" y="0" type="line"/>
			<point x="180" y="0" type="line"/>
			<point x="180" y="467" type="line"/>
			<point x="180" y="571"/>
			<point x="200" y="624"/>
			<point x="325" y="650" type="curve"/>
		</contour>
	</outline>
</glyph>
<glyph name="Oopen" format="2">
	<advance width="628"/>
	<unicode hex="0186"/>
	<outline>
		<contour>
			<point x="65" y="710" type="curve"/>
			<point x="65" y="625" type="line"/>
			<point x="287" y="625"/>
			<point x="483" y="515"/>
			<point x="483" y="327" type="curve"/>
			<point x="483" y="169"/>
			<point x="340" y="75"/>
			<point x="237" y="75" type="curve"/>
			<point x="180" y="75"/>
			<point x="100" y="82"/>
			<point x="52" y="100" type="curve"/>
			<point x="35" y="16" type="line"/>
			<point x="94" y="-4"/>
			<point x="159" y="-10"/>
			<point x="250" y="-10" type="curve"/>
			<point x="399" y="-10"/>
			<point x="593" y="120"/>
			<point x="593" y="327" type="curve"/>
			<point x="593" y="565"/>
			<point x="380" y="710"/>
		</contour>
	</outline>
</glyph>
<glyph name="jdotless" format="2">
	<advance width="250"/>
	<unicode hex="0237"/>
	<outline>
		<contour>
			<point x="-28" y="-239" type="line"/>
			<point x="73" y="-222"/>
			<point x="180" y="-137"/>
			<point x="180" y="0" type="curve"/>
			<point x="180" y="500" type="line"/>
			<point x="70" y="500" type="line"/>
			<point x="70" y="20" type="line"/>
			<point x="70" y="-89"/>
			<point x="21" y="-137"/>
			<point x="-55" y="-154" type="curve"/>
		</contour>
	</outline>
</glyph>
<glyph name="alpha" format="2">
	<advance width="556"/>
	<unicode hex="0251"/>
	<outline>
		<contour>
			<point x="486" y="510" type="line"/>
			<point x="214" y="510"/>
			<point x="35" y="402"/>
			<point x="35" y="210" type="curve"/>
			<point x="35" y="48"/>
			<point x="140" y="-10"/>
			<point x="216" y="-10" type="curve"/>
			<point x="293" y="-10"/>
			<point x="368" y="29"/>
			<point x="421" y="109" type="curve"/>
			<point x="410" y="176" type="line"/>
			<point x="360" y="110"/>
			<point x="312" y="75"/>
			<point x="261" y="75" type="curve"/>
			<point x="213" y="75"/>
			<point x="145" y="105"/>
			<point x="145" y="215" type="curve"/>
			<point x="145" y="327"/>
			<point x="251" y="425"/>
			<point x="486" y="425" type="curve"/>
		</contour>
		<contour>
			<point x="486" y="0" type="line"/>
			<point x="486" y="500" type="line"/>
			<point x="376" y="490" type="line"/>
			<point x="376" y="0" type="line"/>
		</contour>
	</outline>
</glyph>
<glyph name="eopen" format="2">
	<advance width="429"/>
	<unicode hex="025B"/>
	<outline>
		<contour>
			<point x="344" y="232" type="curve"/>
			<point x="344" y="290" type="line"/>
			<point x="247" y="290"/>
			<point x="165" y="302"/>
			<point x="165" y="352" type="curve"/>
			<point x="165" y="401"/>
			<point x="252" y="425"/>
			<point x="384" y="425" type="curve"/>
			<point x="384" y="510" type="line"/>
			<point x="189" y="510"/>
			<point x="51" y="442"/>
			<point x="51" y="355" type="curve"/>
			<point x="51" y="267"/>
			<point x="185" y="232"/>
		</contour>
		<contour>
			<point x="394" y="-10" type="curve"/>
			<point x="394" y="75" type="line"/>
			<point x="210" y="75"/>
			<point x="146" y="90"/>
			<point x="146" y="137" type="curve"/>
			<point x="146" y="184"/>
			<point x="204" y="230"/>
			<point x="344" y="230" type="curve"/>
			<point x="344" y="290" type="line"/>
			<point x="165" y="290"/>
			<point x="35" y="215"/>
			<point x="35" y="127" type="curve"/>
			<point x="35" y="39"/>
			<point x="145" y="-10"/>
		</contour>
	</outline>
</glyph>
<glyph name="gsmallcapital" format="2">
	<advance width="529"/>
	<unicode hex="0262"/>
	<outline>
		<contour>
			<point x="420" y="510" type="line"/>
			<point x="192" y="510"/>
			<point x="35" y="344"/>
			<point x="35" y="172" type="curve"/>
			<point x="35" y="53"/>
			<point x="138" y="-10"/>
			<point x="283" y="-10" type="curve"/>
			<point x="354" y="-10"/>
			<point x="420" y="-1"/>
			<point x="476" y="19" type="curve"/>
			<point x="476" y="232" type="line"/>
			<point x="366" y="232" type="line"/>
			<point x="366" y="19" type="line"/>
			<point x="434" y="94" type="line"/>
			<point x="392" y="80"/>
			<point x="355" y="75"/>
			<point x="292" y="75" type="curve"/>
			<point x="221" y="75"/>
			<point x="145" y="117"/>
			<point x="145" y="190" type="curve"/>
			<point x="145" y="312"/>
			<point x="269" y="425"/>
			<point x="420" y="425" type="curve"/>
		</contour>
	</outline>
</glyph>
<glyph name="ismallcapital" format="2">
	<advance width="405"/>
	<unicode hex="026A"/>
	<outline>
		<contour>
			<point x="258" y="0" type="line"/>
			<point x="258" y="500" type="line"/>
			<point x="148" y="500" type="line"/>
			<point x="148" y="0" type="line"/>
		</contour>
		<contour>
			<point x="370" y="415" type="line"/>
			<point x="370" y="500" type="line"/>
			<point x="35" y="500" type="line"/>
			<point x="35" y="415" type="line"/>
		</contour>
		<contour>
			<point x="370" y="0" type="line"/>
			<point x="370" y="85" type="line"/>
			<point x="35" y="85" type="line"/>
			<point x="35" y="0" type="line"/>
		</contour>
	</outline>
</glyph>
<glyph name="nsmallcapital" format="2">
	<advance width="605"/>
	<unicode hex="0274"/>
	<outline>
		<contour>
			<point x="180" y="297" type="line"/>
			<point x="534" y="-14" type="line"/>
			<point x="535" y="-14" type="line"/>
			<point x="535" y="500" type="line"/>
			<point x="425" y="500" type="line"/>
			<point x="425" y="210" type="line"/>
			<point x="71" y="514" type="line"/>
			<point x="70" y="514" type="line"/>
			<point x="70" y="0" type="line"/>
			<point x="180" y="0" type="line"/>
		</contour>
	</outline>
</glyph>
<glyph name="rsmallcapital" format="2">
	<advance width="517"/>
	<unicode hex="0280"/>
	<outline>
		<contour>
			<point x="180" y="-1" type="line"/>
			<point x="180" y="500" type="line"/>
			<point x="70" y="500" type="line"/>
			<point x="70" y="-1" type="line"/>
		</contour>
		<contour>
			<point x="257" y="188" type="line"/>
			<point x="341" y="215"/>
			<point x="435" y="281"/>
			<point x="435" y="371" type="curve"/>
			<point x="435" y="476"/>
			<point x="294" y="510"/>
			<point x="70" y="510" type="curve"/>
			<point x="70" y="425" type="line"/>
			<point x="258" y="425"/>
			<point x="325" y="408"/>
			<point x="325" y="340" type="curve"/>
			<point x="325" y="293"/>
			<point x="285" y="254"/>
			<point x="205" y="222" type="curve"/>
			<point x="386" y="-6" type="line"/>
			<point x="482" y="51" type="line"/>
			<point x="295" y="245" type="line"/>
		</contour>
	</outline>
</glyph>
<glyph name="ysmallcapital" format="2">
	<advance width="582"/>
	<unicode hex="028F"/>
	<outline>
		<contour>
			<point x="346" y="0" type="line"/>
			<point x="346" y="243" type="line"/>
			<point x="236" y="243" type="line"/>
			<point x="236" y="0" type="line"/>
		</contour>
		<contour>
			<point x="291" y="138" type="line"/>
			<point x="547" y="449" type="line"/>
			<point x="461" y="510" type="line"/>
			<point x="287" y="279" type="line"/>
			<point x="295" y="279" type="line"/>
			<point x="121" y="510" type="line"/>
			<point x="35" y="450" type="line"/>
		</contour>
	</outline>
</glyph>
<glyph name="lsmallcapital" format="2">
	<advance width="403"/>
	<unicode hex="029F"/>
	<outline>
		<contour>
			<point x="70" y="0" type="line"/>
			<point x="368" y="0" type="line"/>
			<point x="368" y="85" type="line"/>
			<point x="180" y="85" type="line"/>
			<point x="180" y="500" type="line"/>
			<point x="70" y="500" type="line"/>
		</contour>
	</outline>
</glyph>
<glyph name="gravecomb" format="2">
	<advance width="0"/>
	<unicode hex="0300"/>
	<outline>
		<contour>
			<point x="234" y="604" type="line"/>
			<point x="108" y="793" type="line"/>
			<point x="36" y="731" type="line"/>
			<point x="199" y="575" type="line"/>
		</contour>
	</outline>
</glyph>
<glyph name="acutecomb" format="2">
	<advance width="0"/>
	<unicode hex="0301"/>
	<outline>
		<contour>
			<point x="36" y="604" type="line"/>
			<point x="71" y="575" type="line"/>
			<point x="234" y="731" type="line"/>
			<point x="162" y="793" type="line"/>
		</contour>
	</outline>
</glyph>
<glyph name="circumflexcomb" format="2">
	<advance width="0"/>
	<unicode hex="0302"/>
	<outline>
		<contour>
			<point x="333" y="597" type="line"/>
			<point x="373" y="654" type="line"/>
			<point x="205" y="749" type="line"/>
			<point x="204" y="749" type="line"/>
			<point x="36" y="654" type="line"/>
			<point x="76" y="597" type="line"/>
			<point x="211" y="685" type="line"/>
			<point x="198" y="685" type="line"/>
		</contour>
	</outline>
</glyph>
<glyph name="tildecomb" format="2">
	<advance width="0"/>
	<unicode hex="0303"/>
	<outline>
		<contour>
			<point x="35" y="649" type="curve"/>
			<point x="84" y="624" type="line"/>
			<point x="94" y="646"/>
			<point x="119" y="666"/>
			<point x="146" y="666" type="curve"/>
			<point x="195" y="666"/>
			<point x="218" y="611"/>
			<point x="277" y="611" type="curve"/>
			<point x="322" y="611"/>
			<point x="364" y="651"/>
			<point x="386" y="700" type="curve"/>
			<point x="338" y="721" type="line"/>
			<point x="325" y="696"/>
			<point x="305" y="675"/>
			<point x="277" y="675" type="curve"/>
			<point x="228" y="675"/>
			<point x="206" y="729"/>
			<point x="152" y="729" type="curve"/>
			<point x="112" y="729"/>
			<point x="66" y="700"/>
		</contour>
	</outline>
</glyph>
<glyph name="macroncomb" format="2">
	<advance width="0"/>
	<unicode hex="0304"/>
	<outline>
		<contour>
			<point x="358" y="635" type="line"/>
			<point x="358" y="705" type="line"/>
			<point x="36" y="705" type="line"/>
			<point x="36" y="635" type="line"/>
		</contour>
	</outline>
</glyph>
<glyph name="brevecomb" format="2">
	<advance width="0"/>
	<unicode hex="0306"/>
	<outline>
		<contour>
			<point x="349" y="749" type="line"/>
			<point x="318" y="697"/>
			<point x="270" y="661"/>
			<point x="221" y="661" type="curve"/>
			<point x="171" y="661"/>
			<point x="123" y="697"/>
			<point x="93" y="749" type="curve"/>
			<point x="35" y="713" type="line"/>
			<point x="79" y="641"/>
			<point x="135" y="597"/>
			<point x="221" y="597" type="curve"/>
			<point x="306" y="597"/>
			<point x="362" y="641"/>
			<point x="406" y="713" type="curve"/>
		</contour>
	</outline>
</glyph>
<glyph name="dotaccentcomb" format="2">
	<advance width="0"/>
	<unicode hex="0307"/>
	<outline>
		<contour>
			<point x="108" y="591" type="curve"/>
			<point x="147" y="591"/>
			<point x="175" y="624"/>
			<point x="175" y="665" type="curve"/>
			<point x="175" y="696"/>
			<point x="148" y="726"/>
			<point x="108" y="726" type="curve"/>
			<point x="68" y="726"/>
			<point x="40" y="692"/>
			<point x="40" y="651" type="curve"/>
			<point x="40" y="620"/>
			<point x="67" y="591"/>
		</contour>
	</outline>
</glyph>
<glyph name="dieresiscomb" format="2">
	<advance width="0"/>
	<unicode hex="0308"/>
	<outline>
		<contour>
			<point x="323" y="591" type="curve"/>
			<point x="362" y="591"/>
			<point x="390" y="624"/>
			<point x="390" y="665" type="curve"/>
			<point x="390" y="696"/>
			<point x="363" y="726"/>
			<point x="323" y="726" type="curve"/>
			<point x="283" y="726"/>
			<point x="255" y="692"/>
			<point x="255" y="651" type="curve"/>
			<point x="255" y="620"/>
			<point x="282" y="591"/>
		</contour>
		<contour>
			<point x="108" y="591" type="curve"/>
			<point x="147" y="591"/>
			<point x="175" y="624"/>
			<point x="175" y="665" type="curve"/>
			<point x="175" y="696"/>
			<point x="148" y="726"/>
			<point x="108" y="726" type="curve"/>
			<point x="68" y="726"/>
			<point x="40" y="692"/>
			<point x="40" y="651" type="curve"/>
			<point x="40" y="620"/>
			<point x="67" y="591"/>
		</contour>
	</outline>
</glyph>
<glyph name="hookcomb" format="2">
	<advance width="0"/>
	<unicode hex="0309"/>
	<outline>
		<contour>
			<point x="90" y="579" type="line"/>
			<point x="140" y="579" type="line"/>
			<point x="140" y="606" type="line"/>
			<point x="114" y="593" type="line"/>
			<point x="171" y="593"/>
			<point x="252" y="619"/>
			<point x="252" y="681" type="curve"/>
			<point x="252" y="745"/>
			<point x="132" y="792"/>
			<point x="37" y="796" type="curve"/>
			<point x="35" y="740" type="line"/>
			<point x="119" y="737"/>
			<point x="177" y="703"/>
			<point x="177" y="678" type="curve"/>
			<point x="177" y="649"/>
			<point x="145" y="634"/>
			<point x="90" y="634" type="curve"/>
		</contour>
	</outline>
</glyph>
<glyph name="ringcomb" format="2">
	<advance width="0"/>
	<unicode hex="030A"/>
	<outline>
		<contour>
			<point x="135" y="575" type="curve"/>
			<point x="193" y="575"/>
			<point x="235" y="625"/>
			<point x="235" y="686" type="curve"/>
			<point x="235" y="731"/>
			<point x="195" y="775"/>
			<point x="135" y="775" type="curve"/>
			<point x="77" y="775"/>
			<point x="35" y="725"/>
			<point x="35" y="664" type="curve"/>
			<point x="35" y="619"/>
			<point x="75" y="575"/>
		</contour>
		<contour>
			<point x="135" y="640" type="curve"/>
			<point x="114" y="640"/>
			<point x="100" y="655"/>
			<point x="100" y="671" type="curve"/>
			<point x="100" y="693"/>
			<point x="115" y="710"/>
			<point x="135" y="710" type="curve"/>
			<point x="156" y="710"/>
			<point x="170" y="695"/>
			<point x="170" y="679" type="curve"/>
			<point x="170" y="657"/>
			<point x="155" y="640"/>
		</contour>
	</outline>
</glyph>
<glyph name="doubleacutecomb" format="2">
	<advance width="0"/>
	<unicode hex="030B"/>
	<outline>
		<contour>
			<point x="210" y="599" type="line"/>
			<point x="245" y="570" type="line"/>
			<point x="405" y="729" type="line"/>
			<point x="339" y="784" type="line"/>
		</contour>
		<contour>
			<point x="35" y="599" type="line"/>
			<point x="70" y="570" type="line"/>
			<point x="230" y="729" type="line"/>
			<point x="164" y="784" type="line"/>
		</contour>
	</outline>
</glyph>
<glyph name="caroncomb" format="2">
	<advance width="0"/>
	<unicode hex="030C"/>
	<outline>
		<contour>
			<point x="333" y="749" type="line"/>
			<point x="198" y="661" type="line"/>
			<point x="211" y="661" type="line"/>
			<point x="76" y="749" type="line"/>
			<point x="36" y="692" type="line"/>
			<point x="204" y="597" type="line"/>
			<point x="205" y="597" type="line"/>
			<point x="373" y="692" type="line"/>
		</contour>
	</outline>
</glyph>
<glyph name="doublegravecomb" format="2">
	<advance width="0"/>
	<unicode hex="030F"/>
	<outline>
		<contour>
			<point x="230" y="599" type="line"/>
			<point x="101" y="784" type="line"/>
			<point x="36" y="729" type="line"/>
			<point x="196" y="570" type="line"/>
		</contour>
		<contour>
			<point x="405" y="599" type="line"/>
			<point x="276" y="784" type="line"/>
			<point x="211" y="729" type="line"/>
			<point x="371" y="570" type="line"/>
		</contour>
	</outline>
</glyph>
<glyph name="horncomb" format="2">
	<advance width="0"/>
	<unicode hex="031B"/>
	<outline>
		<contour>
			<point x="0" y="500" type="line"/>
			<point x="0" y="430" type="line"/>
			<point x="33" y="430" type="line"/>
			<point x="118" y="430"/>
			<point x="193" y="496"/>
			<point x="201" y="590" type="curve"/>
			<point x="135" y="600" type="line"/>
			<point x="129" y="543"/>
			<point x="87" y="500"/>
			<point x="32" y="500" type="curve"/>
		</contour>
	</outline>
</glyph>
<glyph name="dotbelowcomb" format="2">
	<advance width="0"/>
	<unicode hex="0323"/>
	<outline>
		<contour>
			<point x="108" y="-225" type="curve"/>
			<point x="147" y="-225"/>
			<point x="175" y="-192"/>
			<point x="175" y="-151" type="curve"/>
			<point x="175" y="-120"/>
			<point x="148" y="-90"/>
			<point x="108" y="-90" type="curve"/>
			<point x="68" y="-90"/>
			<point x="40" y="-124"/>
			<point x="40" y="-165" type="curve"/>
			<point x="40" y="-196"/>
			<point x="67" y="-225"/>
		</contour>
	</outline>
</glyph>
<glyph name="commaaccentcomb" format="2">
	<advance width="0"/>
	<unicode hex="0326"/>
	<outline>
		<contour>
			<point x="35" y="-272" type="line"/>
			<point x="77" y="-287" type="line"/>
			<point x="163" y="-111" type="line"/>
			<point x="83" y="-83" type="line"/>
		</contour>
	</outline>
</glyph>
<glyph name="cedillacomb" format="2">
	<advance width="0"/>
	<unicode hex="0327"/>
	<outline>
		<contour>
			<point x="71" y="10" type="line"/>
			<point x="48" y="-90" type="line"/>
			<point x="103" y="-90"/>
			<point x="131" y="-98"/>
			<point x="131" y="-119" type="curve"/>
			<point x="131" y="-144"/>
			<point x="92" y="-161"/>
			<point x="35" y="-167" type="curve"/>
			<point x="45" y="-212" type="line"/>
			<point x="105" y="-205"/>
			<point x="190" y="-185"/>
			<point x="190" y="-120" type="curve"/>
			<point x="190" y="-68"/>
			<point x="119" y="-49"/>
			<point x="67" y="-49" type="curve"/>
			<point x="93" y="-62" type="line"/>
			<point x="111" y="10" type="line"/>
		</contour>
	</outline>
</glyph>
<glyph name="ogonekcomb" format="2">
	<advance width="0"/>
	<unicode hex="0328"/>
	<outline>
		<contour>
			<point x="167" y="0" type="curve"/>
			<point x="134" y="24" type="line"/>
			<point x="69" y="-26"/>
			<point x="35" y="-56"/>
			<point x="35" y="-99" type="curve"/>
			<point x="35" y="-164"/>
			<point x="120" y="-184"/>
			<point x="180" y="-191" type="curve"/>
			<point x="190" y="-145" type="line"/>
			<point x="133" y="-139"/>
			<point x="95" y="-123"/>
			<point x="95" y="-98" type="curve"/>
			<point x="95" y="-72"/>
			<point x="110" y="-48"/>
		</contour>
	</outline>
</glyph>
<glyph name="strokelongcomb" format="2">
	<advance width="500"/>
	<unicode hex="0336"/>
	<outline>
		<contour>
			<point x="35" y="215" type="line"/>
			<point x="465" y="215" type="line"/>
			<point x="465" y="285" type="line"/>
			<point x="35" y="285" type="line"/>
		</contour>
	</outline>
</glyph>
<glyph name="greekanoteleia" format="2">
	<advance width="250"/>
	<unicode hex="0387"/>
	<outline>
		<contour>
			<point x="126" y="282" type="curve"/>
			<point x="165" y="282"/>
			<point x="193" y="315"/>
			<point x="193" y="357" type="curve"/>
			<point x="193" y="387"/>
			<point x="166" y="417"/>
			<point x="126" y="417" type="curve"/>
			<point x="86" y="417"/>
			<point x="58" y="384"/>
			<point x="58" y="342" type="curve"/>
			<point x="58" y="312"/>
			<point x="85" y="282"/>
		</contour>
	</outline>
</glyph>
<glyph name="Xi-grek" format="2">
	<advance width="616"/>
	<unicode hex="039E"/>
	<outline>
		<contour>
			<point x="552" y="615" type="line"/>
			<point x="552" y="700" type="line"/>
			<point x="64" y="700" type="line"/>
			<point x="64" y="615" type="line"/>
		</contour>
		<contour>
			<point x="581" y="0" type="line"/>
			<point x="581" y="85" type="line"/>
			<point x="35" y="85" type="line"/>
			<point x="35" y="0" type="line"/>
		</contour>
		<contour>
			<point x="537" y="314" type="line"/>
			<point x="537" y="399" type="line"/>
			<point x="79" y="399" type="line"/>
			<point x="79" y="314" type="line"/>
		</contour>
	</outline>
</glyph>
<glyph name="Sigma-grek" format="2">
	<advance width="648"/>
	<unicode hex="03A3"/>
	<outline>
		<contour>
			<point x="561" y="358" type="line"/>
			<point x="561" y="360" type="line"/>
			<point x="256" y="577" type="line"/>
			<point x="256" y="573" type="line"/>
			<point x="613" y="636" type="line"/>
			<point x="602" y="719" type="line"/>
			<point x="35" y="614" type="line"/>
			<point x="35" y="613" type="line"/>
			<point x="416" y="356" type="line"/>
			<point x="416" y="363" type="line"/>
			<point x="35" y="107" type="line"/>
			<point x="35" y="106" type="line"/>
			<point x="602" y="-1" type="line"/>
			<point x="613" y="82" type="line"/>
			<point x="256" y="146" type="line"/>
			<point x="256" y="142" type="line"/>
		</contour>
	</outline>
</glyph>
<glyph name="Psi-grek" format="2">
	<advance width="810"/>
	<unicode hex="03A8"/>
	<outline>
		<contour>
			<point x="460" y="0" type="line"/>
			<point x="460" y="700" type="line"/>
			<point x="350" y="700" type="line"/>
			<point x="350" y="0" type="line"/>
		</contour>
		<contour>
			<point x="418" y="165" type="line"/>
			<point x="631" y="165"/>
			<point x="740" y="288"/>
			<point x="740" y="488" type="curve"/>
			<point x="740" y="700" type="line"/>
			<point x="630" y="700" type="line"/>
			<point x="630" y="488" type="line"/>
			<point x="630" y="351"/>
			<point x="558" y="250"/>
			<point x="418" y="250" type="curve"/>
		</contour>
		<contour>
			<point x="70" y="488" type="line"/>
			<point x="70" y="322"/>
			<point x="167" y="165"/>
			<point x="358" y="165" type="curve"/>
			<point x="358" y="250" type="line"/>
			<point x="245" y="250"/>
			<point x="180" y="366"/>
			<point x="180" y="488" type="curve"/>
			<point x="180" y="700" type="line"/>
			<point x="70" y="700" type="line"/>
		</contour>
	</outline>
</glyph>
<glyph name="Omega-grek" format="2">
	<advance width="880"/>
	<unicode hex="03A9"/>
	<outline>
		<contour>
			<point x="598" y="0" type="line"/>
			<point x="773" y="97"/>
			<point x="805" y="221"/>
			<point x="805" y="400" type="curve"/>
			<point x="805" y="542"/>
			<point x="679" y="710"/>
			<point x="440" y="710" type="curve"/>
			<point x="224" y="710"/>
			<point x="75" y="559"/>
			<point x="75" y="340" type="curve"/>
			<point x="75" y="218"/>
			<point x="135" y="95"/>
			<point x="292" y="0" type="curve"/>
			<point x="282" y="81" type="line"/>
			<point x="35" y="80" type="line"/>
			<point x="35" y="1" type="line"/>
			<point x="380" y="0" type="line"/>
			<point x="262" y="90"/>
			<point x="185" y="204"/>
			<point x="185" y="320" type="curve"/>
			<point x="185" y="487"/>
			<point x="281" y="625"/>
			<point x="440" y="625" type="curve"/>
			<point x="605" y="625"/>
			<point x="695" y="492"/>
			<point x="695" y="371" type="curve"/>
			<point x="695" y="219"/>
			<point x="624" y="96"/>
			<point x="490" y="0" type="curve"/>
			<point x="845" y="0" type="line"/>
			<point x="845" y="80" type="line"/>
			<point x="618" y="80" type="line"/>
		</contour>
	</outline>
</glyph>
<glyph name="alpha-grek" format="2">
	<advance width="695"/>
	<unicode hex="03B1"/>
	<outline>
		<contour>
			<point x="293" y="-10" type="curve"/>
			<point x="298" y="75" type="line"/>
			<point x="219" y="75"/>
			<point x="145" y="143"/>
			<point x="145" y="227" type="curve"/>
			<point x="145" y="335"/>
			<point x="215" y="425"/>
			<point x="303" y="425" type="curve"/>
			<point x="303" y="510" type="line"/>
			<point x="153" y="510"/>
			<point x="35" y="379"/>
			<point x="35" y="222" type="curve"/>
			<point x="35" y="75"/>
			<point x="161" y="-10"/>
		</contour>
		<contour>
			<point x="303" y="510" type="curve"/>
			<point x="303" y="425" type="line"/>
			<point x="388" y="425"/>
			<point x="450" y="361"/>
			<point x="489" y="232" type="curve"/>
			<point x="556" y="-5" type="line"/>
			<point x="660" y="30" type="line"/>
			<point x="572" y="271" type="line"/>
			<point x="509" y="432"/>
			<point x="416" y="510"/>
		</contour>
		<contour>
			<point x="293" y="-10" type="line"/>
			<point x="406" y="-10"/>
			<point x="499" y="69"/>
			<point x="562" y="229" type="curve"/>
			<point x="656" y="465" type="line"/>
			<point x="566" y="507" type="line"/>
			<point x="490" y="269" type="line"/>
			<point x="450" y="139"/>
			<point x="388" y="75"/>
			<point x="298" y="75" type="curve"/>
		</contour>
	</outline>
</glyph>
<glyph name="beta-grek" format="2">
	<advance width="559"/>
	<unicode hex="03B2"/>
	<outline>
		<contour>
			<point x="180" y="-230" type="line"/>
			<point x="180" y="531" type="line"/>
			<point x="70" y="531" type="line"/>
			<point x="70" y="-230" type="line"/>
		</contour>
		<contour>
			<point x="220" y="355" type="line"/>
			<point x="359" y="355"/>
			<point x="488" y="471"/>
			<point x="488" y="592" type="curve"/>
			<point x="488" y="688"/>
			<point x="395" y="740"/>
			<point x="265" y="740" type="curve"/>
			<point x="275" y="665" type="line"/>
			<point x="332" y="665"/>
			<point x="379" y="617"/>
			<point x="379" y="567" type="curve"/>
			<point x="379" y="484"/>
			<point x="297" y="412"/>
			<point x="220" y="412" type="curve"/>
		</contour>
		<contour>
			<point x="70" y="-10" type="line"/>
			<point x="389" y="-10"/>
			<point x="524" y="92"/>
			<point x="524" y="232" type="curve"/>
			<point x="524" y="361"/>
			<point x="379" y="412"/>
			<point x="220" y="412" type="curve"/>
			<point x="220" y="352" type="line"/>
			<point x="340" y="352"/>
			<point x="413" y="316"/>
			<point x="413" y="234" type="curve"/>
			<point x="413" y="148"/>
			<point x="324" y="75"/>
			<point x="70" y="75" type="curve"/>
		</contour>
		<contour>
			<point x="180" y="531" type="line"/>
			<point x="180" y="615"/>
			<point x="204" y="665"/>
			<point x="275" y="665" type="curve"/>
			<point x="265" y="740" type="line"/>
			<point x="122" y="740"/>
			<point x="70" y="655"/>
			<point x="70" y="531" type="curve"/>
		</contour>
	</outline>
</glyph>
<glyph name="gamma-grek" format="2">
	<advance width="633"/>
	<unicode hex="03B3"/>
	<outline>
		<contour>
			<point x="318" y="98" type="line"/>
			<point x="137" y="508" type="line"/>
			<point x="35" y="472" type="line"/>
			<point x="316" y="-99" type="line"/>
			<point x="317" y="-99" type="line"/>
			<point x="598" y="472" type="line"/>
			<point x="496" y="508" type="line"/>
			<point x="315" y="98" type="line"/>
		</contour>
		<contour>
			<point x="372" y="-230" type="line"/>
			<point x="372" y="64" type="line"/>
			<point x="262" y="64" type="line"/>
			<point x="262" y="-230" type="line"/>
		</contour>
	</outline>
</glyph>
<glyph name="delta-grek" format="2">
	<advance width="578"/>
	<unicode hex="03B4"/>
	<outline>
		<contour>
			<point x="184" y="719" type="curve"/>
			<point x="184" y="645" type="line"/>
			<point x="518" y="645" type="line"/>
			<point x="518" y="730" type="line"/>
			<point x="66" y="730" type="line"/>
			<point x="66" y="729" type="line"/>
			<point x="247" y="566"/>
			<point x="433" y="394"/>
			<point x="433" y="234" type="curve"/>
			<point x="433" y="137"/>
			<point x="377" y="75"/>
			<point x="276" y="75" type="curve"/>
			<point x="208" y="75"/>
			<point x="144" y="120"/>
			<point x="144" y="211" type="curve"/>
			<point x="144" y="297"/>
			<point x="188" y="425"/>
			<point x="391" y="425" type="curve"/>
			<point x="391" y="510" type="line"/>
			<point x="132" y="510"/>
			<point x="35" y="334"/>
			<point x="35" y="206" type="curve"/>
			<point x="35" y="69"/>
			<point x="144" y="-10"/>
			<point x="281" y="-10" type="curve"/>
			<point x="418" y="-10"/>
			<point x="543" y="83"/>
			<point x="543" y="229" type="curve"/>
			<point x="543" y="423"/>
			<point x="294" y="656"/>
		</contour>
	</outline>
</glyph>
<glyph name="zeta-grek" format="2">
	<advance width="497"/>
	<unicode hex="03B6"/>
	<outline>
		<contour>
			<point x="344" y="719" type="line"/>
			<point x="234" y="636"/>
			<point x="35" y="383"/>
			<point x="35" y="219" type="curve"/>
			<point x="35" y="73"/>
			<point x="140" y="-10"/>
			<point x="312" y="-10" type="curve"/>
			<point x="312" y="75" type="line"/>
			<point x="181" y="75"/>
			<point x="145" y="127"/>
			<point x="145" y="224" type="curve"/>
			<point x="145" y="354"/>
			<point x="281" y="546"/>
			<point x="462" y="729" type="curve"/>
			<point x="462" y="730" type="line"/>
			<point x="50" y="730" type="line"/>
			<point x="50" y="645" type="line"/>
			<point x="344" y="645" type="line"/>
		</contour>
		<contour>
			<point x="396" y="-193" type="line"/>
			<point x="449" y="79" type="line"/>
			<point x="414" y="76"/>
			<point x="351" y="75"/>
			<point x="312" y="75" type="curve"/>
			<point x="312" y="-10" type="line"/>
			<point x="332" y="-10"/>
			<point x="357" y="-9"/>
			<point x="377" y="-6" type="curve"/>
			<point x="359" y="52" type="line"/>
			<point x="312" y="-176" type="line"/>
		</contour>
	</outline>
</glyph>
<glyph name="theta-grek" format="2">
	<advance width="576"/>
	<unicode hex="03B8"/>
	<outline>
		<contour>
			<point x="288" y="-10" type="curve"/>
			<point x="436" y="-10"/>
			<point x="541" y="173"/>
			<point x="541" y="401" type="curve"/>
			<point x="541" y="568"/>
			<point x="441" y="730"/>
			<point x="288" y="730" type="curve"/>
			<point x="140" y="730"/>
			<point x="35" y="547"/>
			<point x="35" y="319" type="curve"/>
			<point x="35" y="152"/>
			<point x="135" y="-10"/>
		</contour>
		<contour>
			<point x="288" y="75" type="curve"/>
			<point x="201" y="75"/>
			<point x="145" y="200"/>
			<point x="145" y="328" type="curve"/>
			<point x="145" y="504"/>
			<point x="204" y="645"/>
			<point x="288" y="645" type="curve"/>
			<point x="375" y="645"/>
			<point x="431" y="520"/>
			<point x="431" y="392" type="curve"/>
			<point x="431" y="216"/>
			<point x="372" y="75"/>
		</contour>
		<contour>
			<point x="495" y="408" type="line"/>
			<point x="85" y="408" type="line"/>
			<point x="85" y="323" type="line"/>
			<point x="495" y="323" type="line"/>
		</contour>
	</outline>
</glyph>
<glyph name="lamda-grek" format="2">
	<advance width="600"/>
	<unicode hex="03BB"/>
	<outline>
		<contour>
			<point x="365" y="494" type="line"/>
			<point x="269" y="536" type="line"/>
			<point x="35" y="35" type="line"/>
			<point x="133" y="-5" type="line"/>
		</contour>
		<contour>
			<point x="271" y="738" type="line"/>
			<point x="173" y="699" type="line"/>
			<point x="254" y="503" type="line"/>
			<point x="264" y="482" type="line"/>
			<point x="467" y="-5" type="line"/>
			<point x="565" y="34" type="line"/>
			<point x="369" y="503" type="line"/>
		</contour>
	</outline>
</glyph>
<glyph name="xi-grek" format="2">
	<advance width="480"/>
	<unicode hex="03BE"/>
	<outline>
		<contour>
			<point x="394" y="355" type="curve"/>
			<point x="394" y="422" type="line"/>
			<point x="267" y="422"/>
			<point x="180" y="436"/>
			<point x="180" y="507" type="curve"/>
			<point x="181" y="577"/>
			<point x="272" y="655"/>
			<point x="419" y="655" type="curve"/>
			<point x="419" y="740" type="line"/>
			<point x="209" y="740"/>
			<point x="71" y="633"/>
			<point x="71" y="512" type="curve"/>
			<point x="71" y="391"/>
			<point x="205" y="355"/>
		</contour>
		<contour>
			<point x="312" y="-10" type="curve"/>
			<point x="312" y="75" type="line"/>
			<point x="235" y="75"/>
			<point x="146" y="88"/>
			<point x="146" y="169" type="curve"/>
			<point x="146" y="246"/>
			<point x="224" y="352"/>
			<point x="394" y="352" type="curve"/>
			<point x="394" y="422" type="line"/>
			<point x="185" y="422"/>
			<point x="35" y="291"/>
			<point x="35" y="159" type="curve"/>
			<point x="35" y="17"/>
			<point x="170" y="-10"/>
		</contour>
		<contour>
			<point x="391" y="-193" type="line"/>
			<point x="445" y="81" type="line"/>
			<point x="406" y="78"/>
			<point x="356" y="75"/>
			<point x="312" y="75" type="curve"/>
			<point x="312" y="-10" type="line"/>
			<point x="330" y="-10"/>
			<point x="354" y="-8"/>
			<point x="368" y="-6" type="curve"/>
			<point x="354" y="49" type="line"/>
			<point x="308" y="-179" type="line"/>
		</contour>
	</outline>
</glyph>
<glyph name="rho-grek" format="2">
	<advance width="576"/>
	<unicode hex="03C1"/>
	<outline>
		<contour>
			<point x="436" y="-10"/>
			<point x="541" y="119"/>
			<point x="541" y="279" type="curve"/>
			<point x="541" y="396"/>
			<point x="441" y="510"/>
			<point x="288" y="510" type="curve"/>
			<point x="140" y="510"/>
			<point x="35" y="381"/>
			<point x="35" y="221" type="curve"/>
			<point x="95" y="190" type="line"/>
			<point x="95" y="104"/>
			<point x="148" y="-10"/>
			<point x="288" y="-10" type="curve"/>
		</contour>
		<contour>
			<point x="288" y="75" type="curve"/>
			<point x="201" y="75"/>
			<point x="145" y="152"/>
			<point x="145" y="231" type="curve"/>
			<point x="145" y="338"/>
			<point x="204" y="425"/>
			<point x="288" y="425" type="curve"/>
			<point x="375" y="425"/>
			<point x="431" y="348"/>
			<point x="431" y="269" type="curve"/>
			<point x="431" y="162"/>
			<point x="372" y="75"/>
		</contour>
		<contour>
			<point x="145" y="-230" type="line"/>
			<point x="145" y="231" type="line"/>
			<point x="35" y="221" type="line"/>
			<point x="35" y="-230" type="line"/>
		</contour>
	</outline>
</glyph>
<glyph name="finalsigma-grek" format="2">
	<advance width="473"/>
	<unicode hex="03C2"/>
	<outline>
		<contour>
			<point x="420" y="510" type="line"/>
			<point x="192" y="510"/>
			<point x="35" y="344"/>
			<point x="35" y="172" type="curve"/>
			<point x="35" y="53"/>
			<point x="141" y="-10"/>
			<point x="312" y="-10" type="curve"/>
			<point x="312" y="75" type="line"/>
			<point x="216" y="75"/>
			<point x="145" y="117"/>
			<point x="145" y="188" type="curve"/>
			<point x="145" y="312"/>
			<point x="269" y="425"/>
			<point x="420" y="425" type="curve"/>
		</contour>
		<contour>
			<point x="391" y="-193" type="line"/>
			<point x="445" y="81" type="line"/>
			<point x="405" y="78"/>
			<point x="355" y="75"/>
			<point x="312" y="75" type="curve"/>
			<point x="312" y="-10" type="line"/>
			<point x="329" y="-10"/>
			<point x="354" y="-8"/>
			<point x="367" y="-6" type="curve"/>
			<point x="353" y="49" type="line"/>
			<point x="308" y="-179" type="line"/>
		</contour>
	</outline>
</glyph>
<glyph name="sigma-grek" format="2">
	<advance width="695"/>
	<unicode hex="03C3"/>
	<outline>
		<contour>
			<point x="288" y="-10" type="curve"/>
			<point x="436" y="-10"/>
			<point x="541" y="119"/>
			<point x="541" y="279" type="curve"/>
			<point x="541" y="396"/>
			<point x="441" y="510"/>
			<point x="288" y="510" type="curve"/>
			<point x="140" y="510"/>
			<point x="35" y="381"/>
			<point x="35" y="221" type="curve"/>
			<point x="35" y="104"/>
			<point x="135" y="-10"/>
		</contour>
		<contour>
			<point x="288" y="75" type="curve"/>
			<point x="201" y="75"/>
			<point x="145" y="152"/>
			<point x="145" y="231" type="curve"/>
			<point x="145" y="338"/>
			<point x="204" y="425"/>
			<point x="288" y="425" type="curve"/>
			<point x="375" y="425"/>
			<point x="431" y="348"/>
			<point x="431" y="269" type="curve"/>
			<point x="431" y="162"/>
			<point x="372" y="75"/>
		</contour>
		<contour>
			<point x="660" y="500" type="line"/>
			<point x="345" y="500" type="line"/>
			<point x="375" y="425" type="line"/>
			<point x="660" y="415" type="line"/>
		</contour>
	</outline>
</glyph>
<glyph name="phi-grek" format="2">
	<advance width="699"/>
	<unicode hex="03C6"/>
	<outline>
		<contour>
			<point x="398" y="-230" type="line"/>
			<point x="398" y="490" type="line"/>
			<point x="288" y="500" type="line"/>
			<point x="288" y="-230" type="line"/>
		</contour>
		<contour>
			<point x="398" y="-10" type="curve"/>
			<point x="398" y="75" type="line"/>
			<point x="217" y="75"/>
			<point x="145" y="134"/>
			<point x="145" y="241" type="curve"/>
			<point x="145" y="334"/>
			<point x="177" y="401"/>
			<point x="221" y="461" type="curve"/>
			<point x="138" y="508" type="line"/>
			<point x="85" y="444"/>
			<point x="35" y="356"/>
			<point x="35" y="241" type="curve"/>
			<point x="35" y="101"/>
			<point x="148" y="-10"/>
		</contour>
		<contour>
			<point x="288" y="-9" type="line"/>
			<point x="523" y="-9"/>
			<point x="664" y="117"/>
			<point x="664" y="281" type="curve"/>
			<point x="663" y="421"/>
			<point x="486" y="510"/>
			<point x="288" y="510" type="curve"/>
			<point x="288" y="425" type="line"/>
			<point x="440" y="425"/>
			<point x="553" y="359"/>
			<point x="553" y="271" type="curve"/>
			<point x="553" y="159"/>
			<point x="449" y="76"/>
			<point x="288" y="76" type="curve"/>
		</contour>
	</outline>
</glyph>
<glyph name="chi-grek" format="2">
	<advance width="583"/>
	<unicode hex="03C7"/>
	<outline>
		<contour>
			<point x="533" y="456" type="line"/>
			<point x="446" y="506" type="line"/>
			<point x="35" y="-187" type="line"/>
			<point x="123" y="-236" type="line"/>
		</contour>
		<contour>
			<point x="45" y="456" type="line"/>
			<point x="456" y="-236" type="line"/>
			<point x="543" y="-187" type="line"/>
			<point x="133" y="506" type="line"/>
		</contour>
	</outline>
</glyph>
<glyph name="psi-grek" format="2">
	<advance width="810"/>
	<unicode hex="03C8"/>
	<outline>
		<contour>
			<point x="460" y="-230" type="line"/>
			<point x="460" y="600" type="line"/>
			<point x="350" y="600" type="line"/>
			<point x="350" y="-230" type="line"/>
		</contour>
		<contour>
			<point x="418" y="-10" type="line"/>
			<point x="631" y="-10"/>
			<point x="740" y="113"/>
			<point x="740" y="313" type="curve"/>
			<point x="740" y="500" type="line"/>
			<point x="630" y="500" type="line"/>
			<point x="630" y="313" type="line"/>
			<point x="630" y="176"/>
			<point x="558" y="75"/>
			<point x="418" y="75" type="curve"/>
		</contour>
		<contour>
			<point x="70" y="313" type="line"/>
			<point x="70" y="147"/>
			<point x="167" y="-10"/>
			<point x="358" y="-10" type="curve"/>
			<point x="358" y="75" type="line"/>
			<point x="245" y="75"/>
			<point x="180" y="191"/>
			<point x="180" y="313" type="curve"/>
			<point x="180" y="500" type="line"/>
			<point x="70" y="500" type="line"/>
		</contour>
	</outline>
</glyph>
<glyph name="omega-grek" format="2">
	<advance width="802"/>
	<unicode hex="03C9"/>
	<outline>
		<contour>
			<point x="35" y="205" type="curve"/>
			<point x="35" y="80"/>
			<point x="112" y="-10"/>
			<point x="239" y="-10" type="curve"/>
			<point x="381" y="-10"/>
			<point x="456" y="145"/>
			<point x="456" y="350" type="curve"/>
			<point x="346" y="350" type="line"/>
			<point x="346" y="164"/>
			<point x="314" y="77"/>
			<point x="244" y="77" type="curve"/>
			<point x="189" y="77"/>
			<point x="145" y="128"/>
			<point x="145" y="225" type="curve"/>
			<point x="145" y="345"/>
			<point x="168" y="403"/>
			<point x="207" y="478" type="curve"/>
			<point x="105" y="507" type="line"/>
			<point x="66" y="426"/>
			<point x="35" y="361"/>
		</contour>
		<contour>
			<point x="767" y="205" type="curve"/>
			<point x="767" y="361"/>
			<point x="736" y="426"/>
			<point x="697" y="507" type="curve"/>
			<point x="596" y="478" type="line"/>
			<point x="635" y="403"/>
			<point x="657" y="345"/>
			<point x="657" y="225" type="curve"/>
			<point x="657" y="128"/>
			<point x="613" y="77"/>
			<point x="558" y="77" type="curve"/>
			<point x="488" y="77"/>
			<point x="456" y="164"/>
			<point x="456" y="350" type="curve"/>
			<point x="346" y="350" type="line"/>
			<point x="346" y="145"/>
			<point x="421" y="-10"/>
			<point x="563" y="-10" type="curve"/>
			<point x="690" y="-10"/>
			<point x="767" y="80"/>
		</contour>
	</outline>
</glyph>
<glyph name="thetasymbol-grek" format="2">
	<advance width="589"/>
	<unicode hex="03D1"/>
	<outline>
		<contour>
			<point x="262" y="-10" type="curve"/>
			<point x="395" y="-10"/>
			<point x="490" y="168"/>
			<point x="490" y="401" type="curve"/>
			<point x="490" y="560"/>
			<point x="405" y="730"/>
			<point x="262" y="730" type="curve"/>
			<point x="130" y="730"/>
			<point x="41" y="558"/>
			<point x="35" y="353" type="curve"/>
			<point x="144" y="353" type="line"/>
			<point x="148" y="516"/>
			<point x="194" y="645"/>
			<point x="262" y="645" type="curve"/>
			<point x="331" y="645"/>
			<point x="380" y="530"/>
			<point x="380" y="392" type="curve"/>
			<point x="380" y="221"/>
			<point x="334" y="75"/>
			<point x="262" y="75" type="curve"/>
			<point x="198" y="75"/>
			<point x="159" y="168"/>
			<point x="147" y="269" type="curve"/>
			<point x="39" y="249" type="line"/>
			<point x="59" y="117"/>
			<point x="138" y="-10"/>
		</contour>
		<contour>
			<point x="554" y="353" type="line"/>
			<point x="554" y="438" type="line"/>
			<point x="84" y="438" type="line"/>
			<point x="84" y="353" type="line"/>
		</contour>
	</outline>
</glyph>
<glyph name="pisymbol-grek" format="2">
	<advance width="872"/>
	<unicode hex="03D6"/>
	<outline>
		<contour>
			<point x="70" y="205" type="curve"/>
			<point x="70" y="80"/>
			<point x="147" y="-10"/>
			<point x="274" y="-10" type="curve"/>
			<point x="416" y="-10"/>
			<point x="491" y="145"/>
			<point x="491" y="320" type="curve"/>
			<point x="381" y="320" type="line"/>
			<point x="381" y="164"/>
			<point x="349" y="77"/>
			<point x="279" y="77" type="curve"/>
			<point x="224" y="77"/>
			<point x="180" y="128"/>
			<point x="180" y="225" type="curve"/>
			<point x="180" y="305"/>
			<point x="233" y="403"/>
			<point x="272" y="478" type="curve"/>
			<point x="167" y="500" type="line"/>
			<point x="131" y="426"/>
			<point x="70" y="331"/>
		</contour>
		<contour>
			<point x="802" y="205" type="curve"/>
			<point x="802" y="331"/>
			<point x="741" y="426"/>
			<point x="705" y="500" type="curve"/>
			<point x="601" y="478" type="line"/>
			<point x="640" y="403"/>
			<point x="692" y="305"/>
			<point x="692" y="225" type="curve"/>
			<point x="692" y="128"/>
			<point x="648" y="77"/>
			<point x="593" y="77" type="curve"/>
			<point x="523" y="77"/>
			<point x="491" y="164"/>
			<point x="491" y="320" type="curve"/>
			<point x="381" y="320" type="line"/>
			<point x="381" y="145"/>
			<point x="456" y="-10"/>
			<point x="598" y="-10" type="curve"/>
			<point x="725" y="-10"/>
			<point x="802" y="80"/>
		</contour>
		<contour>
			<point x="837" y="415" type="line"/>
			<point x="837" y="500" type="line"/>
			<point x="35" y="500" type="line"/>
			<point x="35" y="415" type="line"/>
		</contour>
	</outline>
</glyph>
<glyph name="kappasymbol-grek" format="2">
	<advance width="695"/>
	<unicode hex="03F0"/>
	<outline>
		<contour>
			<point x="67" y="510" type="curve"/>
			<point x="35" y="426" type="line"/>
			<point x="97" y="400"/>
			<point x="130" y="364"/>
			<point x="130" y="247" type="curve"/>
			<point x="240" y="322" type="line"/>
			<point x="240" y="420"/>
			<point x="165" y="491"/>
		</contour>
		<contour>
			<point x="628" y="-10" type="curve"/>
			<point x="660" y="75" type="line"/>
			<point x="598" y="101"/>
			<point x="565" y="137"/>
			<point x="565" y="253" type="curve"/>
			<point x="455" y="178" type="line"/>
			<point x="455" y="80"/>
			<point x="530" y="10"/>
		</contour>
		<contour>
			<point x="455" y="287" type="line"/>
			<point x="455" y="178" type="line"/>
			<point x="565" y="253" type="line"/>
			<point x="565" y="514" type="line"/>
			<point x="564" y="514" type="line"/>
			<point x="240" y="220" type="line"/>
			<point x="240" y="322" type="line"/>
			<point x="130" y="247" type="line"/>
			<point x="130" y="-14" type="line"/>
			<point x="131" y="-14" type="line"/>
		</contour>
	</outline>
</glyph>
<glyph name="Ghe-cyrl" format="2">
	<advance width="471"/>
	<unicode hex="0413"/>
	<outline>
		<contour>
			<point x="70" y="700" type="line"/>
			<point x="70" y="0" type="line"/>
			<point x="180" y="0" type="line"/>
			<point x="180" y="615" type="line"/>
			<point x="436" y="615" type="line"/>
			<point x="436" y="700" type="line"/>
		</contour>
	</outline>
</glyph>
<glyph name="De-cyrl" format="2">
	<advance width="747"/>
	<unicode hex="0414"/>
	<outline>
		<contour>
			<point x="621" y="700" type="line"/>
			<point x="270" y="700" type="line"/>
			<point x="270" y="615" type="line"/>
			<point x="511" y="615" type="line"/>
			<point x="511" y="0" type="line"/>
			<point x="621" y="0" type="line"/>
		</contour>
		<contour>
			<point x="145" y="0" type="line"/>
			<point x="602" y="0" type="line"/>
			<point x="602" y="-150" type="line"/>
			<point x="712" y="-150" type="line"/>
			<point x="712" y="85" type="line"/>
			<point x="35" y="85" type="line"/>
			<point x="35" y="-150" type="line"/>
			<point x="145" y="-150" type="line"/>
		</contour>
		<contour>
			<point x="204" y="4" type="line"/>
			<point x="291" y="263"/>
			<point x="318" y="427"/>
			<point x="345" y="700" type="curve"/>
			<point x="235" y="700" type="line"/>
			<point x="208" y="435"/>
			<point x="183" y="271"/>
			<point x="98" y="15" type="curve"/>
		</contour>
	</outline>
</glyph>
<glyph name="Zhe-cyrl" format="2">
	<advance width="939"/>
	<unicode hex="0416"/>
	<outline>
		<contour>
			<point x="525" y="0" type="line"/>
			<point x="525" y="700" type="line"/>
			<point x="415" y="700" type="line"/>
			<point x="415" y="0" type="line"/>
		</contour>
		<contour>
			<point x="500" y="344" type="line"/>
			<point x="816" y="7" type="line"/>
			<point x="904" y="77" type="line"/>
			<point x="615" y="346" type="line"/>
			<point x="884" y="619" type="line"/>
			<point x="789" y="691" type="line"/>
		</contour>
		<contour>
			<point x="440" y="344" type="line"/>
			<point x="151" y="691" type="line"/>
			<point x="56" y="619" type="line"/>
			<point x="329" y="346" type="line"/>
			<point x="35" y="77" type="line"/>
			<point x="124" y="7" type="line"/>
		</contour>
	</outline>
</glyph>
<glyph name="Ze-cyrl" format="2">
	<advance width="474"/>
	<unicode hex="0417"/>
	<outline>
		<contour>
			<point x="80" y="325" type="line"/>
			<point x="269" y="325"/>
			<point x="403" y="436"/>
			<point x="403" y="557" type="curve"/>
			<point x="403" y="678"/>
			<point x="265" y="710"/>
			<point x="55" y="710" type="curve"/>
			<point x="55" y="625" type="line"/>
			<point x="202" y="625"/>
			<point x="293" y="602"/>
			<point x="294" y="532" type="curve"/>
			<point x="294" y="459"/>
			<point x="207" y="392"/>
			<point x="80" y="392" type="curve"/>
		</contour>
		<contour>
			<point x="35" y="-10" type="line"/>
			<point x="304" y="-10"/>
			<point x="439" y="82"/>
			<point x="439" y="204" type="curve"/>
			<point x="439" y="326"/>
			<point x="289" y="392"/>
			<point x="80" y="392" type="curve"/>
			<point x="80" y="322" type="line"/>
			<point x="250" y="322"/>
			<point x="328" y="281"/>
			<point x="328" y="209" type="curve"/>
			<point x="328" y="138"/>
			<point x="239" y="75"/>
			<point x="35" y="75" type="curve"/>
		</contour>
	</outline>
</glyph>
<glyph name="Pe-cyrl" format="2">
	<advance width="861"/>
	<unicode hex="041F"/>
	<outline>
		<contour>
			<point x="256" y="615" type="line"/>
			<point x="605" y="615" type="line"/>
			<point x="605" y="0" type="line"/>
			<point x="715" y="0" type="line"/>
			<point x="715" y="615" type="line"/>
			<point x="826" y="615" type="line"/>
			<point x="826" y="700" type="line"/>
			<point x="35" y="700" type="line"/>
			<point x="35" y="615" type="line"/>
			<point x="146" y="615" type="line"/>
			<point x="146" y="0" type="line"/>
			<point x="256" y="0" type="line"/>
		</contour>
	</outline>
</glyph>
<glyph name="U-cyrl" format="2">
	<advance width="658"/>
	<unicode hex="0423"/>
	<outline>
		<contour>
			<point x="285" y="-8" type="line"/>
			<point x="623" y="673" type="line"/>
			<point x="526" y="707" type="line"/>
			<point x="299" y="239" type="line"/>
			<point x="280" y="223" type="line"/>
			<point x="187" y="33" type="line"/>
		</contour>
		<contour>
			<point x="287" y="177" type="line"/>
			<point x="373" y="222" type="line"/>
			<point x="137" y="707" type="line"/>
			<point x="35" y="673" type="line"/>
		</contour>
	</outline>
</glyph>
<glyph name="Ef-cyrl" format="2">
	<advance width="760"/>
	<unicode hex="0424"/>
	<outline>
		<contour>
			<point x="435" y="0" type="line"/>
			<point x="435" y="700" type="line"/>
			<point x="325" y="700" type="line"/>
			<point x="325" y="0" type="line"/>
		</contour>
		<contour>
			<point x="425" y="90" type="line"/>
			<point x="600" y="90"/>
			<point x="725" y="216"/>
			<point x="725" y="379" type="curve"/>
			<point x="725" y="494"/>
			<point x="610" y="610"/>
			<point x="425" y="610" type="curve"/>
			<point x="425" y="525" type="line"/>
			<point x="541" y="525"/>
			<point x="615" y="449"/>
			<point x="615" y="370" type="curve"/>
			<point x="615" y="266"/>
			<point x="542" y="175"/>
			<point x="425" y="175" type="curve"/>
		</contour>
		<contour>
			<point x="335" y="90" type="curve"/>
			<point x="335" y="175" type="line"/>
			<point x="220" y="175"/>
			<point x="145" y="251"/>
			<point x="145" y="331" type="curve"/>
			<point x="145" y="435"/>
			<point x="219" y="525"/>
			<point x="335" y="525" type="curve"/>
			<point x="335" y="610" type="line"/>
			<point x="160" y="610"/>
			<point x="35" y="484"/>
			<point x="35" y="321" type="curve"/>
			<point x="35" y="206"/>
			<point x="150" y="90"/>
		</contour>
	</outline>
</glyph>
<glyph name="Che-cyrl" format="2">
	<advance width="695"/>
	<unicode hex="0427"/>
	<outline>
		<contour>
			<point x="70" y="493" type="line"/>
			<point x="70" y="332"/>
			<point x="157" y="210"/>
			<point x="318" y="210" type="curve"/>
			<point x="426" y="210"/>
			<point x="497" y="231"/>
			<point x="540" y="271" type="curve"/>
			<point x="540" y="355" type="line"/>
			<point x="491" y="311"/>
			<point x="423" y="295"/>
			<point x="348" y="295" type="curve"/>
			<point x="245" y="295"/>
			<point x="180" y="376"/>
			<point x="180" y="493" type="curve"/>
			<point x="180" y="700" type="line"/>
			<point x="70" y="700" type="line"/>
		</contour>
		<contour>
			<point x="625" y="0" type="line"/>
			<point x="625" y="700" type="line"/>
			<point x="515" y="700" type="line"/>
			<point x="515" y="0" type="line"/>
		</contour>
	</outline>
</glyph>
<glyph name="Sha-cyrl" format="2">
	<advance width="980"/>
	<unicode hex="0428"/>
	<outline>
		<contour>
			<point x="910" y="0" type="line"/>
			<point x="910" y="700" type="line"/>
			<point x="800" y="700" type="line"/>
			<point x="800" y="85" type="line"/>
			<point x="545" y="85" type="line"/>
			<point x="545" y="700" type="line"/>
			<point x="435" y="700" type="line"/>
			<point x="435" y="85" type="line"/>
			<point x="180" y="85" type="line"/>
			<point x="180" y="700" type="line"/>
			<point x="70" y="700" type="line"/>
			<point x="70" y="0" type="line"/>
		</contour>
	</outline>
</glyph>
<glyph name="Signsoft-cyrl" format="2">
	<advance width="534"/>
	<unicode hex="042C"/>
	<outline>
		<contour>
			<point x="70" y="-10" type="line"/>
			<point x="330" y="-10"/>
			<point x="499" y="139"/>
			<point x="499" y="297" type="curve"/>
			<point x="499" y="453"/>
			<point x="315" y="501"/>
			<point x="70" y="501" type="curve"/>
			<point x="70" y="416" type="line"/>
			<point x="286" y="416"/>
			<point x="389" y="387"/>
			<point x="389" y="282" type="curve"/>
			<point x="389" y="155"/>
			<point x="250" y="75"/>
			<point x="70" y="75" type="curve"/>
		</contour>
		<contour>
			<point x="180" y="15" type="line"/>
			<point x="180" y="700" type="line"/>
			<point x="70" y="700" type="line"/>
			<point x="70" y="0" type="line"/>
		</contour>
	</outline>
</glyph>
<glyph name="Yu-cyrl" format="2">
	<advance width="976"/>
	<unicode hex="042E"/>
	<outline>
		<contour>
			<point x="180" y="404" type="line"/>
			<point x="180" y="700" type="line"/>
			<point x="70" y="700" type="line"/>
			<point x="70" y="0" type="line"/>
			<point x="180" y="0" type="line"/>
			<point x="180" y="319" type="line"/>
			<point x="353" y="319" type="line"/>
			<point x="353" y="404" type="line"/>
		</contour>
		<contour>
			<point x="616" y="-10" type="curve"/>
			<point x="806" y="-10"/>
			<point x="941" y="168"/>
			<point x="941" y="390" type="curve"/>
			<point x="941" y="552"/>
			<point x="813" y="710"/>
			<point x="616" y="710" type="curve"/>
			<point x="426" y="710"/>
			<point x="291" y="532"/>
			<point x="291" y="310" type="curve"/>
			<point x="291" y="148"/>
			<point x="419" y="-10"/>
		</contour>
		<contour>
			<point x="616" y="75" type="curve"/>
			<point x="486" y="75"/>
			<point x="401" y="196"/>
			<point x="401" y="320" type="curve"/>
			<point x="401" y="489"/>
			<point x="490" y="625"/>
			<point x="616" y="625" type="curve"/>
			<point x="747" y="625"/>
			<point x="831" y="505"/>
			<point x="831" y="381" type="curve"/>
			<point x="831" y="211"/>
			<point x="742" y="75"/>
		</contour>
	</outline>
</glyph>
<glyph name="ve-cyrl" format="2">
	<advance width="514"/>
	<unicode hex="0432"/>
	<outline>
		<contour>
			<point x="181" y="5" type="line"/>
			<point x="181" y="495" type="line"/>
			<point x="70" y="500" type="line"/>
			<point x="70" y="0" type="line"/>
		</contour>
		<contour>
			<point x="70" y="232" type="line"/>
			<point x="319" y="232"/>
			<point x="453" y="297"/>
			<point x="453" y="385" type="curve"/>
			<point x="453" y="472"/>
			<point x="315" y="510"/>
			<point x="70" y="510" type="curve"/>
			<point x="70" y="425" type="line"/>
			<point x="252" y="425"/>
			<point x="339" y="411"/>
			<point x="339" y="362" type="curve"/>
			<point x="339" y="312"/>
			<point x="257" y="290"/>
			<point x="70" y="290" type="curve"/>
		</contour>
		<contour>
			<point x="70" y="-10" type="line"/>
			<point x="359" y="-10"/>
			<point x="479" y="69"/>
			<point x="479" y="157" type="curve"/>
			<point x="479" y="245"/>
			<point x="339" y="290"/>
			<point x="70" y="290" type="curve"/>
			<point x="70" y="230" type="line"/>
			<point x="300" y="230"/>
			<point x="368" y="214"/>
			<point x="368" y="167" type="curve"/>
			<point x="368" y="120"/>
			<point x="294" y="75"/>
			<point x="70" y="75" type="curve"/>
		</contour>
	</outline>
</glyph>
<glyph name="ghe-cyrl" format="2">
	<advance width="402"/>
	<unicode hex="0433"/>
	<outline>
		<contour>
			<point x="70" y="500" type="line"/>
			<point x="70" y="0" type="line"/>
			<point x="180" y="0" type="line"/>
			<point x="180" y="415" type="line"/>
			<point x="368" y="415" type="line"/>
			<point x="368" y="500" type="line"/>
		</contour>
	</outline>
</glyph>
<glyph name="de-cyrl" format="2">
	<advance width="677"/>
	<unicode hex="0434"/>
	<outline>
		<contour>
			<point x="545" y="500" type="line"/>
			<point x="251" y="500" type="line"/>
			<point x="251" y="415" type="line"/>
			<point x="435" y="415" type="line"/>
			<point x="435" y="0" type="line"/>
			<point x="545" y="0" type="line"/>
		</contour>
		<contour>
			<point x="145" y="0" type="line"/>
			<point x="532" y="0" type="line"/>
			<point x="532" y="-150" type="line"/>
			<point x="642" y="-150" type="line"/>
			<point x="642" y="85" type="line"/>
			<point x="35" y="85" type="line"/>
			<point x="35" y="-150" type="line"/>
			<point x="145" y="-150" type="line"/>
		</contour>
		<contour>
			<point x="205" y="3" type="line"/>
			<point x="268" y="188"/>
			<point x="287" y="305"/>
			<point x="306" y="500" type="curve"/>
			<point x="196" y="500" type="line"/>
			<point x="177" y="311"/>
			<point x="159" y="194"/>
			<point x="98" y="11" type="curve"/>
		</contour>
	</outline>
</glyph>
<glyph name="zhe-cyrl" format="2">
	<advance width="733"/>
	<unicode hex="0436"/>
	<outline>
		<contour>
			<point x="421" y="0" type="line"/>
			<point x="421" y="500" type="line"/>
			<point x="311" y="500" type="line"/>
			<point x="311" y="0" type="line"/>
		</contour>
		<contour>
			<point x="402" y="246" type="line"/>
			<point x="624" y="5" type="line"/>
			<point x="698" y="75" type="line"/>
			<point x="499" y="253" type="line"/>
			<point x="499" y="240" type="line"/>
			<point x="685" y="424" type="line"/>
			<point x="611" y="493" type="line"/>
		</contour>
		<contour>
			<point x="331" y="246" type="line"/>
			<point x="122" y="493" type="line"/>
			<point x="48" y="424" type="line"/>
			<point x="234" y="240" type="line"/>
			<point x="234" y="253" type="line"/>
			<point x="35" y="75" type="line"/>
			<point x="109" y="5" type="line"/>
		</contour>
	</outline>
</glyph>
<glyph name="ze-cyrl" format="2">
	<advance width="389"/>
	<unicode hex="0437"/>
	<outline>
		<contour>
			<point x="65" y="232" type="line"/>
			<point x="204" y="232"/>
			<point x="338" y="297"/>
			<point x="338" y="385" type="curve"/>
			<point x="338" y="472"/>
			<point x="200" y="510"/>
			<point x="45" y="510" type="curve"/>
			<point x="45" y="425" type="line"/>
			<point x="137" y="425"/>
			<point x="224" y="411"/>
			<point x="224" y="362" type="curve"/>
			<point x="224" y="312"/>
			<point x="142" y="290"/>
			<point x="65" y="290" type="curve"/>
		</contour>
		<contour>
			<point x="35" y="-10" type="line"/>
			<point x="244" y="-10"/>
			<point x="354" y="69"/>
			<point x="354" y="157" type="curve"/>
			<point x="354" y="245"/>
			<point x="224" y="290"/>
			<point x="65" y="290" type="curve"/>
			<point x="65" y="230" type="line"/>
			<point x="185" y="230"/>
			<point x="243" y="214"/>
			<point x="243" y="167" type="curve"/>
			<point x="243" y="120"/>
			<point x="179" y="75"/>
			<point x="35" y="75" type="curve"/>
		</contour>
	</outline>
</glyph>
<glyph name="ka-cyrl" format="2">
	<advance width="527"/>
	<unicode hex="043A"/>
	<outline>
		<contour>
			<point x="180" y="0" type="line"/>
			<point x="180" y="500" type="line"/>
			<point x="70" y="500" type="line"/>
			<point x="70" y="0" type="line"/>
		</contour>
		<contour>
			<point x="165" y="246" type="line"/>
			<point x="418" y="5" type="line"/>
			<point x="492" y="75" type="line"/>
			<point x="273" y="253" type="line"/>
			<point x="273" y="240" type="line"/>
			<point x="479" y="424" type="line"/>
			<point x="405" y="493" type="line"/>
		</contour>
	</outline>
</glyph>
<glyph name="em-cyrl" format="2">
	<advance width="710"/>
	<unicode hex="043C"/>
	<outline>
		<contour>
			<point x="354" y="89" type="line"/>
			<point x="356" y="89" type="line"/>
			<point x="542" y="346" type="line"/>
			<point x="502" y="346" type="line"/>
			<point x="565" y="-4" type="line"/>
			<point x="675" y="23" type="line"/>
			<point x="570" y="522" type="line"/>
			<point x="569" y="522" type="line"/>
			<point x="352" y="243" type="line"/>
			<point x="358" y="243" type="line"/>
			<point x="141" y="522" type="line"/>
			<point x="140" y="522" type="line"/>
			<point x="35" y="23" type="line"/>
			<point x="145" y="-4" type="line"/>
			<point x="208" y="346" type="line"/>
			<point x="167" y="346" type="line"/>
		</contour>
	</outline>
</glyph>
<glyph name="en-cyrl" format="2">
	<advance width="613"/>
	<unicode hex="043D"/>
	<outline>
		<contour>
			<point x="180" y="223" type="line"/>
			<point x="433" y="223" type="line"/>
			<point x="433" y="0" type="line"/>
			<point x="543" y="0" type="line"/>
			<point x="543" y="500" type="line"/>
			<point x="433" y="500" type="line"/>
			<point x="433" y="308" type="line"/>
			<point x="180" y="308" type="line"/>
			<point x="180" y="500" type="line"/>
			<point x="70" y="500" type="line"/>
			<point x="70" y="0" type="line"/>
			<point x="180" y="0" type="line"/>
		</contour>
	</outline>
</glyph>
<glyph name="pe-cyrl" format="2">
	<advance width="680"/>
	<unicode hex="043F"/>
	<outline>
		<contour>
			<point x="222" y="415" type="line"/>
			<point x="443" y="415" type="line"/>
			<point x="443" y="0" type="line"/>
			<point x="553" y="0" type="line"/>
			<point x="553" y="415" type="line"/>
			<point x="630" y="415" type="line"/>
			<point x="630" y="500" type="line"/>
			<point x="35" y="500" type="line"/>
			<point x="35" y="415" type="line"/>
			<point x="112" y="415" type="line"/>
			<point x="112" y="0" type="line"/>
			<point x="222" y="0" type="line"/>
		</contour>
	</outline>
</glyph>
<glyph name="te-cyrl" format="2">
	<advance width="555"/>
	<unicode hex="0442"/>
	<outline>
		<contour>
			<point x="223" y="415" type="line"/>
			<point x="223" y="0" type="line"/>
			<point x="333" y="0" type="line"/>
			<point x="333" y="415" type="line"/>
			<point x="520" y="415" type="line"/>
			<point x="520" y="500" type="line"/>
			<point x="35" y="500" type="line"/>
			<point x="35" y="415" type="line"/>
		</contour>
	</outline>
</glyph>
<glyph name="ef-cyrl" format="2">
	<advance width="666"/>
	<unicode hex="0444"/>
	<outline>
		<contour>
			<point x="388" y="-230" type="line"/>
			<point x="388" y="700" type="line"/>
			<point x="278" y="700" type="line"/>
			<point x="278" y="-230" type="line"/>
		</contour>
		<contour>
			<point x="288" y="-10" type="curve"/>
			<point x="288" y="75" type="line"/>
			<point x="197" y="75"/>
			<point x="145" y="154"/>
			<point x="145" y="231" type="curve"/>
			<point x="145" y="334"/>
			<point x="201" y="425"/>
			<point x="288" y="425" type="curve"/>
			<point x="288" y="510" type="line"/>
			<point x="134" y="510"/>
			<point x="35" y="376"/>
			<point x="35" y="221" type="curve"/>
			<point x="35" y="111"/>
			<point x="128" y="-10"/>
		</contour>
		<contour>
			<point x="378" y="-10" type="line"/>
			<point x="532" y="-10"/>
			<point x="631" y="124"/>
			<point x="631" y="279" type="curve"/>
			<point x="631" y="389"/>
			<point x="538" y="510"/>
			<point x="378" y="510" type="curve"/>
			<point x="378" y="425" type="line"/>
			<point x="469" y="425"/>
			<point x="521" y="346"/>
			<point x="521" y="269" type="curve"/>
			<point x="521" y="166"/>
			<point x="465" y="75"/>
			<point x="378" y="75" type="curve"/>
		</contour>
	</outline>
</glyph>
<glyph name="che-cyrl" format="2">
	<advance width="586"/>
	<unicode hex="0447"/>
	<outline>
		<contour>
			<point x="70" y="353" type="line"/>
			<point x="70" y="228"/>
			<point x="151" y="144"/>
			<point x="265" y="144" type="curve"/>
			<point x="342" y="144"/>
			<point x="396" y="158"/>
			<point x="427" y="187" type="curve"/>
			<point x="427" y="261" type="line"/>
			<point x="392" y="230"/>
			<point x="346" y="219"/>
			<point x="292" y="219" type="curve"/>
			<point x="218" y="219"/>
			<point x="180" y="269"/>
			<point x="180" y="353" type="curve"/>
			<point x="180" y="500" type="line"/>
			<point x="70" y="500" type="line"/>
		</contour>
		<contour>
			<point x="516" y="0" type="line"/>
			<point x="516" y="500" type="line"/>
			<point x="406" y="500" type="line"/>
			<point x="406" y="0" type="line"/>
		</contour>
	</outline>
</glyph>
<glyph name="sha-cyrl" format="2">
	<advance width="786"/>
	<unicode hex="0448"/>
	<outline>
		<contour>
			<point x="716" y="0" type="line"/>
			<point x="716" y="500" type="line"/>
			<point x="606" y="500" type="line"/>
			<point x="606" y="85" type="line"/>
			<point x="449" y="85" type="line"/>
			<point x="449" y="500" type="line"/>
			<point x="339" y="500" type="line"/>
			<point x="339" y="85" type="line"/>
			<point x="180" y="85" type="line"/>
			<point x="180" y="500" type="line"/>
			<point x="70" y="500" type="line"/>
			<point x="70" y="0" type="line"/>
		</contour>
	</outline>
</glyph>
<glyph name="signsoft-cyrl" format="2">
	<advance width="498"/>
	<unicode hex="044C"/>
	<outline>
		<contour>
			<point x="70" y="-10" type="line"/>
			<point x="344" y="-10"/>
			<point x="463" y="92"/>
			<point x="463" y="215" type="curve"/>
			<point x="463" y="328"/>
			<point x="305" y="372"/>
			<point x="70" y="372" type="curve"/>
			<point x="70" y="287" type="line"/>
			<point x="271" y="287"/>
			<point x="353" y="260"/>
			<point x="353" y="200" type="curve"/>
			<point x="353" y="129"/>
			<point x="260" y="75"/>
			<point x="70" y="75" type="curve"/>
		</contour>
		<contour>
			<point x="180" y="11" type="line"/>
			<point x="180" y="500" type="line"/>
			<point x="70" y="500" type="line"/>
			<point x="70" y="0" type="line"/>
		</contour>
	</outline>
</glyph>
<glyph name="e-cyrl" format="2">
	<advance width="486"/>
	<unicode hex="044D"/>
	<outline>
		<contour>
			<point x="57" y="510" type="curve"/>
			<point x="57" y="425" type="line"/>
			<point x="216" y="425"/>
			<point x="341" y="358"/>
			<point x="341" y="234" type="curve"/>
			<point x="341" y="128"/>
			<point x="251" y="75"/>
			<point x="176" y="75" type="curve"/>
			<point x="136" y="75"/>
			<point x="84" y="81"/>
			<point x="47" y="95" type="curve"/>
			<point x="35" y="9" type="line"/>
			<point x="78" y="-6"/>
			<point x="124" y="-10"/>
			<point x="190" y="-10" type="curve"/>
			<point x="303" y="-10"/>
			<point x="451" y="79"/>
			<point x="451" y="234" type="curve"/>
			<point x="451" y="405"/>
			<point x="289" y="510"/>
		</contour>
		<contour>
			<point x="369" y="289" type="line"/>
			<point x="92" y="289" type="line"/>
			<point x="92" y="204" type="line"/>
			<point x="369" y="204" type="line"/>
		</contour>
	</outline>
</glyph>
<glyph name="yu-cyrl" format="2">
	<advance width="786"/>
	<unicode hex="044E"/>
	<outline>
		<contour>
			<point x="498" y="-10" type="curve"/>
			<point x="646" y="-10"/>
			<point x="751" y="119"/>
			<point x="751" y="279" type="curve"/>
			<point x="751" y="396"/>
			<point x="651" y="510"/>
			<point x="498" y="510" type="curve"/>
			<point x="350" y="510"/>
			<point x="245" y="381"/>
			<point x="245" y="221" type="curve"/>
			<point x="245" y="104"/>
			<point x="345" y="-10"/>
		</contour>
		<contour>
			<point x="498" y="75" type="curve"/>
			<point x="411" y="75"/>
			<point x="355" y="152"/>
			<point x="355" y="231" type="curve"/>
			<point x="355" y="338"/>
			<point x="414" y="425"/>
			<point x="498" y="425" type="curve"/>
			<point x="585" y="425"/>
			<point x="641" y="348"/>
			<point x="641" y="269" type="curve"/>
			<point x="641" y="162"/>
			<point x="582" y="75"/>
		</contour>
		<contour>
			<point x="180" y="314" type="line"/>
			<point x="180" y="500" type="line"/>
			<point x="70" y="500" type="line"/>
			<point x="70" y="0" type="line"/>
			<point x="180" y="0" type="line"/>
			<point x="180" y="209" type="line"/>
			<point x="318" y="209" type="line"/>
			<point x="318" y="314" type="line"/>
		</contour>
	</outline>
</glyph>
<glyph name="asmallcapital" format="2">
	<advance width="633"/>
	<unicode hex="1D00"/>
	<outline>
		<contour>
			<point x="318" y="358" type="line"/>
			<point x="315" y="358" type="line"/>
			<point x="496" y="-7" type="line"/>
			<point x="598" y="34" type="line"/>
			<point x="317" y="520" type="line"/>
			<point x="316" y="520" type="line"/>
			<point x="35" y="34" type="line"/>
			<point x="137" y="-7" type="line"/>
		</contour>
		<contour>
			<point x="128" y="115" type="line"/>
			<point x="509" y="115" type="line"/>
			<point x="464" y="200" type="line"/>
			<point x="173" y="200" type="line"/>
		</contour>
	</outline>
</glyph>
<glyph name="dsmallcapital" format="2">
	<advance width="556"/>
	<unicode hex="1D05"/>
	<outline>
		<contour>
			<point x="180" y="10" type="line"/>
			<point x="180" y="500" type="line"/>
			<point x="70" y="503" type="line"/>
			<point x="70" y="-3" type="line"/>
		</contour>
		<contour>
			<point x="70" y="-10" type="line"/>
			<point x="316" y="-10"/>
			<point x="521" y="127"/>
			<point x="521" y="299" type="curve"/>
			<point x="521" y="469"/>
			<point x="301" y="510"/>
			<point x="70" y="510" type="curve"/>
			<point x="70" y="425" type="line"/>
			<point x="279" y="425"/>
			<point x="411" y="396"/>
			<point x="411" y="289" type="curve"/>
			<point x="411" y="165"/>
			<point x="271" y="75"/>
			<point x="70" y="75" type="curve"/>
		</contour>
	</outline>
</glyph>
<glyph name="esmallcapital" format="2">
	<advance width="415"/>
	<unicode hex="1D07"/>
	<outline>
		<contour>
			<point x="180" y="297" type="line"/>
			<point x="180" y="415" type="line"/>
			<point x="359" y="415" type="line"/>
			<point x="359" y="500" type="line"/>
			<point x="70" y="500" type="line"/>
			<point x="70" y="0" type="line"/>
			<point x="380" y="0" type="line"/>
			<point x="380" y="85" type="line"/>
			<point x="180" y="85" type="line"/>
			<point x="180" y="212" type="line"/>
			<point x="349" y="212" type="line"/>
			<point x="349" y="297" type="line"/>
		</contour>
	</outline>
</glyph>
<glyph name="psmallcapital" format="2">
	<advance width="469"/>
	<unicode hex="1D18"/>
	<outline>
		<contour>
			<point x="70" y="118" type="line"/>
			<point x="281" y="118"/>
			<point x="434" y="226"/>
			<point x="434" y="359" type="curve"/>
			<point x="434" y="481"/>
			<point x="271" y="510"/>
			<point x="70" y="510" type="curve"/>
			<point x="70" y="425" type="line"/>
			<point x="245" y="425"/>
			<point x="324" y="403"/>
			<point x="324" y="343" type="curve"/>
			<point x="324" y="267"/>
			<point x="224" y="203"/>
			<point x="70" y="203" type="curve"/>
		</contour>
		<contour>
			<point x="180" y="0" type="line"/>
			<point x="180" y="500" type="line"/>
			<point x="70" y="503" type="line"/>
			<point x="70" y="0" type="line"/>
		</contour>
	</outline>
</glyph>
<glyph name="usmallcapital" format="2">
	<advance width="610"/>
	<unicode hex="1D1C"/>
	<outline>
		<contour>
			<point x="70" y="227" type="line"/>
			<point x="70" y="103"/>
			<point x="146" y="-10"/>
			<point x="293" y="-10" type="curve"/>
			<point x="445" y="-10"/>
			<point x="540" y="78"/>
			<point x="540" y="227" type="curve"/>
			<point x="540" y="500" type="line"/>
			<point x="430" y="500" type="line"/>
			<point x="430" y="237" type="line"/>
			<point x="430" y="139"/>
			<point x="393" y="75"/>
			<point x="293" y="75" type="curve"/>
			<point x="213" y="75"/>
			<point x="180" y="150"/>
			<point x="180" y="237" type="curve"/>
			<point x="180" y="500" type="line"/>
			<point x="70" y="500" type="line"/>
		</contour>
	</outline>
</glyph>
<glyph name="Germandbls" format="2">
	<advance width="634"/>
	<unicode hex="1E9E"/>
	<outline>
		<contour>
			<point x="376" y="429" type="curve"/>
			<point x="417" y="365" type="line"/>
			<point x="566" y="552" type="line"/>
			<point x="482" y="592" type="line"/>
			<point x="313" y="380" type="line"/>
			<point x="431" y="332"/>
			<point x="490" y="268"/>
			<point x="489" y="203" type="curve"/>
			<point x="489" y="108"/>
			<point x="387" y="79"/>
			<point x="266" y="79" type="curve"/>
			<point x="266" y="-6" type="line"/>
			<point x="436" y="-6"/>
			<point x="599" y="42"/>
			<point x="599" y="188" type="curve"/>
			<point x="599" y="285"/>
			<point x="499" y="367"/>
		</contour>
		<contour>
			<point x="180" y="0" type="line"/>
			<point x="180" y="476" type="line"/>
			<point x="70" y="476" type="line"/>
			<point x="70" y="0" type="line"/>
		</contour>
		<contour>
			<point x="566" y="552" type="line"/>
			<point x="533" y="652"/>
			<point x="450" y="710"/>
			<point x="310" y="710" type="curve"/>
			<point x="310" y="635" type="line"/>
			<point x="389" y="635"/>
			<point x="441" y="606"/>
			<point x="477" y="509" type="curve"/>
		</contour>
		<contour>
			<point x="180" y="476" type="line"/>
			<point x="180" y="585"/>
			<point x="219" y="635"/>
			<point x="310" y="635" type="curve"/>
			<point x="310" y="710" type="line"/>
			<point x="142" y="710"/>
			<point x="70" y="625"/>
			<point x="70" y="476" type="curve"/>
		</contour>
	</outline>
</glyph>
<glyph name="endash" format="2">
	<advance width="630"/>
	<unicode hex="2013"/>
	<outline>
		<contour>
			<point x="595" y="293" type="line"/>
			<point x="35" y="293" type="line"/>
			<point x="35" y="208" type="line"/>
			<point x="595" y="208" type="line"/>
		</contour>
	</outline>
</glyph>
<glyph name="quoteright" format="2">
	<advance width="245"/>
	<unicode hex="2019"/>
	<outline>
		<contour>
			<point x="35" y="472" type="line"/>
			<point x="115" y="443" type="line"/>
			<point x="210" y="675" type="line"/>
			<point x="111" y="710" type="line"/>
		</contour>
	</outline>
</glyph>
<glyph name="bullet" format="2">
	<advance width="320"/>
	<unicode hex="2022"/>
	<outline>
		<contour>
			<point x="160" y="125" type="curve"/>
			<point x="234" y="125"/>
			<point x="285" y="187"/>
			<point x="285" y="264" type="curve"/>
			<point x="285" y="320"/>
			<point x="236" y="375"/>
			<point x="160" y="375" type="curve"/>
			<point x="87" y="375"/>
			<point x="35" y="314"/>
			<point x="35" y="236" type="curve"/>
			<point x="35" y="180"/>
			<point x="84" y="125"/>
		</contour>
	</outline>
</glyph>
<glyph name="guilsinglleft" format="2">
	<advance width="239"/>
	<unicode hex="2039"/>
	<outline>
		<contour>
			<point x="204" y="92" type="line"/>
			<point x="99" y="257" type="line"/>
			<point x="99" y="244" type="line"/>
			<point x="203" y="408" type="line"/>
			<point x="146" y="448" type="line"/>
			<point x="35" y="251" type="line"/>
			<point x="35" y="250" type="line"/>
			<point x="147" y="52" type="line"/>
		</contour>
	</outline>
</glyph>
<glyph name="fraction" format="2">
	<advance width="534"/>
	<unicode hex="2044"/>
	<unicode hex="2215"/>
	<outline>
		<contour>
			<point x="84" y="-49" type="line"/>
			<point x="534" y="701" type="line"/>
			<point x="451" y="749" type="line"/>
			<point x="0" y="-2" type="line"/>
		</contour>
	</outline>
</glyph>
<glyph name="zeroinferior" format="2">
	<advance width="329"/>
	<unicode hex="2080"/>
	<outline>
		<contour>
			<point x="166" y="-110" type="curve"/>
			<point x="250" y="-110"/>
			<point x="309" y="-6"/>
			<point x="309" y="123" type="curve"/>
			<point x="309" y="218"/>
			<point x="253" y="310"/>
			<point x="166" y="310" type="curve"/>
			<point x="82" y="310"/>
			<point x="23" y="206"/>
			<point x="23" y="77" type="curve"/>
			<point x="23" y="-18"/>
			<point x="79" y="-110"/>
		</contour>
		<contour>
			<point x="166" y="-42" type="curve"/>
			<point x="133" y="-42"/>
			<point x="111" y="20"/>
			<point x="111" y="84" type="curve"/>
			<point x="111" y="172"/>
			<point x="134" y="242"/>
			<point x="166" y="242" type="curve"/>
			<point x="199" y="242"/>
			<point x="221" y="180"/>
			<point x="221" y="116" type="curve"/>
			<point x="221" y="28"/>
			<point x="198" y="-42"/>
		</contour>
	</outline>
</glyph>
<glyph name="oneinferior" format="2">
	<advance width="329"/>
	<unicode hex="2081"/>
	<outline>
		<contour>
			<point x="248" y="-100" type="line"/>
			<point x="248" y="315" type="line"/>
			<point x="247" y="315" type="line"/>
			<point x="42" y="175" type="line"/>
			<point x="77" y="117" type="line"/>
			<point x="229" y="225" type="line"/>
			<point x="161" y="224" type="line"/>
			<point x="161" y="-100" type="line"/>
		</contour>
	</outline>
</glyph>
<glyph name="twoinferior" format="2">
	<advance width="329"/>
	<unicode hex="2082"/>
	<outline>
		<contour>
			<point x="103" y="-99" type="line"/>
			<point x="199" y="-17"/>
			<point x="286" y="72"/>
			<point x="286" y="171" type="curve"/>
			<point x="286" y="259"/>
			<point x="173" y="310"/>
			<point x="52" y="310" type="curve"/>
			<point x="52" y="249" type="line"/>
			<point x="141" y="249"/>
			<point x="198" y="207"/>
			<point x="198" y="152" type="curve"/>
			<point x="198" y="79"/>
			<point x="138" y="-4"/>
			<point x="24" y="-99" type="curve"/>
			<point x="24" y="-100" type="line"/>
			<point x="303" y="-99" type="line"/>
			<point x="303" y="-32" type="line"/>
			<point x="120" y="-32" type="line"/>
		</contour>
	</outline>
</glyph>
<glyph name="threeinferior" format="2">
	<advance width="329"/>
	<unicode hex="2083"/>
	<outline>
		<contour>
			<point x="177" y="97" type="line"/>
			<point x="227" y="120"/>
			<point x="267" y="158"/>
			<point x="267" y="215" type="curve"/>
			<point x="267" y="273"/>
			<point x="163" y="310"/>
			<point x="49" y="310" type="curve"/>
			<point x="49" y="242" type="line"/>
			<point x="147" y="242"/>
			<point x="179" y="217"/>
			<point x="179" y="184" type="curve"/>
			<point x="179" y="151"/>
			<point x="167" y="130"/>
			<point x="102" y="111" type="curve"/>
			<point x="102" y="110" type="line"/>
			<point x="159" y="94"/>
			<point x="192" y="74"/>
			<point x="192" y="23" type="curve"/>
			<point x="192" y="-18"/>
			<point x="137" y="-42"/>
			<point x="34" y="-42" type="curve"/>
			<point x="34" y="-110" type="line"/>
			<point x="169" y="-110"/>
			<point x="280" y="-74"/>
			<point x="280" y="14" type="curve"/>
			<point x="280" y="83"/>
			<point x="215" y="114"/>
			<point x="177" y="124" type="curve"/>
		</contour>
	</outline>
</glyph>
<glyph name="fourinferior" format="2">
	<advance width="329"/>
	<unicode hex="2084"/>
	<outline>
		<contour>
			<point x="208" y="137" type="line"/>
			<point x="208" y="9" type="line"/>
			<point x="195" y="9" type="line"/>
			<point x="195" y="-100" type="line"/>
			<point x="283" y="-100" type="line"/>
			<point x="283" y="324" type="line"/>
			<point x="262" y="324" type="line"/>
			<point x="19" y="6" type="line"/>
			<point x="19" y="-25" type="line"/>
			<point x="316" y="-25" type="line"/>
			<point x="316" y="43" type="line"/>
			<point x="238" y="43" type="line"/>
			<point x="238" y="35" type="line"/>
			<point x="135" y="35" type="line"/>
		</contour>
	</outline>
</glyph>
<glyph name="fiveinferior" format="2">
	<advance width="329"/>
	<unicode hex="2085"/>
	<outline>
		<contour>
			<point x="293" y="233" type="line"/>
			<point x="293" y="300" type="line"/>
			<point x="64" y="300" type="line"/>
			<point x="58" y="118" type="line"/>
			<point x="149" y="118"/>
			<point x="202" y="96"/>
			<point x="202" y="60" type="curve"/>
			<point x="202" y="1"/>
			<point x="129" y="-24"/>
			<point x="33" y="-38" type="curve"/>
			<point x="43" y="-110" type="line"/>
			<point x="142" y="-100"/>
			<point x="290" y="-56"/>
			<point x="290" y="69" type="curve"/>
			<point x="290" y="128"/>
			<point x="195" y="176"/>
			<point x="101" y="176" type="curve"/>
			<point x="142" y="162" type="line"/>
			<point x="148" y="298" type="line"/>
			<point x="66" y="233" type="line"/>
		</contour>
	</outline>
</glyph>
<glyph name="sixinferior" format="2">
	<advance width="329"/>
	<unicode hex="2086"/>
	<outline>
		<contour>
			<point x="221" y="310" type="line"/>
			<point x="144" y="258"/>
			<point x="28" y="143"/>
			<point x="28" y="29" type="curve"/>
			<point x="28" y="-56"/>
			<point x="78" y="-110"/>
			<point x="157" y="-110" type="curve"/>
			<point x="237" y="-110"/>
			<point x="301" y="-64"/>
			<point x="301" y="16" type="curve"/>
			<point x="301" y="91"/>
			<point x="221" y="154"/>
			<point x="81" y="154" type="curve"/>
			<point x="81" y="86" type="line"/>
			<point x="188" y="86"/>
			<point x="214" y="62"/>
			<point x="214" y="21" type="curve"/>
			<point x="214" y="-18"/>
			<point x="191" y="-42"/>
			<point x="160" y="-42" type="curve"/>
			<point x="133" y="-42"/>
			<point x="115" y="-23"/>
			<point x="115" y="31" type="curve"/>
			<point x="115" y="112"/>
			<point x="194" y="203"/>
			<point x="267" y="253" type="curve"/>
		</contour>
	</outline>
</glyph>
<glyph name="seveninferior" format="2">
	<advance width="329"/>
	<unicode hex="2087"/>
	<outline>
		<contour>
			<point x="219" y="233" type="line"/>
			<point x="219" y="280" type="line"/>
			<point x="54" y="-83" type="line"/>
			<point x="136" y="-109" type="line"/>
			<point x="300" y="299" type="line"/>
			<point x="300" y="300" type="line"/>
			<point x="27" y="300" type="line"/>
			<point x="27" y="233" type="line"/>
		</contour>
	</outline>
</glyph>
<glyph name="eightinferior" format="2">
	<advance width="329"/>
	<unicode hex="2088"/>
	<outline>
		<contour>
			<point x="164" y="-110" type="curve"/>
			<point x="246" y="-110"/>
			<point x="305" y="-52"/>
			<point x="305" y="20" type="curve"/>
			<point x="305" y="72"/>
			<point x="246" y="125"/>
			<point x="164" y="125" type="curve"/>
			<point x="85" y="125"/>
			<point x="23" y="68"/>
			<point x="23" y="-3" type="curve"/>
			<point x="23" y="-55"/>
			<point x="79" y="-110"/>
		</contour>
		<contour>
			<point x="164" y="-42" type="curve"/>
			<point x="131" y="-42"/>
			<point x="109" y="-11"/>
			<point x="109" y="18" type="curve"/>
			<point x="109" y="58"/>
			<point x="133" y="86"/>
			<point x="164" y="86" type="curve"/>
			<point x="196" y="86"/>
			<point x="219" y="59"/>
			<point x="219" y="29" type="curve"/>
			<point x="219" y="-10"/>
			<point x="196" y="-42"/>
		</contour>
		<contour>
			<point x="164" y="101" type="curve"/>
			<point x="235" y="101"/>
			<point x="292" y="154"/>
			<point x="292" y="218" type="curve"/>
			<point x="292" y="264"/>
			<point x="242" y="310"/>
			<point x="164" y="310" type="curve"/>
			<point x="89" y="310"/>
			<point x="36" y="259"/>
			<point x="36" y="195" type="curve"/>
			<point x="36" y="148"/>
			<point x="91" y="101"/>
		</contour>
		<contour>
			<point x="164" y="141" type="curve"/>
			<point x="132" y="141"/>
			<point x="113" y="164"/>
			<point x="113" y="186" type="curve"/>
			<point x="113" y="218"/>
			<point x="134" y="242"/>
			<point x="164" y="242" type="curve"/>
			<point x="196" y="242"/>
			<point x="217" y="221"/>
			<point x="217" y="198" type="curve"/>
			<point x="217" y="167"/>
			<point x="194" y="141"/>
		</contour>
	</outline>
</glyph>
<glyph name="nineinferior" format="2">
	<advance width="329"/>
	<unicode hex="2089"/>
	<outline>
		<contour>
			<point x="108" y="-110" type="line"/>
			<point x="185" y="-58"/>
			<point x="301" y="57"/>
			<point x="301" y="171" type="curve"/>
			<point x="301" y="256"/>
			<point x="251" y="310"/>
			<point x="172" y="310" type="curve"/>
			<point x="92" y="310"/>
			<point x="28" y="264"/>
			<point x="28" y="184" type="curve"/>
			<point x="28" y="102"/>
			<point x="102" y="46"/>
			<point x="248" y="46" type="curve"/>
			<point x="248" y="114" type="line"/>
			<point x="135" y="114"/>
			<point x="115" y="131"/>
			<point x="115" y="179" type="curve"/>
			<point x="115" y="218"/>
			<point x="138" y="242"/>
			<point x="169" y="242" type="curve"/>
			<point x="196" y="242"/>
			<point x="214" y="223"/>
			<point x="214" y="169" type="curve"/>
			<point x="214" y="88"/>
			<point x="135" y="-3"/>
			<point x="62" y="-53" type="curve"/>
		</contour>
	</outline>
</glyph>
<glyph name="partialdifferential" format="2">
	<advance width="605"/>
	<unicode hex="2202"/>
	<outline>
		<contour>
			<point x="303" y="-10" type="curve"/>
			<point x="478" y="-10"/>
			<point x="570" y="108"/>
			<point x="570" y="318" type="curve"/>
			<point x="570" y="599"/>
			<point x="487" y="740"/>
			<point x="283" y="740" type="curve"/>
			<point x="225" y="740"/>
			<point x="127" y="712"/>
			<point x="63" y="674" type="curve"/>
			<point x="93" y="591" type="line"/>
			<point x="156" y="626"/>
			<point x="230" y="648"/>
			<point x="278" y="648" type="curve"/>
			<point x="398" y="648"/>
			<point x="448" y="570"/>
			<point x="455" y="409" type="curve"/>
			<point x="453" y="408" type="line"/>
			<point x="413" y="455"/>
			<point x="349" y="485"/>
			<point x="278" y="485" type="curve"/>
			<point x="125" y="485"/>
			<point x="35" y="397"/>
			<point x="35" y="250" type="curve"/>
			<point x="35" y="89"/>
			<point x="156" y="-10"/>
		</contour>
		<contour>
			<point x="303" y="70" type="curve"/>
			<point x="213" y="70"/>
			<point x="140" y="136"/>
			<point x="140" y="250" type="curve"/>
			<point x="140" y="348"/>
			<point x="207" y="410"/>
			<point x="303" y="410" type="curve"/>
			<point x="395" y="410"/>
			<point x="465" y="348"/>
			<point x="465" y="260" type="curve"/>
			<point x="465" y="141"/>
			<point x="405" y="70"/>
		</contour>
	</outline>
</glyph>
<glyph name="increment" format="2">
	<advance width="832"/>
	<unicode hex="2206"/>
	<outline>
		<contour>
			<point x="99" y="0" type="line"/>
			<point x="735" y="0" type="line"/>
			<point x="690" y="85" type="line"/>
			<point x="144" y="85" type="line"/>
		</contour>
		<contour>
			<point x="416" y="714" type="line"/>
			<point x="35" y="0" type="line"/>
			<point x="155" y="0" type="line"/>
			<point x="421" y="543" type="line"/>
			<point x="412" y="543" type="line"/>
			<point x="677" y="0" type="line"/>
			<point x="797" y="0" type="line"/>
			<point x="418" y="714" type="line"/>
		</contour>
	</outline>
</glyph>
<glyph name="naryproduct" format="2">
	<advance width="861"/>
	<unicode hex="220F"/>
	<outline>
		<contour>
			<point x="256" y="615" type="line"/>
			<point x="605" y="615" type="line"/>
			<point x="605" y="-230" type="line"/>
			<point x="715" y="-230" type="line"/>
			<point x="715" y="615" type="line"/>
			<point x="826" y="615" type="line"/>
			<point x="826" y="700" type="line"/>
			<point x="35" y="700" type="line"/>
			<point x="35" y="615" type="line"/>
			<point x="146" y="615" type="line"/>
			<point x="146" y="-230" type="line"/>
			<point x="256" y="-230" type="line"/>
		</contour>
	</outline>
</glyph>
<glyph name="narysummation" format="2">
	<advance width="678"/>
	<unicode hex="2211"/>
	<outline>
		<contour>
			<point x="496" y="233" type="line"/>
			<point x="496" y="235" type="line"/>
			<point x="226" y="621" type="line"/>
			<point x="226" y="615" type="line"/>
			<point x="643" y="615" type="line"/>
			<point x="643" y="700" type="line"/>
			<point x="35" y="701" type="line"/>
			<point x="35" y="699" type="line"/>
			<point x="366" y="229" type="line"/>
			<point x="366" y="239" type="line"/>
			<point x="35" y="-229" type="line"/>
			<point x="35" y="-230" type="line"/>
			<point x="643" y="-230" type="line"/>
			<point x="643" y="-145" type="line"/>
			<point x="226" y="-145" type="line"/>
			<point x="226" y="-150" type="line"/>
		</contour>
	</outline>
</glyph>
<glyph name="squareroot" format="2">
	<advance width="847"/>
	<unicode hex="221A"/>
	<outline>
		<contour>
			<point x="416" y="-134" type="line"/>
			<point x="837" y="810" type="line"/>
			<point x="732" y="810" type="line"/>
			<point x="403" y="37" type="line"/>
			<point x="428" y="37" type="line"/>
			<point x="248" y="445" type="line"/>
			<point x="35" y="330" type="line"/>
			<point x="71" y="265" type="line"/>
			<point x="220" y="347" type="line"/>
			<point x="181" y="362" type="line"/>
			<point x="414" y="-134" type="line"/>
		</contour>
	</outline>
</glyph>
<glyph name="infinity" format="2">
	<advance width="922"/>
	<unicode hex="221E"/>
	<outline>
		<contour>
			<point x="604" y="45" type="curve"/>
			<point x="718" y="45"/>
			<point x="802" y="138"/>
			<point x="802" y="260" type="curve"/>
			<point x="802" y="389"/>
			<point x="721" y="475"/>
			<point x="604" y="475" type="curve"/>
			<point x="524" y="475"/>
			<point x="463" y="431"/>
			<point x="423" y="343" type="curve"/>
			<point x="421" y="343" type="line"/>
			<point x="375" y="431"/>
			<point x="311" y="475"/>
			<point x="229" y="475" type="curve"/>
			<point x="115" y="475"/>
			<point x="32" y="391"/>
			<point x="32" y="260" type="curve"/>
			<point x="32" y="131"/>
			<point x="113" y="45"/>
			<point x="229" y="45" type="curve"/>
			<point x="309" y="45"/>
			<point x="370" y="89"/>
			<point x="411" y="178" type="curve"/>
			<point x="413" y="178" type="line"/>
			<point x="458" y="89"/>
			<point x="522" y="45"/>
		</contour>
		<contour>
			<point x="232" y="135" type="curve"/>
			<point x="159" y="135"/>
			<point x="114" y="185"/>
			<point x="114" y="260" type="curve"/>
			<point x="114" y="336"/>
			<point x="159" y="385"/>
			<point x="232" y="385" type="curve"/>
			<point x="294" y="385"/>
			<point x="347" y="340"/>
			<point x="374" y="255" type="curve"/>
			<point x="347" y="176"/>
			<point x="297" y="135"/>
		</contour>
		<contour>
			<point x="602" y="135" type="curve"/>
			<point x="539" y="135"/>
			<point x="486" y="180"/>
			<point x="459" y="265" type="curve"/>
			<point x="486" y="345"/>
			<point x="536" y="385"/>
			<point x="602" y="385" type="curve"/>
			<point x="675" y="385"/>
			<point x="719" y="335"/>
			<point x="719" y="260" type="curve"/>
			<point x="719" y="193"/>
			<point x="673" y="135"/>
		</contour>
	</outline>
</glyph>
<glyph name="integral" format="2">
	<advance width="583"/>
	<unicode hex="222B"/>
	<outline>
		<contour>
			<point x="147" y="-230" type="curve"/>
			<point x="256" y="-230"/>
			<point x="320" y="-169"/>
			<point x="327" y="-65" type="curve"/>
			<point x="372" y="562" type="line"/>
			<point x="376" y="618"/>
			<point x="401" y="645"/>
			<point x="447" y="645" type="curve"/>
			<point x="477" y="645"/>
			<point x="506" y="641"/>
			<point x="535" y="633" type="curve"/>
			<point x="548" y="725" type="line"/>
			<point x="510" y="735"/>
			<point x="473" y="740"/>
			<point x="437" y="740" type="curve"/>
			<point x="328" y="740"/>
			<point x="264" y="680"/>
			<point x="257" y="576" type="curve"/>
			<point x="212" y="-52" type="line"/>
			<point x="208" y="-107"/>
			<point x="183" y="-135"/>
			<point x="137" y="-135" type="curve"/>
			<point x="107" y="-135"/>
			<point x="77" y="-131"/>
			<point x="48" y="-123" type="curve"/>
			<point x="35" y="-214" type="line"/>
			<point x="73" y="-225"/>
			<point x="110" y="-230"/>
		</contour>
	</outline>
</glyph>
<glyph name="almostequalto" format="2">
	<advance width="670"/>
	<unicode hex="2248"/>
	<outline>
		<contour>
			<point x="456" y="78" type="curve"/>
			<point x="530" y="78"/>
			<point x="590" y="116"/>
			<point x="635" y="192" type="curve"/>
			<point x="576" y="248" type="line"/>
			<point x="537" y="190"/>
			<point x="502" y="166"/>
			<point x="456" y="166" type="curve"/>
			<point x="424" y="166"/>
			<point x="392" y="182"/>
			<point x="359" y="215" type="curve"/>
			<point x="314" y="260"/>
			<point x="266" y="283"/>
			<point x="214" y="283" type="curve"/>
			<point x="140" y="283"/>
			<point x="81" y="245"/>
			<point x="35" y="169" type="curve"/>
			<point x="94" y="113" type="line"/>
			<point x="134" y="171"/>
			<point x="169" y="195"/>
			<point x="214" y="195" type="curve"/>
			<point x="246" y="195"/>
			<point x="279" y="178"/>
			<point x="312" y="145" type="curve"/>
			<point x="357" y="100"/>
			<point x="404" y="78"/>
		</contour>
		<contour>
			<point x="456" y="298" type="curve"/>
			<point x="530" y="298"/>
			<point x="590" y="336"/>
			<point x="635" y="412" type="curve"/>
			<point x="576" y="468" type="line"/>
			<point x="537" y="410"/>
			<point x="502" y="386"/>
			<point x="456" y="386" type="curve"/>
			<point x="424" y="386"/>
			<point x="392" y="402"/>
			<point x="359" y="435" type="curve"/>
			<point x="314" y="480"/>
			<point x="266" y="503"/>
			<point x="214" y="503" type="curve"/>
			<point x="140" y="503"/>
			<point x="81" y="465"/>
			<point x="35" y="389" type="curve"/>
			<point x="94" y="333" type="line"/>
			<point x="134" y="391"/>
			<point x="169" y="415"/>
			<point x="214" y="415" type="curve"/>
			<point x="246" y="415"/>
			<point x="279" y="398"/>
			<point x="312" y="365" type="curve"/>
			<point x="357" y="320"/>
			<point x="404" y="298"/>
		</contour>
	</outline>
</glyph>
<glyph name="threeemdash" format="2">
	<advance width="3000"/>
	<unicode hex="2E3B"/>
	<outline>
		<contour>
			<point x="2965" y="293" type="line"/>
			<point x="35" y="293" type="line"/>
			<point x="35" y="208" type="line"/>
			<point x="2965" y="208" type="line"/>
		</contour>
	</outline>
</glyph>
<glyph name="fsmallcapital" format="2">
	<advance width="394"/>
	<unicode hex="A730"/>
	<outline>
		<contour>
			<point x="180" y="272" type="line"/>
			<point x="180" y="415" type="line"/>
			<point x="359" y="415" type="line"/>
			<point x="359" y="500" type="line"/>
			<point x="70" y="500" type="line"/>
			<point x="70" y="0" type="line"/>
			<point x="180" y="0" type="line"/>
			<point x="180" y="187" type="line"/>
			<point x="348" y="187" type="line"/>
			<point x="348" y="272" type="line"/>
		</contour>
	</outline>
</glyph>
<glyph name="uF000" format="2">
	<advance width="1150"/>
	<unicode hex="F000"/>
	<outline>
		<contour>
			<point x="1081" y="350" type="line"/>
			<point x="1030" y="474"/>
			<point x="865" y="586"/>
			<point x="697" y="586" type="curve"/>
			<point x="557" y="586"/>
			<point x="449" y="531"/>
			<point x="400" y="480" type="curve"/>
			<point x="400" y="350" type="line"/>
			<point x="620" y="350" type="line"/>
			<point x="620" y="480" type="line"/>
			<point x="850" y="350" type="line"/>
		</contour>
		<contour>
			<point x="500" y="593" type="curve"/>
			<point x="500" y="660" type="line"/>
			<point x="251" y="660" type="line"/>
			<point x="400" y="590" type="line"/>
			<point x="400" y="530" type="line"/>
			<point x="435" y="563"/>
			<point x="466" y="581"/>
		</contour>
		<contour>
			<point x="350" y="350" type="line"/>
			<point x="350" y="476" type="line"/>
			<point x="260" y="446" type="line"/>
			<point x="260" y="350" type="line"/>
		</contour>
		<contour>
			<point x="549" y="660" type="line"/>
			<point x="549" y="606" type="line"/>
			<point x="593" y="616"/>
			<point x="645" y="621"/>
			<point x="697" y="621" type="curve"/>
		</contour>
		<contour>
			<point x="697" y="114" type="curve"/>
			<point x="864" y="114"/>
			<point x="1030" y="225"/>
			<point x="1081" y="350" type="curve"/>
			<point x="850" y="350" type="line"/>
			<point x="620" y="220" type="line"/>
			<point x="620" y="350" type="line"/>
			<point x="400" y="350" type="line"/>
			<point x="400" y="220" type="line"/>
			<point x="449" y="169"/>
			<point x="557" y="114"/>
		</contour>
		<contour>
			<point x="500" y="107" type="line"/>
			<point x="466" y="120"/>
			<point x="435" y="138"/>
			<point x="400" y="170" type="curve"/>
			<point x="400" y="110" type="line"/>
			<point x="251" y="40" type="line"/>
			<point x="500" y="40" type="line"/>
		</contour>
		<contour>
			<point x="350" y="224" type="line"/>
			<point x="350" y="350" type="line"/>
			<point x="260" y="350" type="line"/>
			<point x="260" y="254" type="line"/>
		</contour>
		<contour>
			<point x="549" y="40" type="line"/>
			<point x="697" y="79" type="line"/>
			<point x="645" y="79"/>
			<point x="593" y="84"/>
			<point x="549" y="94" type="curve"/>
		</contour>
		<contour>
			<point x="221" y="350" type="line"/>
			<point x="221" y="364" type="line"/>
			<point x="218" y="367"/>
			<point x="212" y="369"/>
			<point x="206" y="369" type="curve"/>
			<point x="193" y="369"/>
			<point x="184" y="363"/>
			<point x="178" y="350" type="curve"/>
		</contour>
		<contour>
			<point x="131" y="350" type="line"/>
			<point x="143" y="372"/>
			<point x="170" y="398"/>
			<point x="196" y="398" type="curve"/>
			<point x="201" y="398"/>
			<point x="210" y="397"/>
			<point x="221" y="391" type="curve"/>
			<point x="221" y="398" type="line"/>
			<point x="212" y="403"/>
			<point x="200" y="406"/>
			<point x="185" y="406" type="curve"/>
			<point x="146" y="406"/>
			<point x="96" y="383"/>
			<point x="70" y="350" type="curve"/>
		</contour>
		<contour>
			<point x="221" y="350" type="line"/>
			<point x="178" y="350" type="line"/>
			<point x="184" y="338"/>
			<point x="193" y="332"/>
			<point x="206" y="332" type="curve"/>
			<point x="212" y="332"/>
			<point x="218" y="333"/>
			<point x="221" y="336" type="curve"/>
		</contour>
		<contour>
			<point x="131" y="350" type="curve"/>
			<point x="70" y="350" type="line"/>
			<point x="96" y="317"/>
			<point x="146" y="295"/>
			<point x="185" y="295" type="curve"/>
			<point x="200" y="295"/>
			<point x="212" y="297"/>
			<point x="221" y="302" type="curve"/>
			<point x="221" y="309" type="line"/>
			<point x="210" y="303"/>
			<point x="201" y="303"/>
			<point x="196" y="303" type="curve"/>
			<point x="170" y="303"/>
			<point x="143" y="329"/>
		</contour>
	</outline>
</glyph>
<glyph name="Longs" format="2">
	<advance width="360"/>
	<outline>
		<contour>
			<point x="301" y="710" type="line"/>
			<point x="162" y="682"/>
			<point x="70" y="609"/>
			<point x="70" y="437" type="curve"/>
			<point x="70" y="0" type="line"/>
			<point x="180" y="0" type="line"/>
			<point x="180" y="437" type="line"/>
			<point x="180" y="541"/>
			<point x="215" y="599"/>
			<point x="325" y="625" type="curve"/>
		</contour>
	</outline>
</glyph>
<glyph name="__AE" format="2">
	<advance width="982"/>
	<outline>
		<contour>
			<point x="115" y="-10" type="line"/>
			<point x="622" y="663" type="line"/>
			<point x="556" y="700" type="line"/>
			<point x="35" y="50" type="line"/>
		</contour>
	</outline>
</glyph>
<glyph name="__AE_2" format="2">
	<advance width="982"/>
	<outline>
		<contour>
			<point x="189" y="171" type="line"/>
			<point x="606" y="171" type="line"/>
			<point x="606" y="256" type="line"/>
			<point x="254" y="256" type="line"/>
		</contour>
	</outline>
</glyph>
<glyph name="__Be-cyrl" format="2">
	<advance width="559"/>
	<outline>
		<contour>
			<point x="70" y="700" type="line"/>
			<point x="70" y="0" type="line"/>
			<point x="180" y="5" type="line"/>
			<point x="180" y="700" type="line"/>
		</contour>
		<contour>
			<point x="71" y="-10" type="line"/>
			<point x="389" y="-10"/>
			<point x="524" y="97"/>
			<point x="524" y="219" type="curve"/>
			<point x="524" y="341"/>
			<point x="374" y="412"/>
			<point x="71" y="412" type="curve"/>
			<point x="71" y="327" type="line"/>
			<point x="335" y="327"/>
			<point x="413" y="288"/>
			<point x="413" y="219" type="curve"/>
			<point x="413" y="148"/>
			<point x="324" y="75"/>
			<point x="71" y="75" type="curve"/>
		</contour>
	</outline>
</glyph>
<glyph name="__Dje-cyrl" format="2">
	<advance width="847"/>
	<outline>
		<contour>
			<point x="491" y="-10" type="line"/>
			<point x="678" y="-10"/>
			<point x="812" y="105"/>
			<point x="812" y="234" type="curve"/>
			<point x="812" y="353"/>
			<point x="663" y="443"/>
			<point x="361" y="443" type="curve"/>
			<point x="361" y="358" type="line"/>
			<point x="624" y="358"/>
			<point x="702" y="300"/>
			<point x="702" y="234" type="curve"/>
			<point x="702" y="153"/>
			<point x="611" y="75"/>
			<point x="491" y="75" type="curve"/>
		</contour>
	</outline>
</glyph>
<glyph name="__Dtopbar" format="2">
	<advance width="559"/>
	<outline>
		<contour>
			<point x="489" y="700" type="line"/>
			<point x="379" y="700" type="line"/>
			<point x="379" y="5" type="line"/>
			<point x="489" y="0" type="line"/>
		</contour>
		<contour>
			<point x="488" y="412" type="line"/>
			<point x="170" y="412"/>
			<point x="35" y="280"/>
			<point x="35" y="158" type="curve"/>
			<point x="35" y="36"/>
			<point x="185" y="-10"/>
			<point x="488" y="-10" type="curve"/>
			<point x="488" y="75" type="line"/>
			<point x="244" y="75"/>
			<point x="146" y="99"/>
			<point x="146" y="173" type="curve"/>
			<point x="146" y="247"/>
			<point x="225" y="327"/>
			<point x="488" y="327" type="curve"/>
		</contour>
	</outline>
</glyph>
<glyph name="__El-cyrl" format="2">
	<advance width="721"/>
	<outline>
		<contour>
			<point x="131" y="-10" type="line"/>
			<point x="477" y="629" type="line"/>
			<point x="423" y="700" type="line"/>
			<point x="35" y="49" type="line"/>
		</contour>
		<contour>
			<point x="651" y="700" type="line"/>
			<point x="423" y="700" type="line"/>
			<point x="423" y="615" type="line"/>
			<point x="651" y="615" type="line"/>
		</contour>
	</outline>
</glyph>
<glyph name="__Eth" format="2">
	<advance width="738"/>
	<outline>
		<contour>
			<point x="400" y="388" type="line"/>
			<point x="35" y="388" type="line"/>
			<point x="35" y="333" type="line"/>
			<point x="400" y="333" type="line"/>
		</contour>
	</outline>
</glyph>
<glyph name="__Gheupturn-cyrl" format="2">
	<advance width="526"/>
	<outline>
		<contour>
			<point x="491" y="615" type="line"/>
			<point x="491" y="850" type="line"/>
			<point x="381" y="850" type="line"/>
			<point x="381" y="615" type="line"/>
		</contour>
	</outline>
</glyph>
<glyph name="__Hbar" format="2">
	<advance width="882"/>
	<outline>
		<contour>
			<point x="35" y="558" type="line"/>
			<point x="852" y="558" type="line"/>
			<point x="852" y="613" type="line"/>
			<point x="35" y="613" type="line"/>
		</contour>
	</outline>
</glyph>
<glyph name="__Nje-cyrl" format="2">
	<advance width="969"/>
	<outline>
		<contour>
			<point x="180" y="329" type="line"/>
			<point x="516" y="329" type="line"/>
			<point x="516" y="414" type="line"/>
			<point x="180" y="414" type="line"/>
			<point x="180" y="700" type="line"/>
			<point x="70" y="700" type="line"/>
			<point x="70" y="0" type="line"/>
			<point x="180" y="0" type="line"/>
		</contour>
	</outline>
</glyph>
<glyph name="__Oslash" format="2">
	<advance width="770"/>
	<outline>
		<contour>
			<point x="109" y="-27" type="line"/>
			<point x="703" y="696" type="line"/>
			<point x="662" y="727" type="line"/>
			<point x="66" y="5" type="line"/>
		</contour>
	</outline>
</glyph>
<glyph name="__Signhard-cyrl" format="2">
	<advance width="697"/>
	<outline>
		<contour>
			<point x="344" y="700" type="line"/>
			<point x="35" y="700" type="line"/>
			<point x="35" y="615" type="line"/>
			<point x="344" y="615" type="line"/>
		</contour>
	</outline>
</glyph>
<glyph name="__Theta-grek" format="2">
	<advance width="770"/>
	<outline>
		<contour>
			<point x="515" y="393" type="line"/>
			<point x="255" y="393" type="line"/>
			<point x="255" y="308" type="line"/>
			<point x="515" y="308" type="line"/>
		</contour>
	</outline>
</glyph>
<glyph name="__Tse-cyrl" format="2">
	<advance width="800"/>
	<outline>
		<contour>
			<point x="642" y="0" type="line"/>
			<point x="642" y="700" type="line"/>
			<point x="532" y="700" type="line"/>
			<point x="532" y="85" type="line"/>
			<point x="180" y="85" type="line"/>
			<point x="180" y="700" type="line"/>
			<point x="70" y="700" type="line"/>
			<point x="70" y="0" type="line"/>
		</contour>
	</outline>
</glyph>
<glyph name="__Tse-cyrl_2" format="2">
	<advance width="800"/>
	<outline>
		<contour>
			<point x="765" y="85" type="line"/>
			<point x="584" y="85" type="line"/>
			<point x="584" y="0" type="line"/>
			<point x="655" y="0" type="line"/>
			<point x="655" y="-150" type="line"/>
			<point x="765" y="-150" type="line"/>
		</contour>
	</outline>
</glyph>
<glyph name="__Tshe-cyrl" format="2">
	<advance width="866"/>
	<outline>
		<contour>
			<point x="796" y="187" type="line"/>
			<point x="796" y="343"/>
			<point x="709" y="450"/>
			<point x="558" y="450" type="curve"/>
			<point x="461" y="450"/>
			<point x="397" y="429"/>
			<point x="356" y="390" type="curve"/>
			<point x="356" y="306" type="line"/>
			<point x="403" y="349"/>
			<point x="463" y="365"/>
			<point x="528" y="365" type="curve"/>
			<point x="621" y="365"/>
			<point x="686" y="299"/>
			<point x="686" y="187" type="curve"/>
			<point x="686" y="0" type="line"/>
			<point x="796" y="0" type="line"/>
		</contour>
	</outline>
</glyph>
<glyph name="__cent" format="2">
	<advance width="477"/>
	<outline>
		<contour>
			<point x="295" y="434" type="line"/>
			<point x="295" y="600" type="line"/>
			<point x="225" y="600" type="line"/>
			<point x="225" y="429" type="line"/>
		</contour>
		<contour>
			<point x="225" y="56" type="line"/>
			<point x="225" y="-100" type="line"/>
			<point x="295" y="-100" type="line"/>
			<point x="295" y="56" type="line"/>
		</contour>
	</outline>
</glyph>
<glyph name="__copyright" format="2">
	<advance width="830"/>
	<outline>
		<contour>
			<point x="415" y="-20" type="curve"/>
			<point x="631" y="-20"/>
			<point x="795" y="141"/>
			<point x="795" y="350" type="curve"/>
			<point x="795" y="558"/>
			<point x="632" y="720"/>
			<point x="415" y="720" type="curve"/>
			<point x="199" y="720"/>
			<point x="35" y="559"/>
			<point x="35" y="350" type="curve"/>
			<point x="35" y="142"/>
			<point x="198" y="-20"/>
		</contour>
		<contour>
			<point x="415" y="52" type="curve"/>
			<point x="240" y="52"/>
			<point x="107" y="180"/>
			<point x="107" y="350" type="curve"/>
			<point x="107" y="517"/>
			<point x="238" y="648"/>
			<point x="415" y="648" type="curve"/>
			<point x="590" y="648"/>
			<point x="723" y="520"/>
			<point x="723" y="350" type="curve"/>
			<point x="723" y="183"/>
			<point x="592" y="52"/>
		</contour>
	</outline>
</glyph>
<glyph name="__copyright_2" format="2">
	<advance width="830"/>
	<outline>
		<contour>
			<point x="524" y="560" type="line"/>
			<point x="349" y="560"/>
			<point x="229" y="432"/>
			<point x="229" y="300" type="curve"/>
			<point x="229" y="209"/>
			<point x="310" y="160"/>
			<point x="421" y="160" type="curve"/>
			<point x="472" y="160"/>
			<point x="508" y="163"/>
			<point x="541" y="175" type="curve"/>
			<point x="534" y="242" type="line"/>
			<point x="502" y="231"/>
			<point x="474" y="228"/>
			<point x="437" y="228" type="curve"/>
			<point x="382" y="228"/>
			<point x="315" y="257"/>
			<point x="315" y="313" type="curve"/>
			<point x="315" y="408"/>
			<point x="408" y="493"/>
			<point x="524" y="493" type="curve"/>
		</contour>
	</outline>
</glyph>
<glyph name="__dcroat" format="2">
	<advance width="620"/>
	<outline>
		<contour>
			<point x="195" y="588" type="line"/>
			<point x="585" y="588" type="line"/>
			<point x="585" y="643" type="line"/>
			<point x="195" y="643" type="line"/>
		</contour>
	</outline>
</glyph>
<glyph name="__dollar" format="2">
	<advance width="402"/>
	<outline>
		<contour>
			<point x="205" y="624" type="line"/>
			<point x="205" y="800" type="line"/>
			<point x="135" y="800" type="line"/>
			<point x="135" y="619" type="line"/>
		</contour>
		<contour>
			<point x="205" y="76" type="line"/>
			<point x="205" y="-100" type="line"/>
			<point x="275" y="-100" type="line"/>
			<point x="275" y="81" type="line"/>
		</contour>
	</outline>
</glyph>
<glyph name="__el-cyrl" format="2">
	<advance width="576"/>
	<outline>
		<contour>
			<point x="131" y="-10" type="line"/>
			<point x="374" y="447" type="line"/>
			<point x="312" y="500" type="line"/>
			<point x="35" y="49" type="line"/>
		</contour>
		<contour>
			<point x="506" y="500" type="line"/>
			<point x="312" y="500" type="line"/>
			<point x="312" y="415" type="line"/>
			<point x="506" y="415" type="line"/>
		</contour>
	</outline>
</glyph>
<glyph name="__eng" format="2">
	<advance width="632"/>
	<outline>
		<contour>
			<point x="354" y="-239" type="line"/>
			<point x="455" y="-222"/>
			<point x="562" y="-137"/>
			<point x="562" y="0" type="curve"/>
			<point x="562" y="200" type="line"/>
			<point x="452" y="200" type="line"/>
			<point x="452" y="20" type="line"/>
			<point x="452" y="-89"/>
			<point x="403" y="-137"/>
			<point x="327" y="-154" type="curve"/>
		</contour>
	</outline>
</glyph>
<glyph name="__f" format="2">
	<advance width="405"/>
	<outline>
		<contour>
			<point x="356" y="500" type="line"/>
			<point x="35" y="500" type="line"/>
			<point x="35" y="415" type="line"/>
			<point x="356" y="415" type="line"/>
		</contour>
	</outline>
</glyph>
<glyph name="__lshash" format="2">
	<advance width="436"/>
	<outline>
		<contour>
			<point x="63" y="282" type="line"/>
			<point x="401" y="477" type="line"/>
			<point x="374" y="525" type="line"/>
			<point x="35" y="330" type="line"/>
		</contour>
	</outline>
</glyph>
<glyph name="__nje-cyrl" format="2">
	<advance width="823"/>
	<outline>
		<contour>
			<point x="180" y="223" type="line"/>
			<point x="405" y="223" type="line"/>
			<point x="405" y="308" type="line"/>
			<point x="180" y="308" type="line"/>
			<point x="180" y="500" type="line"/>
			<point x="70" y="500" type="line"/>
			<point x="70" y="0" type="line"/>
			<point x="180" y="0" type="line"/>
		</contour>
	</outline>
</glyph>
<glyph name="__oslash" format="2">
	<advance width="576"/>
	<outline>
		<contour>
			<point x="95" y="-27" type="line"/>
			<point x="154" y="44" type="line"/>
			<point x="187" y="84" type="line"/>
			<point x="421" y="369" type="line"/>
			<point x="452" y="408" type="line"/>
			<point x="524" y="495" type="line"/>
			<point x="482" y="527" type="line"/>
			<point x="412" y="443" type="line"/>
			<point x="386" y="411" type="line"/>
			<point x="144" y="118" type="line"/>
			<point x="113" y="80" type="line"/>
			<point x="51" y="5" type="line"/>
		</contour>
	</outline>
</glyph>
<glyph name="__qsmallcapital" format="2">
	<advance width="596"/>
	<outline>
		<contour>
			<point x="327" y="32" type="line"/>
			<point x="295" y="-3" type="line"/>
			<point x="535" y="-99" type="line"/>
			<point x="561" y="-18" type="line"/>
		</contour>
	</outline>
</glyph>
<glyph name="__registered" format="2">
	<advance width="830"/>
	<outline>
		<contour>
			<point x="374" y="149" type="line"/>
			<point x="374" y="537" type="line"/>
			<point x="287" y="537" type="line"/>
			<point x="287" y="149" type="line"/>
		</contour>
		<contour>
			<point x="432" y="294" type="line"/>
			<point x="497" y="315"/>
			<point x="569" y="367"/>
			<point x="569" y="437" type="curve"/>
			<point x="569" y="519"/>
			<point x="460" y="545"/>
			<point x="287" y="545" type="curve"/>
			<point x="287" y="477" type="line"/>
			<point x="432" y="477"/>
			<point x="482" y="466"/>
			<point x="482" y="413" type="curve"/>
			<point x="482" y="376"/>
			<point x="453" y="346"/>
			<point x="390" y="322" type="curve"/>
			<point x="531" y="145" type="line"/>
			<point x="608" y="191" type="line"/>
			<point x="462" y="340" type="line"/>
		</contour>
	</outline>
</glyph>
<glyph name="__signhard-cyrl" format="2">
	<advance width="598"/>
	<outline>
		<contour>
			<point x="280" y="500" type="line"/>
			<point x="35" y="500" type="line"/>
			<point x="35" y="415" type="line"/>
			<point x="280" y="415" type="line"/>
		</contour>
	</outline>
</glyph>
<glyph name="__sterling" format="2">
	<advance width="456"/>
	<outline>
		<contour>
			<point x="421" y="85" type="line"/>
			<point x="35" y="85" type="line"/>
			<point x="35" y="0" type="line"/>
			<point x="421" y="0" type="line"/>
		</contour>
		<contour>
			<point x="62" y="5" type="line"/>
			<point x="163" y="22"/>
			<point x="255" y="112"/>
			<point x="255" y="249" type="curve"/>
			<point x="255" y="365" type="line"/>
			<point x="145" y="365" type="line"/>
			<point x="145" y="259" type="line"/>
			<point x="145" y="150"/>
			<point x="111" y="102"/>
			<point x="35" y="85" type="curve"/>
		</contour>
		<contour>
			<point x="386" y="740" type="line"/>
			<point x="237" y="712"/>
			<point x="145" y="639"/>
			<point x="145" y="467" type="curve"/>
			<point x="145" y="365" type="line"/>
			<point x="255" y="365" type="line"/>
			<point x="255" y="467" type="line"/>
			<point x="255" y="571"/>
			<point x="275" y="624"/>
			<point x="400" y="650" type="curve"/>
		</contour>
	</outline>
</glyph>
<glyph name="__sterling_2" format="2">
	<advance width="456"/>
	<outline>
		<contour>
			<point x="381" y="415" type="line"/>
			<point x="70" y="415" type="line"/>
			<point x="70" y="345" type="line"/>
			<point x="381" y="345" type="line"/>
		</contour>
	</outline>
</glyph>
<glyph name="__tbar" format="2">
	<advance width="376"/>
	<outline>
		<contour>
			<point x="341" y="298" type="line"/>
			<point x="35" y="298" type="line"/>
			<point x="35" y="243" type="line"/>
			<point x="341" y="243" type="line"/>
		</contour>
	</outline>
</glyph>
<glyph name="__tse-cyrl" format="2">
	<advance width="768"/>
	<outline>
		<contour>
			<point x="507" y="0" type="line"/>
			<point x="507" y="500" type="line"/>
			<point x="397" y="500" type="line"/>
			<point x="397" y="85" type="line"/>
			<point x="180" y="85" type="line"/>
			<point x="180" y="500" type="line"/>
			<point x="70" y="500" type="line"/>
			<point x="70" y="0" type="line"/>
		</contour>
	</outline>
</glyph>
<glyph name=".notdef" format="2">
	<advance width="504"/>
	<outline>
		<contour>
			<point x="265" y="173" type="line"/>
			<point x="257" y="198"/>
			<point x="255" y="210"/>
			<point x="255" y="221" type="curve"/>
			<point x="255" y="232"/>
			<point x="257" y="238"/>
			<point x="259" y="244" type="curve"/>
			<point x="265" y="260"/>
			<point x="275" y="275"/>
			<point x="292" y="294" type="curve"/>
			<point x="349" y="356" type="line"/>
			<point x="369" y="377"/>
			<point x="388" y="401"/>
			<point x="402" y="425" type="curve"/>
			<point x="418" y="448"/>
			<point x="430" y="472"/>
			<point x="436" y="492" type="curve"/>
			<point x="444" y="512"/>
			<point x="447" y="538"/>
			<point x="447" y="563" type="curve"/>
			<point x="447" y="616"/>
			<point x="430" y="662"/>
			<point x="397" y="693" type="curve"/>
			<point x="365" y="724"/>
			<point x="315" y="740"/>
			<point x="254" y="740" type="curve"/>
			<point x="196" y="740"/>
			<point x="133" y="715"/>
			<point x="58" y="655" type="curve"/>
			<point x="113" y="588" type="line"/>
			<point x="174" y="639"/>
			<point x="212" y="656"/>
			<point x="248" y="656" type="curve"/>
			<point x="283" y="656"/>
			<point x="307" y="648"/>
			<point x="327" y="631" type="curve"/>
			<point x="347" y="613"/>
			<point x="355" y="593"/>
			<point x="355" y="560" type="curve"/>
			<point x="355" y="541"/>
			<point x="355" y="526"/>
			<point x="352" y="515" type="curve"/>
			<point x="349" y="503"/>
			<point x="343" y="488"/>
			<point x="331" y="467" type="curve"/>
			<point x="320" y="446"/>
			<point x="305" y="427"/>
			<point x="283" y="407" type="curve"/>
			<point x="260" y="384"/>
			<point x="239" y="362"/>
			<point x="219" y="340" type="curve"/>
			<point x="199" y="316"/>
			<point x="183" y="293"/>
			<point x="174" y="271" type="curve"/>
			<point x="169" y="258"/>
			<point x="166" y="241"/>
			<point x="166" y="223" type="curve"/>
			<point x="166" y="208"/>
			<point x="168" y="192"/>
			<point x="174" y="173" type="curve"/>
		</contour>
		<contour>
			<point x="215" y="-33" type="curve"/>
			<point x="247" y="-33"/>
			<point x="280" y="-3"/>
			<point x="280" y="33" type="curve"/>
			<point x="280" y="65"/>
			<point x="250" y="98"/>
			<point x="215" y="98" type="curve"/>
			<point x="183" y="98"/>
			<point x="149" y="67"/>
			<point x="149" y="33" type="curve"/>
			<point x="149" y="-3"/>
			<point x="184" y="-33"/>
		</contour>
	</outline>
</glyph>
<glyph name="acutecombsmall" format="2">
	<advance width="0"/>
	<outline>
		<contour>
			<point x="36" y="599" type="line"/>
			<point x="71" y="570" type="line"/>
			<point x="213" y="709" type="line"/>
			<point x="148" y="764" type="line"/>
		</contour>
	</outline>
</glyph>
<glyph name="gravecombsmall" format="2">
	<advance width="0"/>
	<outline>
		<contour>
			<point x="212" y="599" type="line"/>
			<point x="100" y="764" type="line"/>
			<point x="36" y="709" type="line"/>
			<point x="177" y="570" type="line"/>
		</contour>
	</outline>
</glyph>
<glyph name="hookcombsmall" format="2">
	<advance width="0"/>
	<outline>
		<contour>
			<point x="113" y="691" type="line"/>
			<point x="160" y="691" type="line"/>
			<point x="160" y="716" type="line"/>
			<point x="134" y="703" type="line"/>
			<point x="181" y="703"/>
			<point x="227" y="722"/>
			<point x="227" y="774" type="curve"/>
			<point x="227" y="831"/>
			<point x="142" y="862"/>
			<point x="57" y="866" type="curve"/>
			<point x="55" y="820" type="line"/>
			<point x="127" y="817"/>
			<point x="157" y="791"/>
			<point x="157" y="772" type="curve"/>
			<point x="157" y="748"/>
			<point x="133" y="734"/>
			<point x="113" y="734" type="curve"/>
		</contour>
	</outline>
</glyph>
<glyph name="middotcomb" format="2">
	<advance width="0"/>
	<outline>
		<contour>
			<point x="108" y="183" type="curve"/>
			<point x="148" y="183"/>
			<point x="176" y="216"/>
			<point x="176" y="257" type="curve"/>
			<point x="176" y="288"/>
			<point x="149" y="318"/>
			<point x="108" y="318" type="curve"/>
			<point x="69" y="318"/>
			<point x="41" y="284"/>
			<point x="41" y="243" type="curve"/>
			<point x="41" y="212"/>
			<point x="67" y="183"/>
		</contour>
	</outline>
</glyph>
<glyph name="one.osf" format="2">
	<advance width="525"/>
	<outline>
		<contour>
			<point x="402" y="0" type="line"/>
			<point x="402" y="520" type="line"/>
			<point x="401" y="520" type="line"/>
			<point x="68" y="336" type="line"/>
			<point x="100" y="255" type="line"/>
			<point x="385" y="422" type="line"/>
			<point x="292" y="422" type="line"/>
			<point x="292" y="0" type="line"/>
		</contour>
	</outline>
</glyph>
<glyph name="primecomb" format="2">
	<advance width="0"/>
	<outline>
		<contour>
			<point x="0" y="492" type="line"/>
			<point x="42" y="477" type="line"/>
			<point x="138" y="681" type="line"/>
			<point x="58" y="710" type="line"/>
		</contour>
	</outline>
</glyph>
<glyph name="two.osf" format="2">
	<advance width="575"/>
	<outline>
		<contour>
			<point x="176" y="0" type="line"/>
			<point x="333" y="83"/>
			<point x="496" y="215"/>
			<point x="496" y="337" type="curve"/>
			<point x="496" y="447"/>
			<point x="302" y="510"/>
			<point x="93" y="510" type="curve"/>
			<point x="93" y="425" type="line"/>
			<point x="282" y="425"/>
			<point x="386" y="373"/>
			<point x="386" y="308" type="curve"/>
			<point x="386" y="223"/>
			<point x="235" y="104"/>
			<point x="43" y="1" type="curve"/>
			<point x="43" y="0" type="line"/>
			<point x="526" y="0" type="line"/>
			<point x="526" y="85" type="line"/>
			<point x="193" y="85" type="line"/>
		</contour>
	</outline>
</glyph>
<glyph name="zero.osf" format="2">
	<advance width="575"/>
	<outline>
		<contour>
			<point x="288" y="-10" type="curve"/>
			<point x="431" y="-10"/>
			<point x="533" y="119"/>
			<point x="533" y="279" type="curve"/>
			<point x="533" y="396"/>
			<point x="436" y="510"/>
			<point x="288" y="510" type="curve"/>
			<point x="144" y="510"/>
			<point x="43" y="381"/>
			<point x="43" y="221" type="curve"/>
			<point x="43" y="104"/>
			<point x="139" y="-10"/>
		</contour>
		<contour>
			<point x="288" y="75" type="curve"/>
			<point x="206" y="75"/>
			<point x="152" y="152"/>
			<point x="152" y="230" type="curve"/>
			<point x="152" y="338"/>
			<point x="208" y="425"/>
			<point x="288" y="425" type="curve"/>
			<point x="369" y="425"/>
			<point x="422" y="348"/>
			<point x="422" y="270" type="curve"/>
			<point x="422" y="162"/>
			<point x="367" y="75"/>
		</contour>
	</outline>
</glyph>
